<svg width="34" height="34"  viewBox="0 0 34 34" fill="none" xmlns="http://www.w3.org/2000/svg">

    <path d="M17 34C26.3888 34 34 26.3888 34 17C34 7.61116 26.3888 0 17 0C7.61116 0 0 7.61116 0 17C0 26.3888 7.61116 34 17 34Z" fill="#3F49FC"/>
    <svg width="25" height="25" viewBox="-6 -6 23 26" fill="none" xmlns="http://www.w3.org/2000/svg">
        <path d="M2.08306 10.8229C2.31504 10.9291 2.56691 10.985 2.82206 10.9868C3.1421 10.9883 3.45695 10.9059 3.73534 10.7481C4.01373 10.5902 4.24599 10.3622 4.40906 10.0869C4.58148 9.80005 4.66795 9.46978 4.6582 9.13529C4.64845 8.80079 4.54289 8.47612 4.35406 8.19985L5.85406 6.12085C6.16343 6.19982 6.48813 6.19593 6.79551 6.10956C7.10289 6.02319 7.38211 5.85739 7.60506 5.62885C7.87906 5.76585 8.12506 5.90285 8.39806 6.03885C8.64406 6.17585 8.89006 6.31285 9.16406 6.44885V6.47585C9.13266 6.74771 9.16583 7.02315 9.26088 7.27978C9.35592 7.53642 9.51016 7.76702 9.71106 7.95285C10.0303 8.27539 10.4596 8.46544 10.913 8.48495C11.3664 8.50446 11.8104 8.35198 12.1562 8.05804C12.502 7.76411 12.724 7.35041 12.7777 6.89979C12.8315 6.44916 12.713 5.99486 12.4461 5.62785C12.8561 5.02785 13.2941 4.45185 13.7041 3.84985L13.9231 3.54985C14.3345 3.67063 14.7754 3.6406 15.1667 3.46515C15.5579 3.28971 15.8736 2.98038 16.0571 2.59285C16.2266 2.20874 16.2622 1.7788 16.1581 1.37204C16.0541 0.965272 15.8163 0.60528 15.4831 0.34985C15.1489 0.106542 14.7417 -0.015295 14.3289 0.00452899C13.916 0.024353 13.5223 0.184648 13.2131 0.45885C12.881 0.749606 12.665 1.1504 12.6048 1.58762C12.5445 2.02484 12.644 2.46912 12.8851 2.83885L11.4081 4.83885C11.1106 4.76472 10.7994 4.76596 10.5026 4.84244C10.2057 4.91892 9.93265 5.06823 9.70806 5.27685C9.46206 5.13985 9.21606 5.03085 8.96906 4.89385C8.72206 4.75685 8.44906 4.61985 8.20306 4.48385C8.17319 4.46963 8.14556 4.4511 8.12106 4.42885V4.34685C8.14302 3.97376 8.04272 3.60369 7.83536 3.29276C7.62801 2.98182 7.32493 2.74698 6.97206 2.62385C6.60857 2.49403 6.21389 2.47949 5.84183 2.58222C5.46977 2.68494 5.13846 2.89992 4.89306 3.19785C4.65268 3.49357 4.51694 3.86052 4.50699 4.24148C4.49704 4.62245 4.61345 4.99599 4.83806 5.30385V5.33085C4.83806 5.33801 4.83522 5.34488 4.83015 5.34994C4.82509 5.35501 4.81822 5.35785 4.81106 5.35785C4.37306 5.93185 3.88106 6.61585 3.38906 7.32785C3.33406 7.38285 3.33406 7.40985 3.33406 7.40985C3.30517 7.40657 3.27726 7.39738 3.25206 7.38285C2.81019 7.26729 2.34072 7.32782 1.94261 7.55168C1.5445 7.77555 1.24888 8.14525 1.11806 8.58285C0.97055 9.00931 0.987752 9.4755 1.16629 9.88994C1.34483 10.3044 1.67181 10.6371 2.08306 10.8229ZM2.93106 9.72885C2.77895 9.7557 2.62236 9.72213 2.49461 9.63528C2.36687 9.54844 2.27805 9.41518 2.24706 9.26385C2.23062 9.10957 2.26923 8.95443 2.35606 8.82585C2.40047 8.76156 2.45719 8.70672 2.52293 8.6645C2.58867 8.62227 2.66213 8.5935 2.73906 8.57985H2.82106C2.95954 8.58049 3.09328 8.63032 3.19842 8.72044C3.30355 8.81056 3.37325 8.9351 3.39506 9.07185C3.41373 9.14623 3.41603 9.22379 3.40181 9.29915C3.38759 9.37451 3.35718 9.44589 3.31268 9.50835C3.26819 9.57082 3.21066 9.62288 3.14409 9.66095C3.07751 9.69902 3.00346 9.72219 2.92706 9.72885H2.93106ZM6.78306 4.66785C6.74439 4.73505 6.68853 4.79075 6.62123 4.82923C6.55392 4.86772 6.47759 4.8876 6.40006 4.88685C6.2524 4.90455 6.10342 4.86678 5.98202 4.78086C5.86063 4.69494 5.77547 4.567 5.74306 4.42185C5.72501 4.34987 5.72555 4.27449 5.74461 4.20277C5.76368 4.13106 5.80065 4.06536 5.85206 4.01185C5.89647 3.94756 5.95319 3.89272 6.01893 3.8505C6.08467 3.80827 6.15813 3.7795 6.23506 3.76585H6.34406C6.46316 3.76 6.58015 3.79888 6.67206 3.87485C6.79106 3.97007 6.86935 4.107 6.89106 4.25785C6.89753 4.40231 6.85986 4.54532 6.78306 4.66785ZM11.5431 6.47285C11.5595 6.55363 11.5582 6.63701 11.5394 6.71727C11.5206 6.79753 11.4847 6.87277 11.4341 6.93785C11.3985 7.0018 11.347 7.05554 11.2847 7.09389C11.2224 7.13224 11.1512 7.15392 11.0781 7.15685C10.9293 7.18929 10.7737 7.16139 10.6455 7.07928C10.5173 6.99716 10.4268 6.86754 10.3941 6.71885C10.376 6.64508 10.3731 6.56842 10.3856 6.49351C10.3981 6.41859 10.4256 6.34699 10.4666 6.28304C10.5075 6.21908 10.561 6.16411 10.6239 6.12145C10.6867 6.07879 10.7575 6.04933 10.8321 6.03485H10.9411C11.0754 6.03333 11.2067 6.07524 11.3154 6.15434C11.424 6.23344 11.5042 6.3455 11.5441 6.47385L11.5431 6.47285ZM15.0171 1.65885C15.0333 1.73091 15.0319 1.80584 15.0129 1.87723C14.9939 1.94862 14.958 2.01437 14.9081 2.06885C14.8637 2.13314 14.8069 2.18798 14.7412 2.2302C14.6755 2.27243 14.602 2.3012 14.5251 2.31485C14.4511 2.33068 14.3746 2.331 14.3006 2.31578C14.2265 2.30057 14.1563 2.27015 14.0946 2.22645C14.0328 2.18275 13.9808 2.12672 13.9418 2.0619C13.9028 1.99708 13.8777 1.92487 13.8681 1.84985C13.839 1.69873 13.8683 1.54221 13.9501 1.41185C13.9917 1.34506 14.0477 1.28836 14.1139 1.24582C14.1802 1.20328 14.255 1.17597 14.3331 1.16585C14.4138 1.14944 14.4972 1.15068 14.5775 1.16949C14.6577 1.18831 14.733 1.22425 14.7981 1.27485C14.9069 1.37893 14.9833 1.51229 15.0181 1.65885H15.0171Z" fill="white"/>
        <path d="M17.8091 19.714C17.75 19.6504 17.6778 19.6004 17.5975 19.5674C17.5172 19.5344 17.4308 19.5193 17.3441 19.523H16.9341V9.15195C16.9341 8.46795 16.7151 8.25195 16.0341 8.25195H13.0761C12.4191 8.25195 12.2281 8.44295 12.2281 9.12695V19.522H11.2711V11.422C11.2691 11.3547 11.2502 11.289 11.2161 11.231C11.1732 11.1594 11.1133 11.0996 11.0418 11.0567C10.9703 11.0138 10.8893 10.9892 10.8061 10.985H6.97606C6.89853 10.9842 6.8222 11.0041 6.75489 11.0426C6.68759 11.0811 6.63173 11.1368 6.59306 11.204C6.54384 11.2558 6.51476 11.3236 6.51106 11.395V19.495H5.69106V13.586C5.69106 12.902 5.50006 12.711 4.81606 12.711H1.86106C1.20406 12.711 0.986057 12.93 0.986057 13.611V19.552H0.630058C0.547084 19.5506 0.464685 19.5659 0.38776 19.5971C0.310836 19.6282 0.240955 19.6745 0.182276 19.7332C0.123596 19.7919 0.0773163 19.8617 0.0461846 19.9387C0.015053 20.0156 -0.00029296 20.098 0.00105868 20.181C0.00105868 20.372 0.0830571 20.81 0.931057 20.81H17.0701C17.8631 20.81 18.0001 20.427 18.0001 20.181C17.9902 20.0084 17.923 19.844 17.8091 19.714ZM15.5661 9.59195V19.522H13.5141V9.59195H15.5661ZM9.93106 12.328V19.522H7.87906V12.328H9.93106ZM4.37806 14.079V19.522H2.32606V14.078L4.37806 14.079Z" fill="white"/>
    </svg>
</svg>





