<svg width="24" height="24" viewBox="0 0 24 24" fill="none" xmlns="http://www.w3.org/2000/svg">
    <path d="M8.0625 11.875H6.9375C6.64617 11.875 6.41016 12.111 6.41016 12.4023C6.41016 12.6937 6.64617 12.9297 6.9375 12.9297H8.0625C8.35383 12.9297 8.58984 12.6937 8.58984 12.4023C8.58984 12.111 8.35383 11.875 8.0625 11.875Z" fill="#3F49FC"/>
    <path d="M8.0625 14.125H6.9375C6.64617 14.125 6.41016 14.361 6.41016 14.6523C6.41016 14.9437 6.64617 15.1797 6.9375 15.1797H8.0625C8.35383 15.1797 8.58984 14.9437 8.58984 14.6523C8.58984 14.361 8.35383 14.125 8.0625 14.125Z" fill="#3F49FC"/>
    <path d="M8.0625 16.375H6.9375C6.64617 16.375 6.41016 16.611 6.41016 16.9023C6.41016 17.1937 6.64617 17.4297 6.9375 17.4297H8.0625C8.35383 17.4297 8.58984 17.1937 8.58984 16.9023C8.58984 16.611 8.35383 16.375 8.0625 16.375Z" fill="#3F49FC"/>
    <path d="M12.5625 11.875H11.4375C11.1462 11.875 10.9102 12.111 10.9102 12.4023C10.9102 12.6937 11.1462 12.9297 11.4375 12.9297H12.5625C12.8538 12.9297 13.0898 12.6937 13.0898 12.4023C13.0898 12.111 12.8538 11.875 12.5625 11.875Z" fill="#3F49FC"/>
    <path d="M12.5625 14.125H11.4375C11.1462 14.125 10.9102 14.361 10.9102 14.6523C10.9102 14.9437 11.1462 15.1797 11.4375 15.1797H12.5625C12.8538 15.1797 13.0898 14.9437 13.0898 14.6523C13.0898 14.361 12.8538 14.125 12.5625 14.125Z" fill="#3F49FC"/>
    <path d="M12.5625 16.375H11.4375C11.1462 16.375 10.9102 16.611 10.9102 16.9023C10.9102 17.1937 11.1462 17.4297 11.4375 17.4297H12.5625C12.8538 17.4297 13.0898 17.1937 13.0898 16.9023C13.0898 16.611 12.8538 16.375 12.5625 16.375Z" fill="#3F49FC"/>
    <path d="M17.0625 11.875H15.9375C15.6462 11.875 15.4102 12.111 15.4102 12.4023C15.4102 12.6937 15.6462 12.9297 15.9375 12.9297H17.0625C17.3538 12.9297 17.5898 12.6937 17.5898 12.4023C17.5898 12.111 17.3538 11.875 17.0625 11.875Z" fill="#3F49FC"/>
    <path d="M17.0625 14.125H15.9375C15.6462 14.125 15.4102 14.361 15.4102 14.6523C15.4102 14.9437 15.6462 15.1797 15.9375 15.1797H17.0625C17.3538 15.1797 17.5898 14.9437 17.5898 14.6523C17.5898 14.361 17.3538 14.125 17.0625 14.125Z" fill="#3F49FC"/>
    <path d="M17.0625 16.375H15.9375C15.6462 16.375 15.4102 16.611 15.4102 16.9023C15.4102 17.1937 15.6462 17.4297 15.9375 17.4297H17.0625C17.3538 17.4297 17.5898 17.1937 17.5898 16.9023C17.5898 16.611 17.3538 16.375 17.0625 16.375Z" fill="#3F49FC"/>
    <path d="M19.418 5.40625H18.1523V4.52734C18.1523 4.23602 17.9163 4 17.625 4C17.3337 4 17.0977 4.23602 17.0977 4.52734V5.40625H12.5273V4.52734C12.5273 4.23602 12.2913 4 12 4C11.7087 4 11.4727 4.23602 11.4727 4.52734V5.40625H6.90234V4.52734C6.90234 4.23602 6.66633 4 6.375 4C6.08367 4 5.84766 4.23602 5.84766 4.52734V5.40625H4.58203C3.70973 5.40625 3 6.11598 3 6.98828V18.6602C3 19.5325 3.70973 20.2422 4.58203 20.2422H19.418C20.2903 20.2422 21 19.5325 21 18.6602V6.98828C21 6.11598 20.2903 5.40625 19.418 5.40625ZM4.05469 6.98828C4.05469 6.69752 4.29127 6.46094 4.58203 6.46094H5.84766V7.33984C5.84766 7.63117 6.08367 7.86719 6.375 7.86719C6.66633 7.86719 6.90234 7.63117 6.90234 7.33984V6.46094H11.4727V7.33984C11.4727 7.63117 11.7087 7.86719 12 7.86719C12.2913 7.86719 12.5273 7.63117 12.5273 7.33984V6.46094H17.0977V7.33984C17.0977 7.63117 17.3337 7.86719 17.625 7.86719C17.9163 7.86719 18.1523 7.63117 18.1523 7.33984V6.46094H19.418C19.7087 6.46094 19.9453 6.69752 19.9453 6.98828V9.0625H4.05469V6.98828ZM19.418 19.1875H4.58203C4.29127 19.1875 4.05469 18.9509 4.05469 18.6602V10.1172H19.9453V18.6602C19.9453 18.9509 19.7087 19.1875 19.418 19.1875Z" fill="#3F49FC"/>
</svg>
