<svg width="36" height="36" viewBox="0 0 24 24" fill="none" xmlns="http://www.w3.org/2000/svg">
    <path d="M13.0186 12.3886L17.7768 7.63032C17.8453 7.56383 17.8998 7.48439 17.9373 7.39663C17.9748 7.30887 17.9944 7.21453 17.9951 7.11911C17.9958 7.02369 17.9775 6.92908 17.9413 6.84079C17.9051 6.7525 17.8517 6.67228 17.7842 6.6048C17.7168 6.53733 17.6365 6.48394 17.5483 6.44774C17.46 6.41154 17.3654 6.39325 17.2699 6.39394C17.1745 6.39463 17.0802 6.41428 16.9924 6.45175C16.9047 6.48921 16.8252 6.54375 16.7587 6.61219L12.0005 11.3705L7.24226 6.61219C7.10659 6.48038 6.9245 6.40725 6.73535 6.40862C6.54619 6.40998 6.36517 6.48572 6.23142 6.61948C6.09766 6.75323 6.02192 6.93425 6.02055 7.12341C6.01919 7.31256 6.09232 7.49465 6.22413 7.63032L10.9823 12.3886L6.22413 17.1469C6.15569 17.2134 6.10115 17.2928 6.06368 17.3806C6.02622 17.4683 6.00657 17.5627 6.00588 17.6581C6.00519 17.7535 6.02348 17.8481 6.05968 17.9364C6.09588 18.0247 6.14927 18.1049 6.21674 18.1724C6.28422 18.2399 6.36443 18.2933 6.45273 18.3295C6.54102 18.3657 6.63563 18.3839 6.73105 18.3833C6.82647 18.3826 6.9208 18.3629 7.00857 18.3255C7.09633 18.288 7.17577 18.2334 7.24226 18.165L12.0005 13.4067L16.7587 18.165C16.8252 18.2334 16.9047 18.288 16.9924 18.3255C17.0802 18.3629 17.1745 18.3826 17.2699 18.3833C17.3654 18.3839 17.46 18.3657 17.5483 18.3295C17.6365 18.2933 17.7168 18.2399 17.7842 18.1724C17.8517 18.1049 17.9051 18.0247 17.9413 17.9364C17.9775 17.8481 17.9958 17.7535 17.9951 17.6581C17.9944 17.5627 17.9748 17.4683 17.9373 17.3806C17.8998 17.2928 17.8453 17.2134 17.7768 17.1469L13.0186 12.3886Z" fill="white"/>
</svg>
