<svg xmlns="http://www.w3.org/2000/svg" xmlns:xlink="http://www.w3.org/1999/xlink" version="1.1" x="0px" y="0px" viewBox="0 0 32 32" enable-background="new 0 0 32 32" xml:space="preserve"><path d="M21.956,7.201H5.524c-1.571,0-2.85,1.277-2.85,2.85v16.43c0,1.572,1.279,2.85,2.85,2.85h16.431  c1.572,0,2.85-1.277,2.85-2.85v-16.43C24.806,8.479,23.527,7.201,21.956,7.201z M22.906,26.48c0,0.523-0.426,0.949-0.95,0.949H5.524  c-0.523,0-0.95-0.426-0.95-0.949v-16.43c0-0.525,0.426-0.951,0.95-0.951h16.431c0.524,0,0.95,0.426,0.95,0.951V26.48z"/><path d="M26.476,2.67H10.044c-1.572,0-2.85,1.277-2.85,2.85v0.73h1.9V5.52c0-0.525,0.426-0.951,0.95-0.951h16.431  c0.523,0,0.95,0.426,0.95,0.951v16.432c0,0.523-0.426,0.949-0.95,0.949h-0.72v1.9h0.72c1.571,0,2.85-1.277,2.85-2.85V5.52  C29.326,3.947,28.047,2.67,26.476,2.67z"/></svg>