<svg id="Livello_1" data-name="Livello 1" xmlns="http://www.w3.org/2000/svg" width="50" height="50" viewBox="0 0 50 50"><defs><style>.cls-1{fill:#3f49f6;}.cls-2{fill:#fff;}</style></defs><rect class="cls-1" width="50" height="50" rx="25"/><path class="cls-2" d="M40.8761,35.4985l-1.8906-2.4961a1.5,1.5,0,0,0-2.6954.9058v.9961H17.2872V12.436h.9961A1.5,1.5,0,0,0,19.1886,9.74L16.6925,7.85a1.5,1.5,0,0,0-1.8106,0L12.3858,9.74a1.5,1.5,0,0,0,.9053,2.6958h.9961V36.4043a1.5,1.5,0,0,0,1.5,1.5H36.29V38.9a1.5,1.5,0,0,0,2.6954.9058L40.8761,37.31A1.4989,1.4989,0,0,0,40.8761,35.4985Z"/><path class="cls-2" d="M21.9982,32.2026a1.5284,1.5284,0,0,0,.2724-.0249C34.4923,29.94,37.7179,15.5439,37.85,14.9321a1.5,1.5,0,0,0-2.9336-.63c-.0273.13-2.914,13.044-13.1865,14.9244a1.5,1.5,0,0,0,.2686,2.976Z"/></svg>