<?xml version="1.0" encoding="utf-8"?>
<!-- Generator: Adobe Illustrator 24.0.2, SVG Export Plug-In . SVG Version: 6.00 Build 0)  -->
<svg version="1.1" id="Livello_1" xmlns="http://www.w3.org/2000/svg" xmlns:xlink="http://www.w3.org/1999/xlink" x="0px" y="0px"
	 viewBox="0 0 100 100" style="enable-background:new 0 0 100 100;" xml:space="preserve">
<style type="text/css">
	.st0{fill:#1D1D1B;}
	.st1{fill:#FFFFFF;}
</style>
<g>
	<path class="st0" d="M50,28.7c1.6,0,2.9-1.3,2.9-2.9V13.4c0-1.6-1.3-2.9-2.9-2.9s-2.9,1.3-2.9,2.9v12.4
		C47.1,27.4,48.4,28.7,50,28.7z"/>
	<path class="st0" d="M64,30.9c1.4,0.6,3.1,0,3.8-1.5l4.7-10.7c0.3-0.7,0.3-1.5,0.1-2.2c-0.3-0.7-0.8-1.3-1.5-1.6
		c-0.7-0.3-1.5-0.3-2.2-0.1c-0.7,0.3-1.3,0.8-1.6,1.5l-4.7,10.7C61.9,28.5,62.6,30.2,64,30.9z"/>
	<path class="st0" d="M81.5,38l6.9-6.2c0.6-0.5,0.9-1.2,0.9-2c0-0.8-0.2-1.5-0.7-2.1c-0.5-0.6-1.2-0.9-2-0.9c-0.1,0-0.1,0-0.2,0
		c-0.7,0-1.4,0.3-1.9,0.7l-6.9,6.2c-1.2,1.1-1.3,2.9-0.2,4.1C78.5,38.9,80.3,39,81.5,38z"/>
	<path class="st0" d="M50,47.4c-8.3,0-15,6.7-15,15c0,8.3,6.7,15,15,15s15-6.7,15-15C65,54.1,58.3,47.4,50,47.4z M50,71.7
		c-5.1,0-9.3-4.2-9.3-9.3s4.2-9.3,9.3-9.3s9.3,4.2,9.3,9.3S55.1,71.7,50,71.7z"/>
	<path class="st0" d="M89.2,61.1C82.6,48.3,67.9,35.3,50,35.3S17.4,48.3,10.8,61.1c-0.4,0.8-0.4,1.8,0,2.6
		C17.4,76.6,32.1,89.5,50,89.5c20.5,0,34.6-16.9,39.2-25.8C89.6,62.9,89.6,61.9,89.2,61.1z M83.3,62.5C75.2,75.8,62.8,83.8,50,83.8
		c-6.7,0-13.2-2.1-19.3-6.2c-5.4-3.7-10.2-8.9-14-15l-0.1-0.1l0.1-0.1c3.7-6.1,8.5-11.3,13.9-15c6.1-4.1,12.6-6.2,19.3-6.2
		c6.8,0,13.2,2.1,19.3,6.2c5.4,3.7,10.2,8.9,14,15l0.1,0.1L83.3,62.5z"/>
	<path class="st0" d="M11.6,31.7l6.9,6.2c0.6,0.5,1.3,0.8,2.1,0.7c0.8,0,1.5-0.4,2-0.9c1.1-1.2,1-3-0.2-4.1l-6.9-6.2
		c-0.5-0.5-1.2-0.7-1.9-0.7c-0.1,0-0.1,0-0.2,0c-0.8,0-1.5,0.4-2,0.9c-0.5,0.6-0.8,1.3-0.7,2.1C10.7,30.5,11,31.2,11.6,31.7z"/>
	<path class="st0" d="M32.2,29.4c0.6,1.4,2.3,2.1,3.8,1.5c0.7-0.3,1.2-0.9,1.5-1.6c0.3-0.7,0.3-1.5-0.1-2.2l-4.7-10.7
		C32,15,30.3,14.3,28.9,15c-0.7,0.3-1.2,0.9-1.5,1.6c-0.3,0.7-0.3,1.5,0.1,2.2L32.2,29.4z"/>
</g>
</svg>
