<svg id="Livello_1" data-name="Livello 1" xmlns="http://www.w3.org/2000/svg" width="50" height="50" viewBox="0 0 50 50"><defs><style>.cls-1{fill:#3f49f6;}.cls-2{fill:#fff;}</style></defs><rect class="cls-1" width="50" height="50" rx="25"/><path class="cls-2" d="M25,8.7129A16.2871,16.2871,0,1,0,41.2869,25,16.3055,16.3055,0,0,0,25,8.7129ZM38.1961,23.5H26.5V11.8036A13.3042,13.3042,0,0,1,38.1961,23.5ZM11.7127,25A13.3022,13.3022,0,0,1,23.5,11.8036v14.11l-.0059.0045.0059.0075v.0105h.008l8.1543,10.5418A13.2623,13.2623,0,0,1,11.7127,25Zm22.3555,9.6843L27.7373,26.5H38.1961A13.2467,13.2467,0,0,1,34.0682,34.6843Z"/></svg>