<?xml version="1.0" encoding="utf-8"?>
<!-- Generator: Adobe Illustrator 24.0.2, SVG Export Plug-In . SVG Version: 6.00 Build 0)  -->
<svg version="1.1" id="Livello_1" xmlns="http://www.w3.org/2000/svg" xmlns:xlink="http://www.w3.org/1999/xlink" x="0px" y="0px"
	 viewBox="0 0 100 100" style="enable-background:new 0 0 100 100;" xml:space="preserve">
<style type="text/css">
	.st0{fill:#1D1D1B;}
	.st1{fill:#FFFFFF;}
</style>
<g>
	<path class="st0" d="M20.9,28.4c-1.5,0-2.9,0-4.3,0c-1.9,0-3.2-1.2-3.3-2.8c0-1.6,1.2-2.8,3.2-2.8c5.7,0,11.5-0.1,17.2-0.1
		c0.6,0,1.3,0,2.1,0c0-1.4,0-2.5,0-3.7c0.1-4.1,3-7.3,7.1-7.5c4.6-0.1,9.2-0.2,13.8,0c4.2,0.1,7.1,3.3,7.3,7.5c0,1.1,0,2.2,0,3.5
		c0.7,0,1.2,0.1,1.8,0.1c5.5,0,11,0,16.6,0.1c0.4,0,0.9,0,1.3,0c1.7,0.1,2.8,1.2,2.9,2.7c0,1.5-1.2,2.8-2.8,2.9
		c-1.5,0.1-3.1,0-4.8,0c-0.1,1.3-0.2,2.4-0.3,3.5c-0.9,14.4-1.8,28.8-2.7,43.2c-0.1,1.5-0.1,3-0.5,4.5c-1.2,5.4-5.7,8.9-11.5,8.9
		c-7.5,0.1-15,0-22.5,0c-2,0-4,0-6,0c-6.3-0.2-11-4.8-11.4-11.1c-1-15.9-2.1-31.9-3.2-47.8C21.1,29.3,21,29,20.9,28.4z M73.2,28.7
		c-15.6,0-30.9,0-46.3,0c1,16.3,1.9,32.4,2.9,48.6c0.2,3.5,2.6,5.6,6.2,5.6c9.1,0,18.2,0,27.4,0c4.6,0,6.6-2,6.9-6.6
		c0.8-13.2,1.7-26.4,2.5-39.7C73,34,73.1,31.4,73.2,28.7z M58.4,22.6c0-1.3,0-2.3,0-3.4c0-1.2-0.6-1.9-1.8-1.9
		c-4.5,0-8.9-0.1-13.4,0.1c-0.6,0-1.5,0.8-1.6,1.4c-0.2,1.2-0.1,2.5-0.1,3.8C47.3,22.6,52.8,22.6,58.4,22.6z"/>
	<path class="st0" d="M58.4,55.7c0-4.7,0-9.3,0-14c0-0.5,0-1,0.1-1.4c0.3-1.4,1.5-2.4,2.8-2.4c1.3,0,2.5,1,2.8,2.5
		c0.1,0.3,0,0.6,0,1c0,9.6,0,19.2,0,28.8c0,0.2,0,0.3,0,0.5c-0.1,1.7-1.3,2.9-2.8,3c-1.6,0-2.9-1.2-2.9-3c0-4,0-8,0-12.1
		C58.4,57.5,58.4,56.6,58.4,55.7z"/>
	<path class="st0" d="M41.6,55.8c0,4.8,0,9.5,0,14.3c0,1.9-1,3.2-2.6,3.3c-1.7,0.2-3.1-1.2-3.1-3.1c0-3.3,0-6.6,0-10
		c0-6.4-0.1-12.8,0.1-19.1c0-1,0.6-2.2,1.3-2.9c0.5-0.5,1.8-0.5,2.7-0.2c1.2,0.4,1.7,1.6,1.7,2.8C41.6,45.9,41.6,50.9,41.6,55.8
		C41.6,55.8,41.6,55.8,41.6,55.8z"/>
	<path class="st0" d="M47.2,55.5c0-4.7,0-9.4,0-14.2c0-2.2,1.1-3.5,2.9-3.5c1.7,0,2.8,1.4,2.8,3.6c0,9.5,0,19,0,28.5
		c0,2.2-1.1,3.6-2.8,3.6c-1.8,0-2.9-1.4-2.9-3.7C47.1,65,47.1,60.3,47.2,55.5C47.1,55.5,47.1,55.5,47.2,55.5z"/>
</g>
</svg>
