<svg width="24" height="24" viewBox="0 0 24 24" fill="none" xmlns="http://www.w3.org/2000/svg">
    <g clip-path="url(#clip0_2225_2249)">
        <path d="M16.9615 12.4878C17.2148 11.6895 17.3485 10.8596 17.3584 10.0238C17.3584 8.16094 16.602 6.37439 15.2556 5.05716C13.9093 3.73992 12.0832 2.99991 10.1792 2.99991C8.27515 2.99991 6.44909 3.73992 5.10274 5.05716C3.75638 6.37439 3 8.16094 3 10.0238C3 11.3125 3.3653 12.7291 4.08567 14.2346C4.6502 15.4148 5.43441 16.6552 6.4165 17.9217C7.43317 19.235 8.56048 20.4628 9.7866 21.592L10.1792 21.9413L10.5718 21.5921C10.6018 21.5654 11.314 20.9305 12.2759 19.8865C12.731 20.549 13.3484 21.0893 14.0719 21.4581C14.7954 21.8269 15.6019 22.0123 16.4175 21.9976C17.2332 21.9828 18.032 21.7683 18.7411 21.3736C19.4502 20.9788 20.0468 20.4166 20.4765 19.7381C20.9061 19.0596 21.1551 18.2866 21.2007 17.4897C21.2463 16.6928 21.087 15.8974 20.7374 15.1763C20.3878 14.4552 19.859 13.8312 19.1994 13.3616C18.5398 12.8919 17.7704 12.5915 16.9615 12.4878ZM20.0407 17.2237C20.0407 17.9424 19.8229 18.645 19.4147 19.2426C19.0066 19.8402 18.4265 20.3059 17.7478 20.5809C17.0691 20.856 16.3223 20.9279 15.6018 20.7877C14.8813 20.6475 14.2195 20.3014 13.7001 19.7932C13.1807 19.285 12.8269 18.6375 12.6836 17.9326C12.5403 17.2277 12.6139 16.497 12.895 15.833C13.1761 15.169 13.6522 14.6015 14.263 14.2022C14.8738 13.8029 15.5919 13.5898 16.3265 13.5898C17.3113 13.5909 18.2554 13.9741 18.9517 14.6553C19.648 15.3366 20.0396 16.2603 20.0407 17.2237ZM15.7386 12.4823C15.0155 12.5682 14.3211 12.8113 13.7064 13.1938C13.0917 13.5763 12.5723 14.0886 12.1863 14.693C11.8003 15.2975 11.5575 15.9788 11.4756 16.687C11.3937 17.3952 11.4748 18.1124 11.7131 18.7859C11.0868 19.4856 10.5356 20.0365 10.1796 20.3788C8.75405 19.0052 4.16764 14.2531 4.16764 10.0238C4.16764 8.46391 4.80101 6.96791 5.9284 5.86491C7.05579 4.76191 8.58486 4.14225 10.1792 4.14225C11.7736 4.14225 13.3027 4.76191 14.4301 5.86491C15.5575 6.96791 16.1908 8.46391 16.1908 10.0238C16.1908 10.7816 16.0387 11.6087 15.7386 12.4823Z" fill="white"/>
        <path d="M16.9106 15.041H15.743V16.6526H14.0957V17.7949H15.743V19.4065H16.9106V17.7949H18.5579V16.6526H16.9106V15.041Z" fill="white"/>
        <path d="M10.1792 6.5197C9.35042 6.51961 8.54727 6.80067 7.90659 7.31499C7.2659 7.82932 6.82732 8.54507 6.66557 9.34031C6.50382 10.1355 6.62892 10.961 7.01954 11.6762C7.41017 12.3913 8.04215 12.9517 8.8078 13.2621C9.57345 13.5724 10.4254 13.6134 11.2185 13.378C12.0116 13.1427 12.6967 12.6456 13.1571 11.9714C13.6176 11.2973 13.8249 10.4877 13.7436 9.68082C13.6624 8.8739 13.2977 8.11949 12.7117 7.54616C12.3799 7.21969 11.9853 6.96087 11.5506 6.78468C11.1158 6.60848 10.6497 6.51842 10.1792 6.5197ZM12.5933 10.0239C12.5933 10.5703 12.3997 11.0999 12.0454 11.5223C11.6911 11.9448 11.198 12.2339 10.6502 12.3406C10.1024 12.4472 9.53379 12.3647 9.04119 12.1072C8.54858 11.8496 8.1625 11.4329 7.94872 10.9281C7.73494 10.4232 7.7067 9.86146 7.86879 9.33853C8.03089 8.81559 8.3733 8.36382 8.83768 8.06019C9.30207 7.75656 9.85969 7.61986 10.4155 7.67338C10.9714 7.7269 11.4911 7.96733 11.8861 8.3537C12.111 8.57248 12.2893 8.83276 12.4107 9.11945C12.5321 9.40614 12.5942 9.71355 12.5933 10.0239Z" fill="white"/>
    </g>
    <defs>
        <clipPath id="clip0_2225_2249">
            <rect width="18.2083" height="19" fill="white" transform="translate(3 3)"/>
        </clipPath>
    </defs>
</svg>
