<?xml version="1.0" encoding="utf-8"?>
<!-- Generator: Adobe Illustrator 24.0.2, SVG Export Plug-In . SVG Version: 6.00 Build 0)  -->
<svg version="1.1" id="Livello_1" xmlns="http://www.w3.org/2000/svg" xmlns:xlink="http://www.w3.org/1999/xlink" x="0px" y="0px"
     viewBox="0 0 100 100" style="enable-background:new 0 0 100 100;" xml:space="preserve">
<style type="text/css">
	.st0{fill:#888EFF;}
	.st1{fill:#FFFFFF;}
</style>
    <g>
	<path class="st0" d="M88.7,13.4L88.7,13.4c-1.8-1.6-4-2.5-6.3-2.5c-2.6,0-5.1,1.1-6.8,3L40.1,52.7c-0.3,0.3-0.5,0.6-0.6,1
		l-4.2,12.5c-0.4,1.2-0.2,2.6,0.6,3.6c0.8,1.1,2,1.7,3.3,1.7c0.6,0,1.1-0.1,1.6-0.3l12.1-5.3c0.4-0.2,0.7-0.4,0.9-0.7l35.5-38.8
		C92.7,22.7,92.4,16.8,88.7,13.4z M50.2,61.1l-8.7,3.8l3-9l0.8-0.9l5.7,5.2L50.2,61.1z M85.2,22.7L54.6,56.3L49,51.1l30.6-33.5
		c0.7-0.8,1.7-1.2,2.8-1.2c0.9,0,1.8,0.4,2.5,1l0.1,0.1c0.7,0.7,1.2,1.6,1.2,2.6C86.3,21,85.9,22,85.2,22.7z"/>
        <path class="st0" d="M82.3,42.5c-1.5,0-2.7,1.2-2.7,2.7v29.1c0,5.2-4.2,9.4-9.4,9.4H28.6c-5.2,0-9.4-4.2-9.4-9.4V33.1
		c0-5.2,4.2-9.4,9.4-9.4h30c1.5,0,2.7-1.2,2.7-2.7c0-1.5-1.2-2.7-2.7-2.7h-30c-8.2,0-14.9,6.7-14.9,14.9v41.2
		c0,8.2,6.7,14.9,14.9,14.9h41.5c8.2,0,14.9-6.7,14.9-14.9V45.2c0-0.7-0.3-1.4-0.8-1.9C83.7,42.8,83,42.5,82.3,42.5z"/>
</g>
</svg>
