<?xml version="1.0" encoding="UTF-8"?><svg id="Livello_1" xmlns="http://www.w3.org/2000/svg" viewBox="0 0 50 50"><defs><style>.cls-1{fill:#fff;}.cls-2{fill:#3f49f6;}</style></defs><path class="cls-2" d="m25,0h0c13.81,0,25,11.19,25,25h0c0,13.81-11.19,25-25,25h0C11.19,50,0,38.81,0,25h0C0,11.19,11.19,0,25,0Z"/><path class="cls-1" d="m40.88,35.5l-1.89-2.5c-.5-.66-1.44-.79-2.1-.29-.37.28-.59.73-.59,1.2v1h-19V12.44h1c.83,0,1.5-.67,1.5-1.5,0-.47-.22-.91-.59-1.2l-2.5-1.89c-.54-.41-1.28-.41-1.81,0l-2.5,1.89c-.66.5-.79,1.44-.29,2.1.28.37.73.59,1.2.59h1v23.97c0,.83.67,1.5,1.5,1.5h20.5v1c0,.83.67,1.5,1.5,1.5.47,0,.91-.22,1.2-.59l1.89-2.5c.41-.54.41-1.28,0-1.81Z"/><path class="cls-1" d="m22,32.2c.09,0,.18,0,.27-.02,12.22-2.24,15.45-16.63,15.58-17.25.17-.81-.34-1.61-1.15-1.78-.81-.17-1.61.34-1.78,1.15h0c-.03.13-2.91,13.04-13.19,14.92-.82.15-1.36.93-1.21,1.74.13.71.75,1.23,1.48,1.23h0Z"/><path class="cls-1" d="m39.15,29.02c0-.09,0-.18-.03-.27-2.24-12.34-16.5-15.56-17.1-15.69-.8-.17-1.59.35-1.76,1.17s.34,1.62,1.14,1.8c.13.03,12.92,2.91,14.8,13.28.15.82.92,1.37,1.73,1.22.71-.13,1.22-.76,1.22-1.49h0Z"/></svg>