<svg xmlns="http://www.w3.org/2000/svg" width="61.804" height="62.332" viewBox="0 0 61.804 62.332">
  <g id="noun_Feedback_Emoji_1696123" data-name="noun_Feedback Emoji_1696123" transform="translate(-1.097 -0.834)">
    <g id="Group_33" data-name="Group 33">
      <path id="Path_32" data-name="Path 32" d="M39.374,54.087a2.32,2.32,0,0,0,1.695-.725,4.023,4.023,0,0,1,5.624,0,2.319,2.319,0,0,0,1.7.727h0a2.392,2.392,0,0,0,1.69-4.1,8.7,8.7,0,0,0-12.393-.005,2.413,2.413,0,0,0,1.686,4.11Z" fill="#5d93f5"/>
      <ellipse id="Ellipse_21" data-name="Ellipse 21" cx="2.892" cy="3.783" rx="2.892" ry="3.783" transform="translate(34.263 36.917)" fill="#5d93f5"/>
      <ellipse id="Ellipse_22" data-name="Ellipse 22" cx="2.892" cy="3.783" rx="2.892" ry="3.783" transform="translate(47.717 36.917)" fill="#5d93f5"/>
      <g id="Group_32" data-name="Group 32">
        <path id="Path_33" data-name="Path 33" d="M24.626,23.1a2.32,2.32,0,0,0-1.695.725,4.023,4.023,0,0,1-5.624,0,2.319,2.319,0,0,0-1.7-.727h0a2.392,2.392,0,0,0-1.69,4.1,8.7,8.7,0,0,0,12.393,0,2.413,2.413,0,0,0-1.686-4.11Z" fill="#5d93f5"/>
        <ellipse id="Ellipse_23" data-name="Ellipse 23" cx="2.892" cy="3.783" rx="2.892" ry="3.783" transform="translate(10.499 12.626)" fill="#5d93f5"/>
        <ellipse id="Ellipse_24" data-name="Ellipse 24" cx="2.892" cy="3.783" rx="2.892" ry="3.783" transform="translate(23.953 12.626)" fill="#5d93f5"/>
      </g>
      <path id="Path_34" data-name="Path 34" d="M20.118,38.876A19.021,19.021,0,1,1,39.139,19.855,19.042,19.042,0,0,1,20.118,38.876Zm0-34.023a15,15,0,1,0,15,15A15.019,15.019,0,0,0,20.118,4.853Z" fill="#5d93f5"/>
      <path id="Path_35" data-name="Path 35" d="M43.882,25.124a19.146,19.146,0,0,0-2.1.118A22.187,22.187,0,0,1,40.2,29.6,15.014,15.014,0,1,1,29.427,40.139a22.076,22.076,0,0,1-4.4,1.49A19.018,19.018,0,1,0,43.882,25.124Z" fill="#5d93f5"/>
    </g>
  </g>
</svg>
