<svg id="Livello_1" data-name="Livello 1" xmlns="http://www.w3.org/2000/svg" width="50" height="50" viewBox="0 0 50 50"><defs><style>.cls-1{fill:#3f49f6;}.cls-2{fill:#fff;}</style></defs><rect class="cls-1" width="50" height="50" rx="25"/><path class="cls-2" d="M40.8761,35.4985l-1.8906-2.4961a1.5,1.5,0,0,0-2.6954.9058v.9961H17.2872V12.436h.9961A1.5,1.5,0,0,0,19.1886,9.74L16.6925,7.85a1.5,1.5,0,0,0-1.8106,0L12.3858,9.74a1.5,1.5,0,0,0,.9053,2.6958h.9961V36.4043a1.5,1.5,0,0,0,1.5,1.5H36.29V38.9a1.5,1.5,0,0,0,2.6954.9058L40.8761,37.31A1.4989,1.4989,0,0,0,40.8761,35.4985Z"/><path class="cls-2" d="M24.3273,32.585H29.673a1.5,1.5,0,0,0,1.5-1.5v-16.17a1.5,1.5,0,0,0-1.5-1.5H24.3273a1.5,1.5,0,0,0-1.5,1.5v16.17A1.5,1.5,0,0,0,24.3273,32.585Zm3.8457-7.8H25.8273v-3.3H28.173Zm-2.3457,4.8v-2.8H28.173v2.8Zm2.3457-13.17v3.07H25.8273v-3.07Z"/></svg>