    <svg width="30" height="30" viewBox="0 0 30 30" fill="none" xmlns="http://www.w3.org/2000/svg">
    <path d="M22.0173 13.4301H20.4224V11.8352H22.0173V13.4301ZM25.2072 21.8035V11.0377C25.2065 10.4034 24.9542 9.79533 24.5057 9.34682C24.0572 8.89832 23.4491 8.64603 22.8148 8.64531H19.8811C19.8358 8.64546 19.7914 8.63317 19.7527 8.60977C19.7139 8.58637 19.6824 8.55278 19.6615 8.51265L18.8498 6.80715C18.8476 6.80248 18.8454 6.79786 18.843 6.79323C18.6909 6.48635 18.4558 6.22824 18.1645 6.04816C17.8731 5.86809 17.5371 5.77326 17.1946 5.77442H12.8614C12.5189 5.77326 12.1829 5.86809 11.8915 6.04818C11.6002 6.22826 11.3651 6.48638 11.213 6.79327C11.2106 6.7979 11.2084 6.80252 11.2062 6.80719L10.3945 8.51277C10.3735 8.55286 10.342 8.58643 10.3033 8.6098C10.2645 8.63318 10.2201 8.64546 10.1749 8.64531H7.1844C6.55011 8.64603 5.94201 8.89832 5.49351 9.34682C5.045 9.79533 4.79271 10.4034 4.79199 11.0377V21.8035C4.79271 22.4378 5.045 23.0459 5.49351 23.4944C5.94201 23.9429 6.55011 24.1952 7.1844 24.1959H22.8148C23.4491 24.1952 24.0572 23.9429 24.5057 23.4944C24.9542 23.0459 25.2065 22.4378 25.2072 21.8035ZM10.1749 10.2402C10.5174 10.2414 10.8534 10.1466 11.1448 9.96652C11.4361 9.78645 11.6712 9.52835 11.8234 9.22148C11.8257 9.21686 11.8279 9.21219 11.8302 9.20753L12.6419 7.50194C12.6628 7.46184 12.6943 7.42826 12.7331 7.40488C12.7718 7.38149 12.8162 7.36921 12.8614 7.36936H17.1946C17.2398 7.36921 17.2842 7.38149 17.3229 7.40486C17.3616 7.42824 17.3932 7.46181 17.4141 7.5019L18.2258 9.20749C18.2281 9.21215 18.2303 9.21682 18.2326 9.22144C18.3848 9.52831 18.6199 9.78641 18.9112 9.96648C19.2026 10.1465 19.5386 10.2414 19.8811 10.2402H22.8148C23.0262 10.2404 23.2289 10.3245 23.3784 10.474C23.5279 10.6235 23.612 10.8262 23.6122 11.0377V21.8035C23.612 22.0149 23.5279 22.2176 23.3784 22.3671C23.2289 22.5166 23.0262 22.6007 22.8148 22.601H7.1844C6.97297 22.6007 6.77027 22.5166 6.62077 22.3671C6.47126 22.2176 6.38717 22.0149 6.38693 21.8035V11.0377C6.38717 10.8263 6.47126 10.6236 6.62077 10.4741C6.77027 10.3246 6.97297 10.2405 7.1844 10.2402H10.1749ZM19.9838 16.0219C19.9838 15.0361 19.6914 14.0725 19.1438 13.2528C18.5961 12.4332 17.8177 11.7944 16.9069 11.4171C15.9962 11.0399 14.9941 10.9412 14.0272 11.1335C13.0604 11.3258 12.1723 11.8005 11.4752 12.4975C10.7782 13.1946 10.3035 14.0827 10.1112 15.0495C9.91886 16.0164 10.0176 17.0185 10.3948 17.9293C10.772 18.84 11.4109 19.6184 12.2305 20.1661C13.0502 20.7138 14.0138 21.0061 14.9996 21.0061C16.321 21.0046 17.5879 20.479 18.5223 19.5446C19.4567 18.6102 19.9823 17.3433 19.9838 16.0219ZM18.3888 16.0219C18.3888 16.6922 18.1901 17.3475 17.8176 17.9049C17.4452 18.4622 16.9159 18.8966 16.2966 19.1531C15.6773 19.4097 14.9958 19.4768 14.3384 19.346C13.6809 19.2152 13.077 18.8924 12.603 18.4184C12.129 17.9445 11.8062 17.3406 11.6755 16.6831C11.5447 16.0257 11.6118 15.3442 11.8683 14.7249C12.1249 14.1056 12.5593 13.5763 13.1166 13.2038C13.674 12.8314 14.3293 12.6327 14.9996 12.6327C15.8982 12.6337 16.7596 12.9911 17.395 13.6265C18.0304 14.2618 18.3878 15.1233 18.3888 16.0219Z" fill="#3F49FC"/>
</svg>
