<svg xmlns="http://www.w3.org/2000/svg" width="34" height="34" viewBox="0 0 34 34">
  <g id="Raggruppa_649" data-name="Raggruppa 649" transform="translate(-1813 -433)">
    <g id="Raggruppa_419" data-name="Raggruppa 419" transform="translate(1813 433)">
      <circle id="Ellisse_1" data-name="Ellisse 1" cx="17" cy="17" r="17" fill="#3f49fc"/>
      <g id="Raggruppa_51" data-name="Raggruppa 51" transform="translate(8.942 6.439)">
        <path id="Tracciato_48" data-name="Tracciato 48" d="M-455.814-327.862c0,.7.007,1.367-.006,2.039a1.715,1.715,0,0,1-.116.418,2.264,2.264,0,0,1-.367-.178q-2.212-1.609-4.417-3.227c-.327-.239-.33-.306-.013-.538q2.235-1.637,4.474-3.268a1.513,1.513,0,0,1,.343-.139,1.5,1.5,0,0,1,.1.36c.009.686,0,1.372,0,2.077.44.055.861.094,1.276.162a8.641,8.641,0,0,1,7.12,6.723,8.675,8.675,0,0,1-7.038,10.427,8.677,8.677,0,0,1-9.874-6.308,7.661,7.661,0,0,1-.161-.8,1.179,1.179,0,0,1,.9-1.427,1.264,1.264,0,0,1,1.458.991,10.5,10.5,0,0,0,.679,1.971,6.284,6.284,0,0,0,10.125,1.3,6.247,6.247,0,0,0-.309-8.9,6.133,6.133,0,0,0-3.865-1.678C-455.593-327.869-455.685-327.862-455.814-327.862Z" transform="translate(464.512 332.755)" fill="#fff"/>
      </g>
    </g>
  </g>
</svg>
