<svg id="Raggruppa_51" data-name="Raggruppa 51" xmlns="http://www.w3.org/2000/svg" width="15.323" height="17.608" viewBox="0 0 20 20">
  <path id="Tracciato_48" data-name="Tracciato 48" d="M-456.8-328.42c0,.616.006,1.212,0,1.807a1.521,1.521,0,0,1-.1.371,2.008,2.008,0,0,1-.325-.158q-1.96-1.426-3.914-2.859c-.29-.212-.293-.271-.012-.477q1.981-1.451,3.965-2.9a1.342,1.342,0,0,1,.3-.123,1.325,1.325,0,0,1,.086.319c.008.607,0,1.215,0,1.84.39.049.763.083,1.131.144a7.657,7.657,0,0,1,6.309,5.957,7.687,7.687,0,0,1-6.236,9.239,7.689,7.689,0,0,1-8.749-5.59,6.79,6.79,0,0,1-.143-.709,1.045,1.045,0,0,1,.8-1.265,1.12,1.12,0,0,1,1.292.878,9.3,9.3,0,0,0,.6,1.746,5.568,5.568,0,0,0,8.972,1.151,5.536,5.536,0,0,0-.274-7.889,5.435,5.435,0,0,0-3.425-1.487C-456.608-328.425-456.69-328.42-456.8-328.42Z" transform="translate(464.512 332.755)" fill="#000"/>
</svg>
