<svg width="25" height="24" viewBox="0 0 25 24" fill="none" xmlns="http://www.w3.org/2000/svg">
    <path d="M17.5857 3.99435C17.311 3.71867 16.984 3.50013 16.6239 3.3514C16.2638 3.20267 15.8776 3.12672 15.4879 3.12794H6.98132C6.1951 3.1288 5.44132 3.44065 4.88538 3.99508C4.32943 4.5495 4.01673 5.30122 4.01587 6.0853V17.9147C4.01673 18.6988 4.32943 19.4505 4.88538 20.0049C5.44132 20.5594 6.1951 20.8712 6.98132 20.8721H18.8431C19.6294 20.8712 20.3831 20.5594 20.9391 20.0049C21.495 19.4505 21.8077 18.6988 21.8086 17.9147V9.43081C21.8096 9.04231 21.7333 8.65748 21.5842 8.29857C21.435 7.93966 21.216 7.61381 20.9398 7.33986L17.5857 3.99435ZM14.6915 4.31089V7.26824C14.6913 7.42505 14.6288 7.5754 14.5176 7.68628C14.4064 7.79717 14.2557 7.85954 14.0984 7.85971H9.35369C9.19644 7.85954 9.04569 7.79717 8.9345 7.68628C8.82331 7.5754 8.76077 7.42505 8.7606 7.26824V4.31089H14.6915ZM8.7606 19.6891V13.1829C8.76077 13.0261 8.82331 12.8758 8.9345 12.7649C9.04569 12.654 9.19644 12.5917 9.35369 12.5915H16.4708C16.628 12.5917 16.7788 12.654 16.89 12.7649C17.0012 12.8758 17.0637 13.0261 17.0639 13.1829V19.6891H8.7606ZM20.6224 17.9147C20.6218 18.3851 20.4342 18.8361 20.1006 19.1688C19.7671 19.5014 19.3149 19.6886 18.8431 19.6891H18.25V13.1829C18.2495 12.7125 18.0618 12.2615 17.7283 11.9289C17.3947 11.5962 16.9425 11.4091 16.4708 11.4085H9.35369C8.88197 11.4091 8.42974 11.5962 8.09618 11.9289C7.76263 12.2615 7.57499 12.7125 7.57441 13.1829V19.6891H6.98132C6.50961 19.6886 6.05738 19.5014 5.72382 19.1688C5.39027 18.8361 5.20262 18.3851 5.20205 17.9147V6.0853C5.20262 5.61487 5.39027 5.16387 5.72382 4.83123C6.05738 4.49859 6.50961 4.31146 6.98132 4.31089H7.57441V7.26824C7.57499 7.73867 7.76263 8.18966 8.09618 8.52231C8.42974 8.85495 8.88197 9.04208 9.35369 9.04265H14.0984C14.5701 9.04208 15.0224 8.85495 15.3559 8.52231C15.6895 8.18966 15.8771 7.73867 15.8777 7.26824V4.35712C16.2066 4.42907 16.508 4.59326 16.7465 4.83035L20.1011 8.17585C20.4339 8.50917 20.6214 8.95989 20.623 9.43021L20.6224 17.9147Z" fill="#3F49FC"/>
</svg>
