<?xml version="1.0" encoding="utf-8"?>
<!-- Generator: Adobe Illustrator 26.3.1, SVG Export Plug-In . SVG Version: 6.00 Build 0)  -->
<svg version="1.1" id="Livello_1" xmlns="http://www.w3.org/2000/svg" xmlns:xlink="http://www.w3.org/1999/xlink" x="0px" y="0px"
	 viewBox="0 0 1080 1080" style="enable-background:new 0 0 1080 1080;" xml:space="preserve">
<g>
	<path d="M937.67,123.38c-9.9-2.02-20.12,2.08-29.27,5.79c-63.71,25.78-127.69,50.85-191.61,76.14c-12.6,4.98-25.2,9.99-37.78,15.02
		c-64.7,25.87-129.39,51.76-194.08,77.64s-129.38,51.78-194.08,77.65c-48.85,19.54-97.68,39.11-146.55,58.57
		c-10.8,4.31-20.14,9.63-21.15,22.84c0,3.26,0,6.52,0,9.78c3.73,10.05,11.34,15.69,20.79,20.25
		c98.41,47.5,196.68,95.29,295.07,142.85c5.43,2.63,8.88,6.18,11.5,11.59c47.77,98.89,95.71,197.69,143.63,296.51
		c1.3,2.67,2.66,5.35,4.3,7.81c10.47,15.73,32.25,14.91,41.53-1.59c1.72-3.05,3.07-6.32,4.37-9.58
		c24.35-64.94,51.58-128.96,77.34-193.36c25.91-64.78,51.82-129.56,77.73-194.33s51.82-129.56,77.72-194.34
		c25.18-62.97,51.31-125.58,75.99-188.73c1.14-2.92,2.16-5.89,2.84-8.96c1.3-5.86,1.35-12.16-0.98-17.69
		c-2.39-5.68-7.22-10.21-12.92-12.54C940.61,124.12,939.14,123.69,937.67,123.38z M452.39,582.51
		c-78.52-38.38-157.2-76.43-235.84-114.57c-2.34-1.14-4.65-2.36-8.35-4.24c207.29-82.93,413.35-165.37,619.4-247.81
		c0.64,0.72,1.27,1.43,1.91,2.15c-2.2,1.59-4.68,2.92-6.58,4.82c-119.07,118.99-238.12,238-357,357.17
		C461.45,584.52,458.35,585.42,452.39,582.51z M616.57,872.36c-17.33-35.78-33.91-70.03-50.51-104.28
		c-22.89-47.24-45.73-94.51-68.79-141.67c-2.05-4.19-2.26-6.66,1.36-10.27c120.68-120.45,241.22-241.04,361.78-361.6
		c0.94-0.94,1.97-1.79,2.96-2.69c0.35,0.3,0.7,0.6,1.06,0.89C782,458.82,699.56,664.89,616.57,872.36z"/>
</g>
</svg>
