<?xml version="1.0" standalone="no"?>
<!DOCTYPE svg PUBLIC "-//W3C//DTD SVG 20010904//EN"
 "http://www.w3.org/TR/2001/REC-SVG-20010904/DTD/svg10.dtd">
<svg version="1.0" xmlns="http://www.w3.org/2000/svg"
 width="512.000000pt" height="512.000000pt" viewBox="0 0 512.000000 512.000000"
 preserveAspectRatio="xMidYMid meet">

<g transform="translate(0.000000,512.000000) scale(0.100000,-0.100000)"
fill="#ff6960" stroke="none">
<path d="M1916 4790 c-385 -61 -663 -311 -763 -686 -23 -88 -26 -117 -26 -264
0 -147 3 -176 26 -264 90 -337 325 -576 653 -663 87 -23 119 -26 264 -27 177
-1 259 12 390 61 265 99 467 332 547 629 23 88 26 117 26 264 0 147 -3 176
-26 264 -63 236 -200 429 -391 551 -145 92 -296 135 -501 140 -77 2 -167 0
-199 -5z"/>
<path d="M1125 2865 c-342 -63 -619 -333 -684 -666 -11 -52 -43 -360 -72 -685
-53 -591 -53 -592 -36 -675 38 -193 164 -360 337 -447 148 -74 108 -72 1194
-72 l969 0 -79 83 c-215 224 -334 503 -350 822 -32 633 425 1203 1056 1314
l94 17 -49 53 c-138 148 -345 248 -549 267 -119 11 -137 4 -235 -90 -172 -162
-352 -226 -641 -226 -286 0 -472 65 -636 222 -44 42 -93 82 -108 88 -36 13
-124 11 -211 -5z"/>
<path d="M3537 2229 c-128 -19 -291 -83 -406 -161 -82 -55 -222 -207 -272
-293 -103 -179 -134 -295 -133 -495 1 -205 39 -345 142 -510 58 -94 195 -233
288 -293 164 -106 324 -152 529 -152 195 1 313 33 490 134 109 62 263 217 326
326 102 177 133 294 133 495 0 201 -32 321 -133 495 -62 107 -208 254 -320
323 -189 116 -423 163 -644 131z m549 -815 c53 -39 69 -71 69 -134 0 -63 -16
-95 -69 -134 -26 -20 -42 -21 -384 -24 -234 -2 -370 1 -394 8 -101 29 -140
168 -71 251 50 58 53 59 455 56 353 -2 368 -3 394 -23z"/>
</g>
</svg>
