<?xml version="1.0" encoding="utf-8"?>
<!-- Generator: Adobe Illustrator 24.0.2, SVG Export Plug-In . SVG Version: 6.00 Build 0)  -->
<svg version="1.1" id="Livello_1" xmlns="http://www.w3.org/2000/svg" xmlns:xlink="http://www.w3.org/1999/xlink" x="0px" y="0px"
	 viewBox="0 0 500 500" style="enable-background:new 0 0 500 500;" xml:space="preserve">
<style type="text/css">
	.st0{fill:#1D1D1B;}
</style>
<path class="st0" d="M397.1,337.1l-52-52c9.4-18.8,14.2-39,14.2-60.1c0-3.7-0.2-7.4-0.5-11.3l35.9-36.8c4.6-4.7,4.5-12.4-0.2-17
	c-2.3-2.2-5.2-3.4-8.4-3.4c-0.1,0-0.1,0-0.2,0c-3.2,0-6.2,1.3-8.4,3.6l-24.3,24.9c-17.4-55.8-69.6-94.5-128.3-94.5
	c-74.1,0-134.4,60.3-134.4,134.4s60.3,134.4,134.4,134.4c20.9,0,41.8-5,60.4-14.4l51.9,51.9c8,8,18.6,12.4,29.9,12.4
	c11.3,0,21.9-4.4,29.9-12.4c8-8,12.4-18.6,12.4-29.9S405.1,345.1,397.1,337.1z M380.1,380c-7.1,7.1-18.7,7.1-25.9,0l-47.5-47.5
	l4.7-4.7c5.8-4.9,11.2-10.3,16.1-16.1l5-5l47.5,47.5C387.2,361.2,387.2,372.8,380.1,380z M315.2,224.1L282,192.8
	c-4.7-4.5-12.3-4.3-16.8,0.3l-47.6,48.6l-20.8-20c-4.7-4.5-12.2-4.4-16.8,0.2l-40,40c-2.3,2.3-3.5,5.3-3.5,8.5s1.2,6.2,3.5,8.5
	c2.3,2.3,5.3,3.5,8.5,3.5s6.2-1.2,8.5-3.5l31.7-31.7l20.9,20.1c4.7,4.5,12.3,4.4,16.9-0.3l47.7-48.7l33.2,31.3
	c4.7,4.5,12.3,4.3,16.8-0.3l10.3-10.6c-2.6,20.7-10.9,40.1-24.3,56.4L295,310.3c-19.7,16.2-44.6,25.2-70.1,25.2
	c-60.9,0-110.4-49.5-110.4-110.4s49.5-110.4,110.4-110.4c53.6,0,99.1,38,108.6,90.7L315.2,224.1z"/>
</svg>
