<svg xmlns="http://www.w3.org/2000/svg" viewBox="0 0 64 80" x="0px" y="0px"><g><path d="M27,6A21,21,0,1,0,48,27,21.023,21.023,0,0,0,27,6Zm0,2a18.98,18.98,0,0,1,15.516,8.07l-2.5,2.5A3.947,3.947,0,0,0,38,18a4,4,0,0,0-4,4,3.947,3.947,0,0,0,.567,2.019l-6.548,6.548a3.878,3.878,0,0,0-4.038,0l-4.548-4.548A3.947,3.947,0,0,0,20,24a3.992,3.992,0,0,0-7.858-1H8.432A19.027,19.027,0,0,1,27,8Zm9,14a2,2,0,1,1,2,2A2,2,0,0,1,36,22ZM26,32a2,2,0,1,1-2,2A2,2,0,0,1,26,32ZM16,26a2,2,0,1,1,2-2A2,2,0,0,1,16,26ZM27,46A18.987,18.987,0,0,1,8.107,25h4.035A4,4,0,0,0,16,28a3.947,3.947,0,0,0,2.019-.567l4.548,4.548A3.947,3.947,0,0,0,22,34a4,4,0,0,0,8,0,3.947,3.947,0,0,0-.567-2.019l6.548-6.548A3.947,3.947,0,0,0,38,26a4,4,0,0,0,4-4,3.947,3.947,0,0,0-.567-2.019l2.18-2.179A18.983,18.983,0,0,1,27,46Z"/><path d="M52,4a4,4,0,0,0-4,4,3.947,3.947,0,0,0,.567,2.019L46.81,11.776a25,25,0,1,0-6.242,36.206L43.586,51,45,52.414l8.05,8.05a5.242,5.242,0,1,0,7.414-7.414L52.414,45,51,43.586l-3.018-3.018a24.917,24.917,0,0,0,0-27.136l2-2A3.947,3.947,0,0,0,52,12a4,4,0,0,0,3.858-3H62V7H55.858A4,4,0,0,0,52,4Zm7.05,50.464a3.243,3.243,0,1,1-4.586,4.586L46.414,51,51,46.414ZM46.818,42.232,49.586,45,45,49.586l-2.768-2.768c.141-.108.273-.227.412-.338s.3-.244.449-.369c.219-.184.435-.37.647-.561.109-.1.213-.2.32-.3q.615-.576,1.191-1.191c.1-.107.2-.211.3-.32.191-.212.377-.428.561-.647q.188-.222.369-.449C46.591,42.505,46.71,42.373,46.818,42.232Zm-1.11-1.877c-.315.44-.64.871-.983,1.286-.1.121-.207.238-.31.357q-.459.534-.948,1.036-.213.22-.433.433-.5.489-1.036.948c-.119.1-.236.209-.357.31-.415.343-.846.668-1.286.983a23.036,23.036,0,1,1,5.353-5.353ZM52,10a2,2,0,1,1,2-2A2,2,0,0,1,52,10Z"/></g></svg>
