<svg xmlns="http://www.w3.org/2000/svg" width="22.133" height="17.706" viewBox="0 0 22.133 17.706">
  <g id="Raggruppa_1167" data-name="Raggruppa 1167" transform="translate(-1348.055 -552.094)">
    <path id="Tracciato_79" data-name="Tracciato 79" d="M1507.737,558.072a3.07,3.07,0,0,1-2.152-3.664,3.028,3.028,0,1,1,3.729,3.653v.282q0,5.308,0,10.616a.776.776,0,0,1-.561.8.735.735,0,0,1-.862-.3,1.131,1.131,0,0,1-.147-.555q-.013-5.2-.006-10.394Zm.8-1.5a1.418,1.418,0,0,0,1.417-1.454,1.432,1.432,0,1,0-2.865.031A1.418,1.418,0,0,0,1508.54,556.569Z" transform="translate(-149.403 0)" fill="#321d48"/>
    <path id="Tracciato_80" data-name="Tracciato 80" d="M1350.275,558.319v-1.611c0-1.169,0-2.338,0-3.506a.8.8,0,0,1,.668-.8.784.784,0,0,1,.867.534,1.383,1.383,0,0,1,.043.413q0,2.358,0,4.716c0,.178.031.268.222.333a3.01,3.01,0,0,1,.035,5.664.332.332,0,0,0-.259.385c.009,1.6.007,3.193,0,4.79a.79.79,0,1,1-1.579.028c0-1.424,0-2.848,0-4.272,0-.255.083-.559-.026-.751s-.417-.23-.627-.355a3.026,3.026,0,0,1,.46-5.5C1350.141,558.363,1350.2,558.344,1350.275,558.319Zm2.229,2.923a1.417,1.417,0,0,0-1.41-1.437,1.436,1.436,0,1,0-.026,2.872A1.418,1.418,0,0,0,1352.5,561.242Z" transform="translate(0 -0.287)" fill="#321d48"/>
    <path id="Tracciato_81" data-name="Tracciato 81" d="M1667.056,566.882c0,.828,0,1.643,0,2.457a.787.787,0,0,1-1.536.241,1.193,1.193,0,0,1-.042-.364c0-.708-.007-1.416,0-2.124a.244.244,0,0,0-.193-.281,3.007,3.007,0,0,1-.023-5.686.274.274,0,0,0,.216-.316q-.007-3.754,0-7.507a.791.791,0,1,1,1.579-.078c.007.378,0,.757,0,1.136q0,3.222,0,6.445c0,.132-.009.233.169.3a3.016,3.016,0,0,1-.011,5.719C1667.167,566.836,1667.122,566.856,1667.056,566.882Zm-.786-1.493a1.424,1.424,0,0,0,1.429-1.445,1.45,1.45,0,0,0-1.43-1.431,1.435,1.435,0,0,0-1.436,1.444A1.412,1.412,0,0,0,1666.271,565.389Z" transform="translate(-299.089 -0.322)" fill="#321d48"/>
  </g>
</svg>
