<svg xmlns="http://www.w3.org/2000/svg" width="34" height="34" viewBox="0 0 34 34">
  <g id="Raggruppa_1400" data-name="Raggruppa 1400" transform="translate(-163 -331)">
    <g id="Raggruppa_438" data-name="Raggruppa 438" transform="translate(283 331)">
      <circle id="Ellisse_1" data-name="Ellisse 1" cx="17" cy="17" r="17" transform="translate(-120)" fill="#3f49fc"/>
    </g>
    <g id="layout" transform="translate(188.787 337.748) rotate(90)">
      <path id="Tracciato_321" data-name="Tracciato 321" d="M21.3,17.575H19.1a1.1,1.1,0,0,1-1.1-1.1V1.1A1.1,1.1,0,0,1,19.1,0h2.2a1.1,1.1,0,0,1,1.1,1.1V16.476A1.1,1.1,0,0,1,21.3,17.575ZM19.1.732a.367.367,0,0,0-.366.366V16.476a.367.367,0,0,0,.366.366h2.2a.367.367,0,0,0,.366-.366V1.1A.367.367,0,0,0,21.3.732Z" transform="translate(-2.89 -0.031)" fill="#fff" stroke="#fff" stroke-width="0.75"/>
      <path id="Tracciato_322" data-name="Tracciato 322" d="M12.3,17.575H10.1a1.1,1.1,0,0,1-1.1-1.1V1.1A1.1,1.1,0,0,1,10.1,0h2.2a1.1,1.1,0,0,1,1.1,1.1V16.476A1.1,1.1,0,0,1,12.3,17.575ZM10.1.732a.367.367,0,0,0-.366.366V16.476a.367.367,0,0,0,.366.366h2.2a.367.367,0,0,0,.366-.366V1.1A.367.367,0,0,0,12.3.732Z" transform="translate(-0.945 -0.031)" fill="#fff" stroke="#fff" stroke-width="0.75"/>
      <g id="Tracciato_323" data-name="Tracciato 323" transform="translate(0 1.691)" fill="#fff">
        <path d="M 2.227434873580933 15.12930202484131 L 0.7424748539924622 15.12930202484131 C -0.2183251678943634 15.12930202484131 -0.9999951720237732 14.28455257415771 -0.9999951720237732 13.24622249603271 L -0.9999951720237732 0.8830824494361877 C -0.9999951720237732 -0.1552475541830063 -0.2183251678943634 -0.9999975562095642 0.7424748539924622 -0.9999975562095642 L 2.227434873580933 -0.9999975562095642 C 3.188234806060791 -0.9999975562095642 3.969904899597168 -0.1552475541830063 3.969904899597168 0.8830824494361877 L 3.969904899597168 13.24622249603271 C 3.969904899597168 14.28455257415771 3.188234806060791 15.12930202484131 2.227434873580933 15.12930202484131 Z" stroke="none"/>
        <path d="M 2.227434873580933 14.12930202484131 C 2.636784791946411 14.12930202484131 2.969904899597168 13.73309230804443 2.969904899597168 13.24622249603271 L 2.969904899597168 0.8830824494361877 C 2.969904899597168 0.3962124288082123 2.636784791946411 2.442932100166217e-06 2.227434873580933 2.442932100166217e-06 L 0.7424748539924622 2.442932100166217e-06 C 0.3331248462200165 2.442932100166217e-06 4.833984348806553e-06 0.3962124288082123 4.833984348806553e-06 0.8830824494361877 L 4.833984348806553e-06 13.24622249603271 C 4.833984348806553e-06 13.73309230804443 0.3331248462200165 14.12930202484131 0.7424748539924622 14.12930202484131 L 2.227434873580933 14.12930202484131 M 0.7424748539924622 0.5887224674224854 L 2.227434873580933 0.5887224674224854 C 2.363554716110229 0.5887224674224854 2.474924802780151 0.7205924391746521 2.474924802780151 0.8830824494361877 L 2.474924802780151 13.24622249603271 C 2.474924802780151 13.40871238708496 2.363554716110229 13.54058265686035 2.227434873580933 13.54058265686035 L 0.7424748539924622 13.54058265686035 C 0.606354832649231 13.54058265686035 0.4949848353862762 13.40871238708496 0.4949848353862762 13.24622249603271 L 0.4949848353862762 0.8830824494361877 C 0.4949848353862762 0.7205924391746521 0.606354832649231 0.5887224674224854 0.7424748539924622 0.5887224674224854 M 2.227434873580933 16.12930297851562 L 0.7424748539924622 16.12930297851562 C -0.7697251439094543 16.12930297851562 -1.999995112419128 14.83596229553223 -1.999995112419128 13.24622249603271 L -1.999995112419128 0.8830824494361877 C -1.999995112419128 -0.7066575288772583 -0.7697251439094543 -1.999997615814209 0.7424748539924622 -1.999997615814209 L 2.227434873580933 -1.999997615814209 C 3.73963475227356 -1.999997615814209 4.969904899597168 -0.7066575288772583 4.969904899597168 0.8830824494361877 L 4.969904899597168 13.24622249603271 C 4.969904899597168 14.83596229553223 3.73963475227356 16.12930297851562 2.227434873580933 16.12930297851562 Z" stroke="none" fill="#fff"/>
      </g>
    </g>
  </g>
</svg>
