<svg xmlns="http://www.w3.org/2000/svg" xmlns:xlink="http://www.w3.org/1999/xlink" version="1.1" x="0px" y="0px" viewBox="0 0 150 187.5" style="enable-background:new 0 0 150 150;" xml:space="preserve"><g><path d="M90.7,58.9c-0.4,3.8-1.7,7.3-4,10.4c-3.9,5.2-9.9,8.1-16.4,8.1c-11.3,0-20.5-9.2-20.5-20.5c0-10.6,8.2-19.4,18.5-20.4v22.4   H90.7z"/><path d="M96.8,54.9H72.2V30.3C85.4,31.3,95.9,41.8,96.8,54.9z"/><path d="M118.4,125.8L96.7,88c15.3-12.3,19.6-34.6,9.4-52.3c-5.5-9.6-14.4-16.5-25-19.3c-10.4-2.8-21.1-1.4-30.4,4   C31.5,31.5,25,56.6,36.3,76.2c5.5,9.6,14.4,16.5,25,19.3c3.5,0.9,7,1.4,10.5,1.4c4.9,0,9.8-0.9,14.3-2.7l21.7,37.8   c0.8,1.4,2.1,2.4,3.7,2.9c0.5,0.1,1.1,0.2,1.6,0.2c1.1,0,2.1-0.3,3.1-0.8C119.1,132.5,120.1,128.7,118.4,125.8z M89.7,88.1   c-8.3,4.8-18,6.1-27.3,3.6c-9.6-2.6-17.6-8.8-22.6-17.4c-10.2-17.7-4.3-40.3,13-50.4c5.5-3.2,11.7-4.8,17.9-4.8   c3.1,0,6.3,0.4,9.4,1.3c9.6,2.6,17.6,8.8,22.6,17.4C112.8,55.4,107,78,89.7,88.1L89.7,88.1z"/></g></svg>
