<?xml version="1.0" encoding="utf-8"?>
<!-- Generator: Adobe Illustrator 24.0.2, SVG Export Plug-In . SVG Version: 6.00 Build 0)  -->
<svg version="1.1" id="Livello_1" xmlns="http://www.w3.org/2000/svg" xmlns:xlink="http://www.w3.org/1999/xlink" x="0px" y="0px"
	 viewBox="0 0 500 500" style="enable-background:new 0 0 500 500;" xml:space="preserve">
<style type="text/css">
	.st0{fill:#1D1D1B;}
</style>
<path class="st0" d="M424.7,231.5c12.4-10.5,19.7-26.1,19.7-42.4c0-30.7-25-55.7-55.7-55.7c-30.7,0-55.7,25-55.7,55.7
	c0,16.4,7.3,32,19.7,42.5c-9.4,3.8-18.1,9-25.7,15.6c-11-9-23.3-16-36.6-20.6c17.9-13.1,28.9-34.2,28.9-56.6
	c0-38.5-31.3-69.8-69.8-69.8s-69.8,31.3-69.8,69.8c0,22.4,10.9,43.6,28.9,56.6c-13.1,4.6-25.2,11.5-36.2,20.4
	c-7.7-6.4-16.2-11.5-25.3-15.2c12.4-10.5,19.7-26.1,19.7-42.4c0-30.7-25-55.7-55.7-55.7s-55.7,25-55.7,55.7c0,16.4,7.3,32,19.7,42.5
	c-35.9,14.5-59.7,49.5-59.7,88.6v6.1c0,1.7,1.4,3.1,3.1,3.1h109.1c-0.4,4.3-0.7,8.6-0.7,12.7v6.2c0,28.4,23.1,51.5,51.5,51.5h142.2
	c28.4,0,51.5-23.1,51.5-51.5v-6.2c0-4.1-0.2-8.4-0.7-12.7h109.8c1.7,0,3.1-1.4,3.1-3.1v-6.1C484.4,281,460.5,246,424.7,231.5z
	 M389.5,224.5h-1.4c-19.2-0.3-34.8-16.3-34.8-35.5c0-19.6,15.9-35.5,35.5-35.5c19.6,0,35.5,15.9,35.5,35.5
	C424.3,208.1,408.6,224,389.5,224.5z M388.2,244.6h1.1c37.4,0.3,68.8,27.8,74.1,64.5h-95.8c-4.9-17.6-13.9-34.1-25.9-48
	C354.9,250.6,371.3,244.8,388.2,244.6z M110.3,244.6h1.1c16.6,0.1,32.9,5.8,46,16.2c-12.2,13.9-21.2,30.5-26.2,48.3h-95
	C41.6,272.4,72.9,244.9,110.3,244.6z M111.6,224.5h-1.4C91,224.1,75.4,208.2,75.4,189c0-19.6,15.9-35.5,35.5-35.5
	c19.6,0,35.5,15.9,35.5,35.5C146.4,208.1,130.7,224,111.6,224.5z M252.6,239.7c54.7,1.7,99.3,47.6,99.3,102.4v6.2
	c0,17.3-14.1,31.4-31.4,31.4H178.4c-17.3,0-31.4-14.1-31.4-31.4v-6.2c0-54.8,44.5-100.8,99.3-102.4c1.1,0.1,2.2,0.1,3.2,0.1
	C250.4,239.8,251.6,239.8,252.6,239.7z M199.7,169.9c0-27.4,22.3-49.6,49.6-49.6s49.6,22.3,49.6,49.6c0,26.3-20.5,48-46.7,49.5h-5.9
	C220.2,217.9,199.7,196.1,199.7,169.9z"/>
</svg>
