<svg xmlns="http://www.w3.org/2000/svg" width="89.973" height="90.364" viewBox="0 0 89.973 90.364">
  <g id="noun_Abacus_143153" transform="translate(-1 -0.9)">
    <g id="Group_24" data-name="Group 24" transform="translate(1 0.9)">
      <g id="Group_21" data-name="Group 21" transform="translate(12.127)">
        <g id="Group_4" data-name="Group 4" transform="translate(6.063)">
          <g id="Group_3" data-name="Group 3">
            <path id="Path_22" data-name="Path 22" d="M12.647,86.961A2.378,2.378,0,0,1,10.3,84.614V3.247a2.347,2.347,0,1,1,4.694,0V84.614A2.524,2.524,0,0,1,12.647,86.961Z" transform="translate(-10.3 -0.9)" fill="#5d93f5"/>
          </g>
        </g>
        <g id="Group_6" data-name="Group 6" transform="translate(0 60.83)">
          <g id="Group_5" data-name="Group 5">
            <circle id="Ellipse_9" data-name="Ellipse 9" cx="8.411" cy="8.411" r="8.411" fill="#5d93f5"/>
          </g>
        </g>
        <g id="Group_8" data-name="Group 8" transform="translate(0 41.661)">
          <g id="Group_7" data-name="Group 7">
            <circle id="Ellipse_10" data-name="Ellipse 10" cx="8.411" cy="8.411" r="8.411" fill="#5d93f5"/>
          </g>
        </g>
        <g id="Group_10" data-name="Group 10" transform="translate(0 22.689)">
          <g id="Group_9" data-name="Group 9">
            <circle id="Ellipse_11" data-name="Ellipse 11" cx="8.411" cy="8.411" r="8.411" fill="#5d93f5"/>
          </g>
        </g>
        <g id="Group_12" data-name="Group 12" transform="translate(30.513)">
          <g id="Group_11" data-name="Group 11">
            <path id="Path_23" data-name="Path 23" d="M25.147,86.961A2.378,2.378,0,0,1,22.8,84.614V3.247A2.378,2.378,0,0,1,25.147.9a2.26,2.26,0,0,1,2.347,2.347V84.614A2.524,2.524,0,0,1,25.147,86.961Z" transform="translate(-22.8 -0.9)" fill="#5d93f5"/>
          </g>
        </g>
        <g id="Group_14" data-name="Group 14" transform="translate(24.449 60.83)">
          <g id="Group_13" data-name="Group 13">
            <circle id="Ellipse_12" data-name="Ellipse 12" cx="8.411" cy="8.411" r="8.411" fill="#5d93f5"/>
          </g>
        </g>
        <g id="Group_16" data-name="Group 16" transform="translate(24.449 41.661)">
          <g id="Group_15" data-name="Group 15">
            <circle id="Ellipse_13" data-name="Ellipse 13" cx="8.411" cy="8.411" r="8.411" fill="#5d93f5"/>
          </g>
        </g>
        <g id="Group_18" data-name="Group 18" transform="translate(54.962)">
          <g id="Group_17" data-name="Group 17">
            <path id="Path_24" data-name="Path 24" d="M37.647,86.961A2.378,2.378,0,0,1,35.3,84.614V3.247A2.378,2.378,0,0,1,37.647.9a2.26,2.26,0,0,1,2.347,2.347V84.614A2.524,2.524,0,0,1,37.647,86.961Z" transform="translate(-35.3 -0.9)" fill="#5d93f5"/>
          </g>
        </g>
        <g id="Group_20" data-name="Group 20" transform="translate(48.898 60.83)">
          <g id="Group_19" data-name="Group 19">
            <circle id="Ellipse_14" data-name="Ellipse 14" cx="8.411" cy="8.411" r="8.411" fill="#5d93f5"/>
          </g>
        </g>
      </g>
      <g id="Group_23" data-name="Group 23" transform="translate(0 83.519)">
        <g id="Group_22" data-name="Group 22">
          <rect id="Rectangle_2" data-name="Rectangle 2" width="89.973" height="6.846" fill="#5d93f5"/>
        </g>
      </g>
    </g>
  </g>
</svg>
