<?xml version="1.0" encoding="utf-8"?>
<!-- Generator: Adobe Illustrator 24.0.2, SVG Export Plug-In . SVG Version: 6.00 Build 0)  -->
<svg version="1.1" id="Livello_1" xmlns="http://www.w3.org/2000/svg" xmlns:xlink="http://www.w3.org/1999/xlink" x="0px" y="0px"
	 viewBox="0 0 100 100" style="enable-background:new 0 0 100 100;" xml:space="preserve">
<style type="text/css">
	.st0{fill:#1D1D1B;}
	.st1{fill:#FFFFFF;}
</style>
<g>
	<path class="st0" d="M47.8,64.4c0,0,0.1,0.1,0.2,0.2c0.2,0.2,0.4,0.4,0.6,0.5c0.1,0,0.1,0.1,0.2,0.1c0,0,0.1,0.1,0.1,0.1l0,0
		c0.7,0.3,1.4,0.4,2.3,0c0,0,0.1,0,0.1-0.1c0.1,0,0.1-0.1,0.2-0.1c0.3-0.2,0.5-0.3,0.6-0.5l0,0c0,0,0.1-0.1,0.1-0.1l9.6-12.8
		c0.6-0.8,0.7-1.9,0.3-2.9c-0.5-0.9-1.4-1.5-2.5-1.5h-6.9V14.7c0-1.5-1.2-2.7-2.7-2.7s-2.7,1.2-2.7,2.7v32.5h-6.9
		c-1,0-2,0.6-2.5,1.5c-0.5,0.9-0.4,2,0.3,2.9L47.8,64.4z"/>
	<path class="st0" d="M85.3,60.1c-1.5,0-2.7,1.2-2.7,2.7v9.6c0,5.6-4.5,10.1-10.1,10.1H27.5c-5.6,0-10.1-4.5-10.1-10.1v-9.6
		c0-1.5-1.2-2.7-2.7-2.7S12,61.3,12,62.8v9.6C12,81,19,88,27.5,88h44.9C81,88,88,81,88,72.5v-9.6C88,61.3,86.8,60.1,85.3,60.1z"/>
</g>
</svg>
