<svg width="34" height="34" viewBox="0 0 34 34" fill="none" xmlns="http://www.w3.org/2000/svg">
    <path d="M17 34C26.3888 34 34 26.3888 34 17C34 7.61116 26.3888 0 17 0C7.61116 0 0 7.61116 0 17C0 26.3888 7.61116 34 17 34Z" fill="#3F49FC"/>
    <path d="M20.327 15.9553C20.2584 15.8186 20.1532 15.7036 20.0231 15.6232C19.8929 15.5428 19.7429 15.5003 19.59 15.5003H17.9439V7.26734C17.9439 7.04906 17.8572 6.83973 17.7029 6.68539C17.5486 6.53104 17.3392 6.44434 17.1209 6.44434C16.9027 6.44434 16.6933 6.53104 16.539 6.68539C16.3847 6.83973 16.2979 7.04906 16.2979 7.26734V15.4993H14.6539C14.501 15.4992 14.3511 15.5417 14.2209 15.622C14.0908 15.7023 13.9856 15.8173 13.9172 15.9541C13.8488 16.0908 13.8198 16.2439 13.8335 16.3962C13.8473 16.5486 13.9032 16.694 13.9949 16.8163L16.465 20.1093C16.476 20.1233 16.492 20.1283 16.504 20.1413C16.5586 20.2039 16.6227 20.2575 16.6939 20.3003C16.7211 20.321 16.7495 20.3401 16.7789 20.3573C16.8862 20.411 17.0045 20.439 17.1245 20.439C17.2444 20.439 17.3627 20.411 17.4699 20.3573C17.4991 20.3401 17.5271 20.321 17.5539 20.3003C17.6251 20.2575 17.6892 20.2039 17.7439 20.1413C17.7549 20.1283 17.7719 20.1233 17.7829 20.1093L20.2529 16.8163C20.344 16.6938 20.3991 16.5484 20.4122 16.3963C20.4253 16.2443 20.3958 16.0916 20.327 15.9553Z" fill="white"/>
    <path d="M26.1759 18.792C25.9577 18.792 25.7483 18.8787 25.594 19.0331C25.4397 19.1874 25.3529 19.3967 25.3529 19.615V22.085C25.3521 22.7398 25.0917 23.3676 24.6286 23.8307C24.1656 24.2937 23.5378 24.5542 22.8829 24.555H11.3579C10.7031 24.5542 10.0753 24.2937 9.61227 23.8307C9.14922 23.3676 8.88874 22.7398 8.88794 22.085V19.615C8.88794 19.3967 8.80123 19.1874 8.64689 19.0331C8.49255 18.8787 8.28322 18.792 8.06494 18.792C7.84667 18.792 7.63734 18.8787 7.48299 19.0331C7.32865 19.1874 7.24194 19.3967 7.24194 19.615V22.085C7.24327 23.1762 7.67734 24.2224 8.44895 24.994C9.22057 25.7656 10.2667 26.1997 11.3579 26.201H22.8829C23.9742 26.1997 25.0203 25.7656 25.7919 24.994C26.5635 24.2224 26.9976 23.1762 26.9989 22.085V19.615C26.9989 19.3967 26.9122 19.1874 26.7579 19.0331C26.6035 18.8787 26.3942 18.792 26.1759 18.792Z" fill="white"/>
</svg>
