<svg width="20" height="20" viewBox="0 0 20 20" fill="none" xmlns="http://www.w3.org/2000/svg">
    <path d="M19.01 1.03497C18.5757 0.650971 18.0448 0.434971 17.4898 0.434971C16.8623 0.434971 16.2591 0.698971 15.8488 1.15497L7.28214 10.467C7.20974 10.539 7.16148 10.611 7.13735 10.707L6.12382 13.707C6.0273 13.995 6.07556 14.331 6.26861 14.571C6.46167 14.835 6.75124 14.979 7.06495 14.979C7.20974 14.979 7.3304 14.955 7.45106 14.907L10.371 13.635C10.4675 13.587 10.5399 13.539 10.5882 13.467L19.1548 4.15497C19.9753 3.26697 19.9029 1.85097 19.01 1.03497ZM9.71942 12.483L7.61998 13.395L8.34392 11.235L8.53697 11.019L9.91247 12.267L9.71942 12.483ZM18.1654 3.26697L10.7812 11.331L9.42984 10.083L16.8141 2.04297C16.983 1.85097 17.2243 1.75497 17.4898 1.75497C17.7069 1.75497 17.9241 1.85097 18.0931 1.99497L18.1172 2.01897C18.2861 2.18697 18.4068 2.40297 18.4068 2.64297C18.4309 2.85897 18.3344 3.09897 18.1654 3.26697Z" fill="#321D48"/>
    <path d="M17.4656 8.01897C17.1036 8.01897 16.814 8.30697 16.814 8.66697V15.651C16.814 16.899 15.8005 17.907 14.5457 17.907H4.50697C3.25213 17.907 2.23861 16.899 2.23861 15.651V5.76297C2.23861 4.51497 3.25213 3.50697 4.50697 3.50697H11.7464C12.1084 3.50697 12.398 3.21897 12.398 2.85897C12.398 2.49897 12.1084 2.21097 11.7464 2.21097H4.50697C2.52819 2.21097 0.911377 3.81897 0.911377 5.78697V15.675C0.911377 17.643 2.52819 19.251 4.50697 19.251H14.5215C16.5003 19.251 18.1171 17.643 18.1171 15.675V8.66697C18.1171 8.49897 18.0447 8.33097 17.9241 8.21097C17.8034 8.09097 17.6345 8.01897 17.4656 8.01897Z" fill="#321D48"/>
</svg>
