<?xml version="1.0" encoding="utf-8"?>
<!-- Generator: Adobe Illustrator 24.0.2, SVG Export Plug-In . SVG Version: 6.00 Build 0)  -->
<svg version="1.1" id="Livello_1" xmlns="http://www.w3.org/2000/svg" xmlns:xlink="http://www.w3.org/1999/xlink" x="0px" y="0px"
	 viewBox="0 0 402.9 194.8" style="enable-background:new 0 0 402.9 194.8;" xml:space="preserve">
<style type="text/css">
	.st0{fill:#F5F5F5;}
	.st1{fill:#3F49FC;}
	.st2{fill:#321D48;}
	.st3{enable-background:new    ;}
</style>
<g>
	<g>
		<g>
			<path class="st0" d="M30.4,68.5c0.8-2.7,4.2-7.4,11.5-7.4c0.3,0,0.5,0,0.8,0c1.8,0.1,3.4,1.2,4.2,2.9c0.4,0.8,0.6,1.6,0.6,2.4
				c0.1,1.2-0.4,2.4-1.2,3.2c-0.8,0.9-2,1.4-3.2,1.4c-0.2,0-0.4,0-0.6,0c2.4,1.6,4.2,3.9,5.1,6.5c1.4-1.1,3.2-1.8,5.2-1.8
				s3.7,0.7,5.1,1.7c1-2.6,2.8-4.8,5.3-6.2C62.6,71,62.1,71,61.7,71c-0.4,0-0.6,0-0.8,0.1c-0.2,0-0.5,0-0.7,0
				c-1.2,0-2.4-0.5-3.2-1.4s-1.3-2-1.2-3.2c0-0.8,0.2-1.6,0.6-2.4c0.7-1.7,2.4-2.8,4.2-2.9c0.3,0,0.5,0,0.8,0
				c6.4,0,9.8,3.6,11.1,6.3v-0.6c0-0.4-0.3-3.2-0.4-4.7c-3.2,0-6.2-1.6-8.1-4.2c-0.1,0-0.2,0-0.3,0c-2.8,0-5.6-0.9-7.9-2.5
				c-2.8,2-6.2,3.1-9.7,3.1c-1.7,0-3.3-0.3-4.9-0.8c-2.7,2.8-6.5,4.6-10.8,4.6c-1.3,0-2.5-0.2-3.7-0.5c0,1.1,0.1,2.5,0.1,3.3
				s0.1,1.4,0.1,1.6v4.6c1-0.8,2.2-1.5,3.5-2C30.3,69.2,30.3,68.9,30.4,68.5z"/>
		</g>
		<path class="st1" d="M41.5,47.6c0-6.2-5-11.2-11.2-11.2s-11.2,5-11.2,11.2s5,11.2,11.2,11.2S41.5,53.8,41.5,47.6z"/>
		<g>
			<path class="st0" d="M60.8,81.5c0,4.7,4,8.5,9,8.5c0.9,0,1.8-0.1,2.7-0.4V73.4c-0.6-0.2-1.1-0.3-1.7-0.3
				c-0.5,0.2-0.9,0.3-1.4,0.3c-0.4,0-0.8-0.1-1.2-0.2C64,73.9,60.8,77.3,60.8,81.5z M65.6,78.2c1.8-0.2,3.4,1.1,3.6,2.9
				s-1.1,3.4-2.9,3.6s-3.4-1.1-3.6-2.9C62.6,80.1,63.8,78.4,65.6,78.2z"/>
		</g>
		<g>
			<path class="st0" d="M21.8,81.5c0-1,0.1-2,0.4-2.9c-0.6-0.1-1.1-0.2-1.7-0.2c-4.3,0-7.9,3.5-7.9,7.9c0,4.3,3.5,7.9,7.9,7.9
				c0.9,0,1.8-0.2,2.7-0.5V87C22.3,85.3,21.8,83.4,21.8,81.5z"/>
		</g>
		<g>
			<path class="st0" d="M61.4,64.9c-0.2,0-0.4,0-0.6,0c-0.4,0-0.8,0.3-1,0.7c-0.1,0.3-0.3,0.7-0.3,1.1s0.3,0.7,0.7,0.7h0.1
				c0.3,0,0.8-0.1,1.3-0.1c1.6,0,4.1,0.4,7.1,2.1c0.1,0,0.3,0,0.4,0C68.8,68.3,66.9,64.9,61.4,64.9z"/>
		</g>
		<g>
			<path class="st0" d="M78.8,81.5c0-2.3-1-4.3-2.6-5.9v11.8C77.8,85.8,78.8,83.7,78.8,81.5z"/>
		</g>
		<path class="st1" d="M58.6,53.1c1.9,1,4,1.4,6.1,1.2c1.6-0.2,3.2-0.7,4.6-1.6l0.3-0.2c2.7-1.9,4.4-5,4.5-8.3
			c0-6-4.7-10.7-10.4-10.7c-0.9,0-1.8,0.1-2.6,0.3c1.3,2.4,1.9,5.1,1.9,7.9C63,45.9,61.4,50,58.6,53.1z"/>
		<path class="st1" d="M45.2,47.6c0,2.6-0.6,5-1.8,7.1c3.9,0.8,8.1-0.2,11.1-2.8l0.4-0.3c2.8-2.6,4.4-6.2,4.4-9.9
			c0-2.8-0.9-5.5-2.5-7.8c-2.5-3.5-6.5-5.5-10.8-5.5c-4.2,0-8.1,2-10.6,5.3C41.1,35.8,45.2,41.2,45.2,47.6z"/>
		<g>
			<path class="st0" d="M43.8,66.6c0-0.4-0.1-0.7-0.3-1.1s-0.5-0.7-1-0.7c-0.2,0-0.4,0-0.6,0c-4.8,0-6.9,2.6-7.6,4
				c0.2,0,0.5-0.1,0.7-0.1s0.3,0,0.4,0c2.6-1.3,4.7-1.6,6.2-1.6c0.6,0,1,0,1.3,0.1H43C43.5,67.3,43.8,67,43.8,66.6z"/>
		</g>
		<g>
			<path class="st0" d="M35.1,90.5c5.3,0,9.6-4.1,9.6-9.1c0-4.6-3.7-8.4-8.4-8.9c-0.1,0.1-0.2,0.1-0.3,0.2c-0.6,0.4-1.3,0.5-1.9,0.5
				c-0.6,0-1.1-0.2-1.6-0.4C30,73.5,28,75,26.8,77v9C28.5,88.7,31.5,90.5,35.1,90.5z M35.3,78.6c1.7-0.2,3.3,1,3.5,2.7
				s-1,3.3-2.7,3.5s-3.3-1-3.5-2.7C32.3,80.3,33.6,78.8,35.3,78.6z"/>
		</g>
		<path class="st1" d="M71.3,55.8l-0.5,0.3c-0.8,0.5-1.6,0.8-2.4,1.1c0.6,0.4,1.2,0.8,1.9,1v-0.5v0.5c0.6,0.2,1.3,0.3,1.9,0.3
			c0.5,0,1.1-0.1,1.6-0.2c3-0.7,5.1-3.4,5.1-6.5c0-1.6-0.6-3-1.6-4.2C76.4,50.9,74.3,53.9,71.3,55.8z"/>
		<g>
			<path class="st0" d="M69.8,93.7c-4.3,0-8-2.1-10.3-5.2V100c0,2.9-2.3,5.3-5.2,5.3c-1.8,0-3.4-0.9-4.3-2.4
				c-1.7,0.2-3.4-0.4-4.6-1.7c-1-1.2-1.5-2.8-1.2-4.3c0.3-2,1.7-3.6,3.6-4.2c1.4-0.4,2.9-0.3,4.2,0.5l-2,3.1
				c-0.4-0.2-0.7-0.3-1.1-0.2c-0.5,0.2-0.9,0.7-1,1.2c-0.1,0.7,0.2,1.2,0.4,1.4c0.4,0.4,0.9,0.6,1.4,0.5c1.4-0.4,2.8,0.3,3.4,1.5
				c0.3,0.5,0.8,0.9,1.3,0.9c0.8,0,1.5-0.7,1.5-1.6V80.3c-0.8-0.6-1.8-1-3-1c-2.4,0-4.4,1.7-4.4,3.7h-0.3
				c-0.8,6.3-6.3,11.2-13.1,11.2c-3.1,0-6-1.1-8.2-2.8v6.4c0,6.1,2.4,11.8,6.7,16.1c4.3,4.3,10,6.7,16.1,6.7l0,0
				c6.1,0,11.8-2.4,16.1-6.7c4.3-4.3,6.7-10.1,6.7-16.2v-4.4C71.6,93.6,70.7,93.7,69.8,93.7z M44.6,113c-6.6-1.9-11.1-8-10.9-14.8
				l3.7,0.1c-0.1,5.2,3.3,9.8,8.3,11.2L44.6,113z"/>
		</g>
		<path class="st2" d="M82.6,51.9c0-3.6-1.9-6.9-4.9-8.8c-0.4-7.4-6.5-13.3-14.1-13.3c-1.7,0-3.3,0.3-4.8,0.8
			c-3.2-3.7-7.9-5.9-12.8-5.9c-5.9,0-11.3,3.1-14.4,8.1c-0.4,0-0.9-0.1-1.3-0.1c-8.2,0-14.9,6.7-14.9,14.9c0,5.5,3,10.3,7.5,12.9
			c-0.1,0.7,0,2,0.1,5c0,0.7,0.1,1.2,0.1,1.4V75c-0.9-0.2-1.8-0.3-2.7-0.3c-6.4,0-11.6,5.2-11.6,11.6S14,97.9,20.4,97.9
			c0.9,0,1.8-0.1,2.7-0.3v0.2c0,7.1,2.8,13.8,7.8,18.8c5,5,11.7,7.8,18.7,7.8l0,0c7.1,0,13.8-2.8,18.8-7.8s7.8-11.7,7.8-18.8V92
			c0.5-0.3,1-0.6,1.4-0.9c3-2.2,4.9-5.7,4.9-9.6s-1.9-7.4-4.9-9.6c-0.5-0.3-0.9-0.6-1.4-0.9v-4c0-0.5-0.3-3.7-0.5-5.3
			C79.8,60.1,82.6,56.3,82.6,51.9z M78.8,81.5c0,2.2-1,4.3-2.6,5.9V75.6C77.8,77.1,78.8,79.2,78.8,81.5z M63.6,33.5
			c5.8,0,10.4,4.7,10.4,10.7c-0.1,3.3-1.7,6.4-4.5,8.3l-0.3,0.2c-1.4,0.9-2.9,1.4-4.6,1.6c-2.1,0.2-4.2-0.2-6.1-1.2
			C61.4,50,63,45.9,63,41.7c0-2.8-0.7-5.4-1.9-7.9C61.9,33.6,62.8,33.5,63.6,33.5z M46,28.4c4.3,0,8.3,2.1,10.8,5.5
			c1.6,2.3,2.5,5,2.5,7.8c0,3.7-1.6,7.3-4.4,9.9l-0.4,0.3c-3,2.6-7.2,3.6-11.1,2.8c1.1-2.1,1.8-4.5,1.8-7.1c0-6.4-4.1-11.8-9.7-13.9
			C37.9,30.4,41.8,28.4,46,28.4z M20.4,94.2c-4.3,0-7.9-3.5-7.9-7.9c0-4.3,3.5-7.9,7.9-7.9c0.6,0,1.2,0.1,1.7,0.2
			c-0.2,0.9-0.4,1.9-0.4,2.9c0,2,0.5,3.8,1.3,5.5v6.7C22.3,93.9,21.4,94.2,20.4,94.2z M19.1,47.6c0-6.2,5-11.2,11.2-11.2
			s11.2,5,11.2,11.2s-5,11.2-11.2,11.2S19.1,53.8,19.1,47.6z M26.8,66.9c0-0.2,0-0.8-0.1-1.6c0-0.8-0.1-2.2-0.1-3.3
			c1.2,0.3,2.4,0.5,3.7,0.5c4.2,0,8-1.8,10.8-4.6c1.6,0.5,3.3,0.8,4.9,0.8c3.5,0,6.9-1.1,9.7-3.1c2.3,1.6,5.1,2.5,7.9,2.5
			c0.1,0,0.2,0,0.3,0c1.9,2.6,4.9,4.1,8.1,4.2c0.1,1.5,0.4,4.3,0.4,4.7v0.6c-1.3-2.7-4.7-6.3-11.1-6.3c-0.3,0-0.5,0-0.8,0
			c-1.8,0.1-3.4,1.2-4.2,2.9c-0.4,0.8-0.6,1.6-0.6,2.4c-0.1,1.2,0.4,2.4,1.2,3.2c0.8,0.9,2,1.4,3.2,1.4c0.2,0,0.5,0,0.7,0
			s0.4-0.1,0.8-0.1c0.4,0,0.9,0.1,1.5,0.2c-2.4,1.4-4.3,3.6-5.3,6.2c-1.4-1.1-3.2-1.7-5.1-1.7c-2,0-3.8,0.7-5.2,1.8
			c-0.9-2.7-2.7-5-5.1-6.5c0.2,0,0.4,0,0.6,0c1.2,0,2.4-0.5,3.2-1.4s1.3-2,1.2-3.2c0-0.8-0.2-1.6-0.6-2.4c-0.7-1.7-2.4-2.8-4.2-2.9
			c-0.3,0-0.5,0-0.8,0c-7.3,0-10.7,4.6-11.5,7.4c-0.1,0.4-0.2,0.8-0.2,1.1c-1.3,0.5-2.4,1.1-3.5,2L26.8,66.9z M69.4,73.4
			c0.5,0,1-0.1,1.4-0.3c0.6,0.1,1.2,0.2,1.7,0.3v16.2c-0.9,0.3-1.8,0.4-2.7,0.4c-5,0-9-3.8-9-8.5c0-4.2,3.2-7.6,7.3-8.4
			C68.6,73.3,69,73.4,69.4,73.4z M61.7,67.3c-0.6,0-1,0-1.3,0.1h-0.1c-0.4,0-0.7-0.3-0.7-0.7c0-0.4,0.1-0.7,0.3-1.1s0.5-0.7,1-0.7
			c0.2,0,0.4,0,0.6,0c5.5,0,7.4,3.4,7.8,4.4c-0.1,0-0.3,0-0.4,0C65.8,67.7,63.3,67.3,61.7,67.3z M41.7,67.2c-1.4,0-3.6,0.3-6.2,1.6
			c-0.2,0-0.3,0-0.4,0c-0.3,0-0.5,0.1-0.7,0.1c0.7-1.3,2.8-4,7.6-4c0.2,0,0.4,0,0.6,0c0.4,0,0.8,0.3,1,0.7c0.1,0.3,0.3,0.7,0.3,1.1
			s-0.3,0.7-0.7,0.7h-0.1C42.7,67.2,42.2,67.2,41.7,67.2z M26.8,77c1.2-2,3.2-3.5,5.5-4.1c0.5,0.3,1.1,0.4,1.6,0.4
			c0.7,0,1.3-0.2,1.9-0.5c0.1-0.1,0.2-0.1,0.3-0.2c4.7,0.6,8.4,4.3,8.4,8.9c0,5-4.3,9.1-9.6,9.1c-3.5,0-6.6-1.8-8.2-4.6L26.8,77z
			 M65.8,113.9c-4.3,4.3-10,6.7-16.1,6.7l0,0c-6.1,0-11.8-2.4-16.1-6.7c-4.3-4.3-6.7-10-6.7-16.1v-6.4c2.3,1.7,5.1,2.8,8.2,2.8
			c6.8,0,12.3-4.9,13.1-11.2h0.3c0-2,2-3.7,4.4-3.7c1.1,0,2.2,0.4,3,1V100c0,0.9-0.7,1.6-1.5,1.6c-0.5,0-1-0.3-1.3-0.9
			c-0.6-1.3-2-1.9-3.4-1.5c-0.5,0.1-1.1,0-1.4-0.5c-0.2-0.2-0.5-0.7-0.4-1.4c0.1-0.6,0.5-1.1,1-1.2c0.4-0.1,0.8-0.1,1.1,0.2l2-3.1
			c-1.3-0.8-2.8-1-4.2-0.5c-1.9,0.6-3.3,2.2-3.6,4.2c-0.2,1.6,0.2,3.2,1.2,4.3c1.1,1.3,2.9,2,4.6,1.7c0.9,1.5,2.6,2.4,4.3,2.4
			c2.9,0,5.2-2.4,5.2-5.3V88.5c2.3,3.1,6.1,5.2,10.3,5.2c0.9,0,1.8-0.1,2.7-0.3v4.4C72.5,103.9,70.1,109.6,65.8,113.9z M73.8,58.3
			c-0.5,0.1-1,0.2-1.6,0.2c-0.7,0-1.3-0.1-1.9-0.3v-0.5v0.5c-0.7-0.2-1.3-0.6-1.9-1c0.8-0.3,1.6-0.7,2.4-1.1l0.5-0.3
			c3-1.9,5.1-4.9,6-8.2c1,1.2,1.6,2.6,1.6,4.2C78.9,55,76.8,57.6,73.8,58.3z"/>
		<path class="st2" d="M37.4,98.2l-3.7-0.1c-0.2,6.9,4.3,13,10.9,14.8l1-3.6C40.7,108,37.3,103.4,37.4,98.2z"/>
		<path class="st2" d="M36,84.7c1.7-0.2,2.9-1.7,2.7-3.5c-0.2-1.7-1.7-2.9-3.5-2.7c-1.7,0.2-2.9,1.7-2.7,3.5
			C32.7,83.7,34.3,84.9,36,84.7z"/>
		<path class="st2" d="M62.8,81.9c0.2,1.8,1.8,3.1,3.6,2.9s3.1-1.8,2.9-3.6c-0.2-1.8-1.8-3.1-3.6-2.9C63.8,78.4,62.6,80.1,62.8,81.9
			z"/>
	</g>
	<g>
		<g class="st3">
			<path class="st2" d="M114.7,76.9c-1.5-0.4-2.7-1-3.6-1.7l1.6-3.5c0.9,0.6,1.9,1.1,3.1,1.5c1.2,0.4,2.4,0.6,3.6,0.6
				c1.3,0,2.3-0.2,2.9-0.6c0.6-0.4,0.9-0.9,0.9-1.6c0-0.5-0.2-0.9-0.6-1.2c-0.4-0.3-0.9-0.6-1.4-0.8c-0.6-0.2-1.4-0.4-2.4-0.6
				c-1.5-0.4-2.8-0.7-3.8-1.1c-1-0.4-1.8-0.9-2.5-1.8c-0.7-0.8-1-1.9-1-3.2c0-1.2,0.3-2.2,0.9-3.2c0.6-0.9,1.6-1.7,2.9-2.3
				c1.3-0.6,2.8-0.8,4.7-0.8c1.3,0,2.5,0.2,3.8,0.5c1.2,0.3,2.3,0.7,3.2,1.3l-1.4,3.5c-1.9-1.1-3.7-1.6-5.6-1.6
				c-1.3,0-2.3,0.2-2.9,0.6c-0.6,0.4-0.9,1-0.9,1.7s0.4,1.2,1.1,1.5c0.7,0.3,1.8,0.7,3.3,1c1.5,0.4,2.8,0.7,3.8,1.1
				c1,0.4,1.8,0.9,2.5,1.7c0.7,0.8,1,1.8,1,3.2c0,1.1-0.3,2.2-1,3.1c-0.6,0.9-1.6,1.7-2.9,2.3c-1.3,0.6-2.8,0.8-4.7,0.8
				C117.8,77.6,116.2,77.3,114.7,76.9z"/>
			<path class="st2" d="M142.5,63.2c1.3,1.1,1.9,2.9,1.9,5.2v8.8h-4.2v-1.9c-0.8,1.4-2.4,2.2-4.7,2.2c-1.2,0-2.2-0.2-3.1-0.6
				c-0.9-0.4-1.5-1-2-1.7c-0.5-0.7-0.7-1.5-0.7-2.4c0-1.4,0.5-2.6,1.6-3.4c1.1-0.8,2.8-1.2,5-1.2h3.6c0-1-0.3-1.7-0.9-2.3
				c-0.6-0.5-1.5-0.8-2.7-0.8c-0.8,0-1.6,0.1-2.4,0.4c-0.8,0.3-1.5,0.6-2,1l-1.6-3.1c0.8-0.6,1.9-1.1,3-1.4c1.2-0.3,2.4-0.5,3.6-0.5
				C139.4,61.5,141.2,62.1,142.5,63.2z M138.7,73.9c0.6-0.4,1-0.9,1.3-1.6v-1.6h-3.1c-1.8,0-2.8,0.6-2.8,1.8c0,0.6,0.2,1,0.7,1.4
				c0.4,0.3,1.1,0.5,1.9,0.5C137.4,74.4,138.1,74.2,138.7,73.9z"/>
			<path class="st2" d="M148.7,58.9c-0.5-0.5-0.8-1.1-0.8-1.8s0.3-1.3,0.8-1.8c0.5-0.5,1.2-0.7,2-0.7s1.5,0.2,2,0.7
				c0.5,0.5,0.8,1,0.8,1.7c0,0.7-0.3,1.4-0.8,1.9s-1.2,0.7-2,0.7S149.2,59.4,148.7,58.9z M148.5,61.8h4.5v15.4h-4.5V61.8z"/>
			<path class="st2" d="M168.3,76.4c-1.3-0.7-2.3-1.6-3.1-2.8c-0.7-1.2-1.1-2.6-1.1-4.1c0-1.5,0.4-2.9,1.1-4.1
				c0.7-1.2,1.8-2.1,3.1-2.8c1.3-0.7,2.8-1,4.4-1c1.6,0,3,0.3,4.3,1c1.2,0.7,2.1,1.7,2.7,2.9l-3.5,1.9c-0.8-1.4-2-2.1-3.5-2.1
				c-1.2,0-2.1,0.4-2.9,1.1s-1.1,1.8-1.1,3.1c0,1.3,0.4,2.4,1.1,3.1c0.8,0.8,1.7,1.1,2.9,1.1c1.5,0,2.7-0.7,3.5-2.1l3.5,1.9
				c-0.6,1.2-1.4,2.2-2.7,2.9c-1.2,0.7-2.6,1-4.3,1C171.1,77.4,169.6,77.1,168.3,76.4z"/>
			<path class="st2" d="M185,76.4c-1.3-0.7-2.3-1.6-3-2.8c-0.7-1.2-1.1-2.6-1.1-4.1c0-1.5,0.4-2.9,1.1-4.1c0.7-1.2,1.7-2.1,3-2.8
				s2.8-1,4.4-1s3.1,0.3,4.4,1c1.3,0.7,2.3,1.6,3,2.8s1.1,2.6,1.1,4.1c0,1.5-0.4,2.9-1.1,4.1s-1.7,2.1-3,2.8c-1.3,0.7-2.7,1-4.4,1
				S186.3,77.1,185,76.4z M192.2,72.6c0.7-0.8,1.1-1.8,1.1-3.1c0-1.3-0.4-2.3-1.1-3.1c-0.7-0.8-1.7-1.2-2.8-1.2
				c-1.1,0-2.1,0.4-2.8,1.2s-1.1,1.8-1.1,3.1c0,1.3,0.4,2.3,1.1,3.1s1.7,1.2,2.8,1.2C190.5,73.8,191.4,73.4,192.2,72.6z"/>
			<path class="st2" d="M202.2,77c-1.2-0.3-2.2-0.7-2.9-1.2l1.5-3.2c0.7,0.4,1.5,0.8,2.5,1.1c1,0.3,1.9,0.4,2.9,0.4
				c1.9,0,2.8-0.5,2.8-1.4c0-0.4-0.3-0.8-0.8-0.9c-0.5-0.2-1.3-0.4-2.4-0.5c-1.3-0.2-2.3-0.4-3.1-0.7c-0.8-0.2-1.5-0.7-2.1-1.3
				c-0.6-0.6-0.9-1.5-0.9-2.7c0-1,0.3-1.8,0.8-2.6c0.6-0.8,1.4-1.3,2.5-1.8c1.1-0.4,2.4-0.6,3.8-0.6c1.1,0,2.2,0.1,3.3,0.4
				c1.1,0.2,2,0.6,2.7,1l-1.5,3.2c-1.4-0.8-2.8-1.1-4.5-1.1c-1,0-1.7,0.1-2.2,0.4c-0.5,0.3-0.7,0.6-0.7,1c0,0.5,0.3,0.8,0.8,1
				c0.5,0.2,1.3,0.4,2.5,0.5c1.3,0.2,2.3,0.4,3.1,0.7c0.8,0.2,1.5,0.7,2.1,1.3s0.9,1.5,0.9,2.6c0,1-0.3,1.8-0.9,2.6
				c-0.6,0.7-1.4,1.3-2.5,1.7c-1.1,0.4-2.4,0.6-3.9,0.6C204.7,77.4,203.5,77.3,202.2,77z"/>
			<path class="st2" d="M227.8,63.2c1.3,1.1,1.9,2.9,1.9,5.2v8.8h-4.2v-1.9c-0.8,1.4-2.4,2.2-4.7,2.2c-1.2,0-2.2-0.2-3.1-0.6
				c-0.9-0.4-1.5-1-2-1.7c-0.5-0.7-0.7-1.5-0.7-2.4c0-1.4,0.5-2.6,1.6-3.4c1.1-0.8,2.8-1.2,5-1.2h3.6c0-1-0.3-1.7-0.9-2.3
				s-1.5-0.8-2.7-0.8c-0.8,0-1.6,0.1-2.4,0.4c-0.8,0.3-1.5,0.6-2,1l-1.6-3.1c0.8-0.6,1.9-1.1,3-1.4c1.2-0.3,2.4-0.5,3.6-0.5
				C224.7,61.5,226.5,62.1,227.8,63.2z M224,73.9c0.6-0.4,1-0.9,1.3-1.6v-1.6h-3.1c-1.8,0-2.8,0.6-2.8,1.8c0,0.6,0.2,1,0.7,1.4
				c0.4,0.3,1.1,0.5,1.9,0.5C222.7,74.4,223.4,74.2,224,73.9z"/>
			<path class="st2" d="M255,62.5c1.2,0.7,2.1,1.6,2.8,2.8c0.7,1.2,1,2.6,1,4.2c0,1.6-0.3,3-1,4.2c-0.7,1.2-1.6,2.1-2.8,2.8
				c-1.2,0.7-2.5,1-3.9,1c-2,0-3.5-0.6-4.7-1.9v7.2h-4.5v-21h4.3v1.8c1.1-1.3,2.7-2,4.9-2C252.5,61.5,253.8,61.9,255,62.5z
				 M253.1,72.6c0.7-0.8,1.1-1.8,1.1-3.1c0-1.3-0.4-2.3-1.1-3.1c-0.7-0.8-1.7-1.2-2.8-1.2c-1.1,0-2.1,0.4-2.8,1.2s-1.1,1.8-1.1,3.1
				c0,1.3,0.4,2.3,1.1,3.1s1.7,1.2,2.8,1.2C251.4,73.8,252.4,73.4,253.1,72.6z"/>
			<path class="st2" d="M276.8,70.7h-11.7c0.2,1,0.7,1.7,1.5,2.3c0.8,0.6,1.8,0.8,2.9,0.8c0.8,0,1.5-0.1,2.1-0.4s1.2-0.6,1.7-1.1
				l2.4,2.6c-1.5,1.7-3.6,2.5-6.4,2.5c-1.7,0-3.3-0.3-4.6-1c-1.3-0.7-2.4-1.6-3.1-2.8s-1.1-2.6-1.1-4.1c0-1.5,0.4-2.9,1.1-4.1
				s1.7-2.2,3-2.8s2.7-1,4.2-1c1.5,0,2.9,0.3,4.1,1c1.2,0.7,2.2,1.6,2.9,2.8c0.7,1.2,1,2.6,1,4.2C276.9,69.6,276.8,70,276.8,70.7z
				 M266.3,65.8c-0.7,0.6-1.1,1.4-1.3,2.4h7.6c-0.2-1-0.6-1.8-1.3-2.3c-0.7-0.6-1.5-0.9-2.5-0.9C267.8,64.9,267,65.2,266.3,65.8z"/>
			<path class="st2" d="M293.9,63.3c1.2,1.1,1.8,2.9,1.8,5.1v8.8h-4.5v-8.2c0-1.2-0.3-2.1-0.8-2.7c-0.5-0.6-1.3-0.9-2.3-0.9
				c-1.1,0-2,0.3-2.7,1c-0.7,0.7-1,1.7-1,3.1v7.6h-4.5V61.8h4.3v1.8c0.6-0.7,1.3-1.2,2.2-1.5c0.9-0.4,1.8-0.5,2.9-0.5
				C291.1,61.5,292.7,62.1,293.9,63.3z"/>
			<path class="st2" d="M301.1,77c-1.2-0.3-2.2-0.7-2.9-1.2l1.5-3.2c0.7,0.4,1.5,0.8,2.5,1.1c1,0.3,1.9,0.4,2.9,0.4
				c1.9,0,2.8-0.5,2.8-1.4c0-0.4-0.3-0.8-0.8-0.9c-0.5-0.2-1.3-0.4-2.4-0.5c-1.3-0.2-2.3-0.4-3.1-0.7c-0.8-0.2-1.5-0.7-2.1-1.3
				c-0.6-0.6-0.9-1.5-0.9-2.7c0-1,0.3-1.8,0.8-2.6c0.6-0.8,1.4-1.3,2.5-1.8c1.1-0.4,2.4-0.6,3.8-0.6c1.1,0,2.2,0.1,3.3,0.4
				c1.1,0.2,2,0.6,2.7,1l-1.5,3.2c-1.4-0.8-2.8-1.1-4.5-1.1c-1,0-1.7,0.1-2.2,0.4c-0.5,0.3-0.7,0.6-0.7,1c0,0.5,0.3,0.8,0.8,1
				c0.5,0.2,1.3,0.4,2.5,0.5c1.3,0.2,2.3,0.4,3.1,0.7c0.8,0.2,1.5,0.7,2.1,1.3s0.9,1.5,0.9,2.6c0,1-0.3,1.8-0.9,2.6
				c-0.6,0.7-1.4,1.3-2.5,1.7c-1.1,0.4-2.4,0.6-3.9,0.6C303.6,77.4,302.3,77.3,301.1,77z"/>
			<path class="st2" d="M326.7,63.2c1.3,1.1,1.9,2.9,1.9,5.2v8.8h-4.2v-1.9c-0.8,1.4-2.4,2.2-4.7,2.2c-1.2,0-2.2-0.2-3.1-0.6
				c-0.9-0.4-1.5-1-2-1.7c-0.5-0.7-0.7-1.5-0.7-2.4c0-1.4,0.5-2.6,1.6-3.4c1.1-0.8,2.8-1.2,5-1.2h3.6c0-1-0.3-1.7-0.9-2.3
				s-1.5-0.8-2.7-0.8c-0.8,0-1.6,0.1-2.4,0.4c-0.8,0.3-1.5,0.6-2,1l-1.6-3.1c0.8-0.6,1.9-1.1,3-1.4c1.2-0.3,2.4-0.5,3.6-0.5
				C323.5,61.5,325.4,62.1,326.7,63.2z M322.9,73.9c0.6-0.4,1-0.9,1.3-1.6v-1.6H321c-1.8,0-2.8,0.6-2.8,1.8c0,0.6,0.2,1,0.7,1.4
				c0.4,0.3,1.1,0.5,1.9,0.5C321.6,74.4,322.3,74.2,322.9,73.9z"/>
			<path class="st2" d="M346.7,63.3c1.2,1.1,1.8,2.9,1.8,5.1v8.8H344v-8.2c0-1.2-0.3-2.1-0.8-2.7c-0.5-0.6-1.3-0.9-2.3-0.9
				c-1.1,0-2,0.3-2.7,1c-0.7,0.7-1,1.7-1,3.1v7.6h-4.5V61.8h4.3v1.8c0.6-0.7,1.3-1.2,2.2-1.5c0.9-0.4,1.8-0.5,2.9-0.5
				C343.9,61.5,345.5,62.1,346.7,63.3z"/>
			<path class="st2" d="M355.6,76.4c-1.3-0.7-2.3-1.6-3-2.8c-0.7-1.2-1.1-2.6-1.1-4.1c0-1.5,0.4-2.9,1.1-4.1c0.7-1.2,1.7-2.1,3-2.8
				s2.8-1,4.4-1s3.1,0.3,4.4,1s2.3,1.6,3,2.8c0.7,1.2,1.1,2.6,1.1,4.1c0,1.5-0.4,2.9-1.1,4.1c-0.7,1.2-1.7,2.1-3,2.8
				c-1.3,0.7-2.7,1-4.4,1S356.9,77.1,355.6,76.4z M362.8,72.6c0.7-0.8,1.1-1.8,1.1-3.1c0-1.3-0.4-2.3-1.1-3.1
				c-0.7-0.8-1.7-1.2-2.8-1.2s-2.1,0.4-2.8,1.2c-0.7,0.8-1.1,1.8-1.1,3.1c0,1.3,0.4,2.3,1.1,3.1c0.7,0.8,1.7,1.2,2.8,1.2
				S362.1,73.4,362.8,72.6z"/>
		</g>
		<g class="st3">
			<path class="st2" d="M112.7,93.4c-0.5-0.5-0.8-1.1-0.8-1.8s0.3-1.3,0.8-1.8c0.5-0.5,1.2-0.7,2-0.7s1.5,0.2,2,0.7
				c0.5,0.5,0.8,1,0.8,1.7c0,0.7-0.3,1.4-0.8,1.9s-1.2,0.7-2,0.7S113.2,93.9,112.7,93.4z M112.4,96.3h4.5v15.4h-4.5V96.3z"/>
			<path class="st2" d="M139.2,111c-0.4,0.3-1,0.6-1.6,0.7c-0.6,0.2-1.3,0.2-2,0.2c-1.8,0-3.3-0.5-4.3-1.4c-1-0.9-1.5-2.3-1.5-4.1
				v-6.3h-2.4v-3.4h2.4v-3.8h4.5v3.8h3.8v3.4h-3.8v6.3c0,0.7,0.2,1.2,0.5,1.5c0.3,0.4,0.8,0.5,1.4,0.5c0.7,0,1.3-0.2,1.8-0.6
				L139.2,111z"/>
			<path class="st2" d="M157.3,96.3v15.4H153v-1.8c-0.6,0.7-1.3,1.2-2.1,1.5c-0.8,0.4-1.7,0.5-2.7,0.5c-2,0-3.6-0.6-4.8-1.8
				c-1.2-1.2-1.8-2.9-1.8-5.2v-8.7h4.5v8.1c0,2.5,1,3.7,3.1,3.7c1.1,0,1.9-0.3,2.6-1c0.7-0.7,1-1.7,1-3.1v-7.6H157.3z"/>
			<path class="st2" d="M164.4,110.9c-1.3-0.7-2.3-1.6-3-2.8c-0.7-1.2-1.1-2.6-1.1-4.1c0-1.5,0.4-2.9,1.1-4.1c0.7-1.2,1.7-2.1,3-2.8
				s2.8-1,4.4-1s3.1,0.3,4.4,1c1.3,0.7,2.3,1.6,3,2.8s1.1,2.6,1.1,4.1c0,1.5-0.4,2.9-1.1,4.1s-1.7,2.1-3,2.8c-1.3,0.7-2.7,1-4.4,1
				S165.7,111.6,164.4,110.9z M171.6,107.1c0.7-0.8,1.1-1.8,1.1-3.1c0-1.3-0.4-2.3-1.1-3.1c-0.7-0.8-1.7-1.2-2.8-1.2
				c-1.1,0-2.1,0.4-2.8,1.2s-1.1,1.8-1.1,3.1c0,1.3,0.4,2.3,1.1,3.1s1.7,1.2,2.8,1.2C169.9,108.3,170.9,107.9,171.6,107.1z"/>
			<path class="st2" d="M180.5,93.4c-0.5-0.5-0.8-1.1-0.8-1.8s0.3-1.3,0.8-1.8c0.5-0.5,1.2-0.7,2-0.7s1.5,0.2,2,0.7
				c0.5,0.5,0.8,1,0.8,1.7c0,0.7-0.3,1.4-0.8,1.9s-1.2,0.7-2,0.7S181,93.9,180.5,93.4z M180.2,96.3h4.5v15.4h-4.5V96.3z"/>
			<path class="st2" d="M200,110.9c-1.3-0.7-2.3-1.6-3.1-2.8c-0.7-1.2-1.1-2.6-1.1-4.1c0-1.5,0.4-2.9,1.1-4.1
				c0.7-1.2,1.8-2.1,3.1-2.8c1.3-0.7,2.8-1,4.4-1c1.6,0,3,0.3,4.3,1s2.1,1.7,2.7,2.9l-3.5,1.9c-0.8-1.4-2-2.1-3.5-2.1
				c-1.2,0-2.1,0.4-2.9,1.1s-1.1,1.8-1.1,3.1c0,1.3,0.4,2.4,1.1,3.1c0.8,0.8,1.7,1.1,2.9,1.1c1.5,0,2.7-0.7,3.5-2.1l3.5,1.9
				c-0.6,1.2-1.4,2.2-2.7,2.9c-1.2,0.7-2.6,1-4.3,1C202.8,111.9,201.3,111.6,200,110.9z"/>
			<path class="st2" d="M213.8,90.4h4.5v21.3h-4.5V90.4z"/>
			<path class="st2" d="M222.7,93.4c-0.5-0.5-0.8-1.1-0.8-1.8s0.3-1.3,0.8-1.8c0.5-0.5,1.2-0.7,2-0.7s1.5,0.2,2,0.7
				c0.5,0.5,0.8,1,0.8,1.7c0,0.7-0.3,1.4-0.8,1.9c-0.5,0.5-1.2,0.7-2,0.7S223.2,93.9,222.7,93.4z M222.5,96.3h4.5v15.4h-4.5V96.3z"
				/>
			<path class="st2" d="M246.2,105.2h-11.7c0.2,1,0.7,1.7,1.5,2.3c0.8,0.6,1.8,0.8,2.9,0.8c0.8,0,1.5-0.1,2.1-0.4s1.2-0.6,1.7-1.1
				l2.4,2.6c-1.5,1.7-3.6,2.5-6.4,2.5c-1.7,0-3.3-0.3-4.6-1c-1.3-0.7-2.4-1.6-3.1-2.8s-1.1-2.6-1.1-4.1c0-1.5,0.4-2.9,1.1-4.1
				s1.7-2.2,3-2.8s2.7-1,4.2-1c1.5,0,2.9,0.3,4.1,1c1.2,0.7,2.2,1.6,2.9,2.8c0.7,1.2,1,2.6,1,4.2
				C246.3,104.1,246.2,104.5,246.2,105.2z M235.7,100.3c-0.7,0.6-1.1,1.4-1.3,2.4h7.6c-0.2-1-0.6-1.8-1.3-2.3
				c-0.7-0.6-1.5-0.9-2.5-0.9C237.2,99.4,236.4,99.7,235.7,100.3z"/>
			<path class="st2" d="M263.3,97.8c1.2,1.1,1.8,2.9,1.8,5.1v8.8h-4.5v-8.2c0-1.2-0.3-2.1-0.8-2.7c-0.5-0.6-1.3-0.9-2.3-0.9
				c-1.1,0-2,0.3-2.7,1c-0.7,0.7-1,1.7-1,3.1v7.6h-4.5V96.3h4.3v1.8c0.6-0.6,1.3-1.2,2.2-1.5c0.9-0.4,1.8-0.5,2.9-0.5
				C260.6,96,262.1,96.6,263.3,97.8z"/>
			<path class="st2" d="M279.1,111c-0.4,0.3-1,0.6-1.6,0.7c-0.6,0.2-1.3,0.2-2,0.2c-1.8,0-3.3-0.5-4.3-1.4c-1-0.9-1.5-2.3-1.5-4.1
				v-6.3h-2.4v-3.4h2.4v-3.8h4.5v3.8h3.8v3.4h-3.8v6.3c0,0.7,0.2,1.2,0.5,1.5c0.3,0.4,0.8,0.5,1.4,0.5c0.7,0,1.3-0.2,1.8-0.6
				L279.1,111z"/>
			<path class="st2" d="M281.8,93.4c-0.5-0.5-0.8-1.1-0.8-1.8s0.3-1.3,0.8-1.8s1.2-0.7,2-0.7s1.5,0.2,2,0.7c0.5,0.5,0.8,1,0.8,1.7
				c0,0.7-0.3,1.4-0.8,1.9c-0.5,0.5-1.2,0.7-2,0.7S282.3,93.9,281.8,93.4z M281.6,96.3h4.5v15.4h-4.5V96.3z"/>
			<path class="st2" d="M314.1,90.4v21.3h-4.3v-1.8c-1.1,1.3-2.7,2-4.8,2c-1.5,0-2.8-0.3-3.9-1c-1.2-0.7-2.1-1.6-2.8-2.8
				c-0.7-1.2-1-2.6-1-4.2c0-1.6,0.3-3,1-4.2c0.7-1.2,1.6-2.1,2.8-2.8c1.2-0.7,2.5-1,3.9-1c2,0,3.5,0.6,4.6,1.9v-7.5H314.1z
				 M308.6,107.1c0.7-0.8,1.1-1.8,1.1-3.1c0-1.3-0.4-2.3-1.1-3.1c-0.7-0.8-1.7-1.2-2.8-1.2c-1.1,0-2.1,0.4-2.8,1.2
				c-0.7,0.8-1.1,1.8-1.1,3.1c0,1.3,0.4,2.3,1.1,3.1c0.7,0.8,1.7,1.2,2.8,1.2C306.9,108.3,307.8,107.9,308.6,107.1z"/>
			<path class="st2" d="M318.5,93.4c-0.5-0.5-0.8-1.1-0.8-1.8s0.3-1.3,0.8-1.8c0.5-0.5,1.2-0.7,2-0.7s1.5,0.2,2,0.7
				c0.5,0.5,0.8,1,0.8,1.7c0,0.7-0.3,1.4-0.8,1.9c-0.5,0.5-1.2,0.7-2,0.7S319,93.9,318.5,93.4z M318.2,96.3h4.5v15.4h-4.5V96.3z"/>
			<path class="st2" d="M345,111c-0.4,0.3-1,0.6-1.6,0.7c-0.6,0.2-1.3,0.2-2,0.2c-1.8,0-3.3-0.5-4.3-1.4c-1-0.9-1.5-2.3-1.5-4.1
				v-6.3h-2.4v-3.4h2.4v-3.8h4.5v3.8h3.8v3.4H340v6.3c0,0.7,0.2,1.2,0.5,1.5c0.3,0.4,0.8,0.5,1.4,0.5c0.7,0,1.3-0.2,1.8-0.6L345,111
				z"/>
			<path class="st2" d="M362,105.2h-11.7c0.2,1,0.7,1.7,1.5,2.3c0.8,0.6,1.8,0.8,2.9,0.8c0.8,0,1.5-0.1,2.1-0.4s1.2-0.6,1.7-1.1
				l2.4,2.6c-1.5,1.7-3.6,2.5-6.4,2.5c-1.7,0-3.3-0.3-4.6-1c-1.3-0.7-2.4-1.6-3.1-2.8s-1.1-2.6-1.1-4.1c0-1.5,0.4-2.9,1.1-4.1
				s1.7-2.2,3-2.8s2.7-1,4.2-1c1.5,0,2.9,0.3,4.1,1c1.2,0.7,2.2,1.6,2.9,2.8c0.7,1.2,1,2.6,1,4.2C362.1,104.1,362.1,104.5,362,105.2
				z M351.6,100.3c-0.7,0.6-1.1,1.4-1.3,2.4h7.6c-0.2-1-0.6-1.8-1.3-2.3c-0.7-0.6-1.5-0.9-2.5-0.9
				C353.1,99.4,352.3,99.7,351.6,100.3z"/>
			<path class="st2" d="M368.7,102.3c0.4-0.7,1.1-1.4,2-2.2c0.6-0.6,1.1-1.1,1.4-1.5s0.4-0.8,0.4-1.3c0-0.7-0.3-1.3-0.8-1.7
				c-0.6-0.4-1.3-0.6-2.3-0.6c-0.9,0-1.7,0.2-2.4,0.6c-0.7,0.4-1.3,0.9-1.8,1.6l-3.5-2c0.8-1.2,1.9-2.2,3.3-2.8c1.4-0.7,3-1,4.9-1
				c2.2,0,4,0.5,5.3,1.4c1.3,0.9,2,2.2,2,3.9c0,0.8-0.1,1.5-0.4,2.1c-0.3,0.6-0.6,1.1-0.9,1.5c-0.4,0.4-0.9,0.9-1.4,1.4
				c-0.7,0.6-1.2,1.2-1.6,1.6c-0.3,0.4-0.5,1-0.5,1.6H368C368,103.7,368.2,102.9,368.7,102.3z M368.2,111.2
				c-0.5-0.5-0.8-1.1-0.8-1.9c0-0.7,0.3-1.3,0.8-1.8c0.5-0.5,1.2-0.7,2-0.7c0.8,0,1.5,0.2,2,0.7c0.5,0.5,0.8,1.1,0.8,1.8
				c0,0.7-0.3,1.3-0.8,1.9c-0.5,0.5-1.2,0.8-2,0.8C369.4,111.9,368.8,111.7,368.2,111.2z"/>
		</g>
	</g>
	<g>
		<g class="st3">
			<path class="st2" d="M113.8,139.9c-0.8-0.5-1.5-1.1-2-1.9c-0.5-0.8-0.7-1.7-0.7-2.7s0.2-1.9,0.7-2.7c0.5-0.8,1.1-1.5,2-1.9
				c0.8-0.5,1.8-0.7,2.8-0.7c0.8,0,1.5,0.1,2.2,0.4c0.7,0.3,1.2,0.6,1.7,1.1l-0.7,0.7c-0.8-0.8-1.9-1.2-3.1-1.2
				c-0.8,0-1.6,0.2-2.3,0.6s-1.2,0.9-1.6,1.6c-0.4,0.7-0.6,1.4-0.6,2.2c0,0.8,0.2,1.6,0.6,2.2c0.4,0.7,0.9,1.2,1.6,1.6
				c0.7,0.4,1.4,0.6,2.3,0.6c1.3,0,2.3-0.4,3.1-1.3l0.7,0.7c-0.5,0.5-1,0.9-1.7,1.1c-0.7,0.3-1.4,0.4-2.2,0.4
				C115.6,140.6,114.6,140.4,113.8,139.9z"/>
			<path class="st2" d="M129,133.4c0.6,0.6,0.9,1.4,0.9,2.5v4.6h-1.1V136c0-0.8-0.2-1.4-0.6-1.9c-0.4-0.4-1-0.6-1.8-0.6
				c-0.8,0-1.5,0.3-2,0.8c-0.5,0.5-0.7,1.2-0.7,2.1v4.1h-1.1v-11.1h1.1v4.6c0.3-0.5,0.7-0.8,1.2-1.1c0.5-0.2,1.1-0.4,1.8-0.4
				C127.6,132.6,128.4,132.8,129,133.4z"/>
			<path class="st2" d="M132.7,130.7c-0.1-0.1-0.2-0.3-0.2-0.5c0-0.2,0.1-0.4,0.2-0.5c0.1-0.1,0.3-0.2,0.6-0.2s0.4,0.1,0.6,0.2
				c0.1,0.1,0.2,0.3,0.2,0.5c0,0.2-0.1,0.4-0.2,0.6c-0.1,0.2-0.3,0.2-0.6,0.2S132.9,130.8,132.7,130.7z M132.8,132.6h1.1v7.9h-1.1
				V132.6z"/>
			<path class="st2" d="M143.7,136.9h-6.6c0.1,0.8,0.4,1.5,0.9,2c0.6,0.5,1.3,0.8,2.2,0.8c0.5,0,0.9-0.1,1.3-0.3s0.8-0.4,1.1-0.8
				l0.6,0.7c-0.4,0.4-0.8,0.7-1.3,1s-1.1,0.3-1.7,0.3c-0.8,0-1.5-0.2-2.1-0.5c-0.6-0.3-1.1-0.8-1.5-1.4s-0.5-1.3-0.5-2.1
				s0.2-1.5,0.5-2.1c0.3-0.6,0.8-1.1,1.4-1.4c0.6-0.3,1.2-0.5,2-0.5s1.4,0.2,2,0.5c0.6,0.3,1,0.8,1.4,1.4c0.3,0.6,0.5,1.3,0.5,2.1
				L143.7,136.9z M137.9,134.2c-0.5,0.5-0.8,1.1-0.9,1.9h5.6c-0.1-0.8-0.4-1.4-0.9-1.9c-0.5-0.5-1.2-0.7-1.9-0.7
				C139.1,133.5,138.5,133.7,137.9,134.2z"/>
			<path class="st2" d="M153,129.4v11.1h-1v-1.6c-0.3,0.5-0.7,0.9-1.3,1.2c-0.5,0.3-1.1,0.4-1.8,0.4c-0.7,0-1.4-0.2-2-0.5
				c-0.6-0.3-1.1-0.8-1.4-1.4c-0.3-0.6-0.5-1.3-0.5-2.1s0.2-1.5,0.5-2.1c0.3-0.6,0.8-1.1,1.4-1.4c0.6-0.3,1.3-0.5,2-0.5
				c0.6,0,1.2,0.1,1.7,0.4c0.5,0.3,0.9,0.7,1.3,1.2v-4.7H153z M150.6,139.2c0.4-0.3,0.8-0.6,1-1.1c0.3-0.5,0.4-1,0.4-1.6
				s-0.1-1.1-0.4-1.6c-0.3-0.5-0.6-0.8-1-1.1s-0.9-0.4-1.5-0.4c-0.6,0-1.1,0.1-1.5,0.4s-0.8,0.6-1,1.1c-0.3,0.5-0.4,1-0.4,1.6
				s0.1,1.1,0.4,1.6c0.3,0.5,0.6,0.8,1,1.1s0.9,0.4,1.5,0.4C149.6,139.6,150.1,139.5,150.6,139.2z"/>
			<path class="st2" d="M156,130.7c-0.1-0.1-0.2-0.3-0.2-0.5c0-0.2,0.1-0.4,0.2-0.5c0.1-0.1,0.3-0.2,0.6-0.2s0.4,0.1,0.6,0.2
				c0.1,0.1,0.2,0.3,0.2,0.5c0,0.2-0.1,0.4-0.2,0.6c-0.1,0.2-0.3,0.2-0.6,0.2S156.1,130.8,156,130.7z M156,132.6h1.1v7.9H156V132.6z
				"/>
			<path class="st2" d="M160,129.4h1.1v11.1H160V129.4z"/>
			<path class="st2" d="M165.2,140.1c-0.6-0.3-1.1-0.8-1.4-1.4s-0.5-1.3-0.5-2.1s0.2-1.5,0.5-2.1s0.8-1.1,1.4-1.4
				c0.6-0.3,1.3-0.5,2.1-0.5c0.8,0,1.4,0.2,2.1,0.5c0.6,0.3,1.1,0.8,1.4,1.4s0.5,1.3,0.5,2.1s-0.2,1.5-0.5,2.1s-0.8,1.1-1.4,1.4
				c-0.6,0.3-1.3,0.5-2.1,0.5C166.5,140.6,165.8,140.4,165.2,140.1z M168.8,139.2c0.4-0.3,0.8-0.6,1-1.1c0.3-0.5,0.4-1,0.4-1.6
				s-0.1-1.1-0.4-1.6c-0.2-0.5-0.6-0.8-1-1.1c-0.4-0.3-0.9-0.4-1.5-0.4c-0.6,0-1.1,0.1-1.5,0.4s-0.8,0.6-1,1.1
				c-0.3,0.5-0.4,1-0.4,1.6s0.1,1.1,0.4,1.6c0.3,0.5,0.6,0.8,1,1.1s0.9,0.4,1.5,0.4C167.8,139.6,168.3,139.5,168.8,139.2z"/>
			<path class="st2" d="M182.5,133.3c0.5,0.5,0.8,1.3,0.8,2.3v4.9h-1v-1.2c-0.2,0.4-0.6,0.7-1.1,1s-1,0.3-1.7,0.3
				c-0.9,0-1.6-0.2-2.1-0.6c-0.5-0.4-0.8-1-0.8-1.7c0-0.7,0.2-1.2,0.7-1.6c0.5-0.4,1.3-0.6,2.3-0.6h2.5v-0.5c0-0.7-0.2-1.2-0.6-1.6
				c-0.4-0.4-0.9-0.5-1.7-0.5c-0.5,0-1,0.1-1.4,0.2s-0.9,0.4-1.2,0.7l-0.5-0.8c0.4-0.3,0.9-0.6,1.4-0.8c0.6-0.2,1.1-0.3,1.8-0.3
				C181.2,132.6,182,132.8,182.5,133.3z M181.3,139.3c0.4-0.3,0.7-0.7,1-1.2v-1.3h-2.5c-1.3,0-2,0.5-2,1.4c0,0.5,0.2,0.8,0.5,1.1
				c0.3,0.3,0.8,0.4,1.5,0.4C180.4,139.7,180.9,139.6,181.3,139.3z"/>
			<path class="st2" d="M190.1,129.4h1.1v11.1h-1.1V129.4z"/>
			<path class="st2" d="M195.3,140.1c-0.6-0.3-1.1-0.8-1.4-1.4s-0.5-1.3-0.5-2.1s0.2-1.5,0.5-2.1s0.8-1.1,1.4-1.4
				c0.6-0.3,1.3-0.5,2.1-0.5c0.8,0,1.4,0.2,2.1,0.5c0.6,0.3,1.1,0.8,1.4,1.4s0.5,1.3,0.5,2.1s-0.2,1.5-0.5,2.1s-0.8,1.1-1.4,1.4
				c-0.6,0.3-1.3,0.5-2.1,0.5C196.6,140.6,196,140.4,195.3,140.1z M198.9,139.2c0.4-0.3,0.8-0.6,1-1.1c0.3-0.5,0.4-1,0.4-1.6
				s-0.1-1.1-0.4-1.6c-0.2-0.5-0.6-0.8-1-1.1c-0.4-0.3-0.9-0.4-1.5-0.4c-0.6,0-1.1,0.1-1.5,0.4s-0.8,0.6-1,1.1
				c-0.3,0.5-0.4,1-0.4,1.6s0.1,1.1,0.4,1.6c0.3,0.5,0.6,0.8,1,1.1s0.9,0.4,1.5,0.4C198,139.6,198.5,139.5,198.9,139.2z"/>
			<path class="st2" d="M205.7,133c0.5-0.3,1.1-0.4,1.8-0.4v1l-0.3,0c-0.8,0-1.5,0.3-1.9,0.8c-0.5,0.5-0.7,1.2-0.7,2.1v4h-1.1v-7.9
				h1v1.5C204.8,133.6,205.2,133.2,205.7,133z"/>
			<path class="st2" d="M210.6,140.1c-0.6-0.3-1.1-0.8-1.4-1.4s-0.5-1.3-0.5-2.1s0.2-1.5,0.5-2.1s0.8-1.1,1.4-1.4
				c0.6-0.3,1.3-0.5,2.1-0.5c0.8,0,1.4,0.2,2.1,0.5c0.6,0.3,1.1,0.8,1.4,1.4s0.5,1.3,0.5,2.1s-0.2,1.5-0.5,2.1s-0.8,1.1-1.4,1.4
				c-0.6,0.3-1.3,0.5-2.1,0.5C211.8,140.6,211.2,140.4,210.6,140.1z M214.1,139.2c0.4-0.3,0.8-0.6,1-1.1c0.3-0.5,0.4-1,0.4-1.6
				s-0.1-1.1-0.4-1.6c-0.3-0.5-0.6-0.8-1-1.1c-0.4-0.3-0.9-0.4-1.5-0.4c-0.6,0-1.1,0.1-1.5,0.4s-0.8,0.6-1,1.1
				c-0.3,0.5-0.4,1-0.4,1.6s0.1,1.1,0.4,1.6c0.3,0.5,0.6,0.8,1,1.1s0.9,0.4,1.5,0.4C213.2,139.6,213.7,139.5,214.1,139.2z"/>
			<path class="st2" d="M219.2,139.2c0.2,0.2,0.2,0.3,0.2,0.6c0,0.1,0,0.3-0.1,0.4s-0.1,0.3-0.2,0.5l-0.6,2.1h-0.7l0.5-2.2
				c-0.2,0-0.3-0.1-0.4-0.3c-0.1-0.1-0.2-0.3-0.2-0.5c0-0.2,0.1-0.4,0.2-0.6c0.2-0.2,0.3-0.2,0.6-0.2
				C218.9,138.9,219.1,139,219.2,139.2z"/>
			<path class="st2" d="M226.8,140.1c-0.6-0.3-1.1-0.8-1.4-1.4s-0.5-1.3-0.5-2.1s0.2-1.5,0.5-2.1s0.8-1.1,1.4-1.4
				c0.6-0.3,1.3-0.5,2.1-0.5c0.7,0,1.3,0.1,1.8,0.4s1,0.7,1.3,1.2l-0.8,0.5c-0.3-0.4-0.6-0.7-1-0.9c-0.4-0.2-0.8-0.3-1.3-0.3
				c-0.6,0-1.1,0.1-1.5,0.4c-0.5,0.3-0.8,0.6-1.1,1.1c-0.3,0.5-0.4,1-0.4,1.6c0,0.6,0.1,1.1,0.4,1.6c0.3,0.5,0.6,0.8,1.1,1.1
				c0.5,0.3,1,0.4,1.5,0.4c0.5,0,0.9-0.1,1.3-0.3c0.4-0.2,0.7-0.5,1-0.9l0.8,0.5c-0.3,0.5-0.7,0.9-1.3,1.2c-0.5,0.3-1.1,0.4-1.8,0.4
				C228.1,140.6,227.4,140.4,226.8,140.1z"/>
			<path class="st2" d="M236.2,133c0.5-0.3,1.1-0.4,1.8-0.4v1l-0.3,0c-0.8,0-1.5,0.3-1.9,0.8c-0.5,0.5-0.7,1.2-0.7,2.1v4h-1.1v-7.9
				h1v1.5C235.4,133.6,235.7,133.2,236.2,133z"/>
			<path class="st2" d="M246.8,136.9h-6.6c0.1,0.8,0.4,1.5,0.9,2c0.6,0.5,1.3,0.8,2.2,0.8c0.5,0,0.9-0.1,1.3-0.3
				c0.4-0.2,0.8-0.4,1.1-0.8l0.6,0.7c-0.3,0.4-0.8,0.7-1.3,1s-1.1,0.3-1.7,0.3c-0.8,0-1.5-0.2-2.1-0.5c-0.6-0.3-1.1-0.8-1.5-1.4
				s-0.5-1.3-0.5-2.1s0.2-1.5,0.5-2.1s0.8-1.1,1.4-1.4c0.6-0.3,1.2-0.5,2-0.5c0.7,0,1.4,0.2,2,0.5c0.6,0.3,1,0.8,1.4,1.4
				s0.5,1.3,0.5,2.1L246.8,136.9z M241,134.2c-0.5,0.5-0.8,1.1-0.9,1.9h5.6c-0.1-0.8-0.4-1.4-0.9-1.9c-0.5-0.5-1.2-0.7-1.9-0.7
				C242.2,133.5,241.6,133.7,241,134.2z"/>
			<path class="st2" d="M253.9,133.3c0.5,0.5,0.8,1.3,0.8,2.3v4.9h-1v-1.2c-0.2,0.4-0.6,0.7-1.1,1c-0.5,0.2-1,0.3-1.7,0.3
				c-0.9,0-1.6-0.2-2.1-0.6c-0.5-0.4-0.8-1-0.8-1.7c0-0.7,0.2-1.2,0.7-1.6c0.5-0.4,1.3-0.6,2.3-0.6h2.5v-0.5c0-0.7-0.2-1.2-0.6-1.6
				c-0.4-0.4-0.9-0.5-1.7-0.5c-0.5,0-1,0.1-1.4,0.2c-0.5,0.2-0.9,0.4-1.2,0.7l-0.5-0.8c0.4-0.3,0.9-0.6,1.4-0.8
				c0.6-0.2,1.1-0.3,1.8-0.3C252.5,132.6,253.3,132.8,253.9,133.3z M252.7,139.3c0.4-0.3,0.7-0.7,1-1.2v-1.3h-2.5
				c-1.3,0-2,0.5-2,1.4c0,0.5,0.2,0.8,0.5,1.1c0.3,0.3,0.8,0.4,1.5,0.4C251.7,139.7,252.2,139.6,252.7,139.3z"/>
			<path class="st2" d="M263.9,133.4c0.6,0.6,0.9,1.4,0.9,2.5v4.6h-1.1V136c0-0.8-0.2-1.4-0.6-1.9c-0.4-0.4-1-0.6-1.8-0.6
				c-0.8,0-1.5,0.3-2,0.8c-0.5,0.5-0.7,1.2-0.7,2.1v4.1h-1.1v-7.9h1v1.5c0.3-0.5,0.7-0.9,1.2-1.1s1.1-0.4,1.8-0.4
				C262.6,132.6,263.4,132.8,263.9,133.4z"/>
			<path class="st2" d="M274.9,129.4v11.1h-1v-1.6c-0.3,0.5-0.7,0.9-1.3,1.2c-0.5,0.3-1.1,0.4-1.8,0.4c-0.7,0-1.4-0.2-2-0.5
				c-0.6-0.3-1.1-0.8-1.4-1.4s-0.5-1.3-0.5-2.1s0.2-1.5,0.5-2.1c0.3-0.6,0.8-1.1,1.4-1.4c0.6-0.3,1.3-0.5,2-0.5
				c0.6,0,1.2,0.1,1.7,0.4s0.9,0.7,1.3,1.2v-4.7H274.9z M272.5,139.2c0.4-0.3,0.8-0.6,1-1.1c0.3-0.5,0.4-1,0.4-1.6s-0.1-1.1-0.4-1.6
				c-0.3-0.5-0.6-0.8-1-1.1s-0.9-0.4-1.5-0.4c-0.6,0-1.1,0.1-1.5,0.4s-0.8,0.6-1,1.1c-0.3,0.5-0.4,1-0.4,1.6s0.1,1.1,0.4,1.6
				c0.3,0.5,0.6,0.8,1,1.1s0.9,0.4,1.5,0.4C271.5,139.6,272,139.5,272.5,139.2z"/>
			<path class="st2" d="M279.1,140.1c-0.6-0.3-1.1-0.8-1.4-1.4s-0.5-1.3-0.5-2.1s0.2-1.5,0.5-2.1s0.8-1.1,1.4-1.4
				c0.6-0.3,1.3-0.5,2.1-0.5s1.4,0.2,2.1,0.5c0.6,0.3,1.1,0.8,1.4,1.4s0.5,1.3,0.5,2.1s-0.2,1.5-0.5,2.1s-0.8,1.1-1.4,1.4
				c-0.6,0.3-1.3,0.5-2.1,0.5S279.7,140.4,279.1,140.1z M282.6,139.2c0.4-0.3,0.8-0.6,1-1.1c0.3-0.5,0.4-1,0.4-1.6s-0.1-1.1-0.4-1.6
				c-0.2-0.5-0.6-0.8-1-1.1s-0.9-0.4-1.5-0.4s-1.1,0.1-1.5,0.4s-0.8,0.6-1,1.1c-0.3,0.5-0.4,1-0.4,1.6s0.1,1.1,0.4,1.6
				c0.3,0.5,0.6,0.8,1,1.1s0.9,0.4,1.5,0.4S282.2,139.5,282.6,139.2z"/>
			<path class="st2" d="M292.4,140.1c-0.6-0.3-1.1-0.8-1.4-1.4s-0.5-1.3-0.5-2.1s0.2-1.5,0.5-2.1s0.8-1.1,1.4-1.4
				c0.6-0.3,1.3-0.5,2.1-0.5c0.8,0,1.4,0.2,2.1,0.5c0.6,0.3,1.1,0.8,1.4,1.4s0.5,1.3,0.5,2.1s-0.2,1.5-0.5,2.1s-0.8,1.1-1.4,1.4
				c-0.6,0.3-1.3,0.5-2.1,0.5C293.7,140.6,293,140.4,292.4,140.1z M295.9,139.2c0.4-0.3,0.8-0.6,1-1.1c0.3-0.5,0.4-1,0.4-1.6
				s-0.1-1.1-0.4-1.6c-0.3-0.5-0.6-0.8-1-1.1c-0.4-0.3-0.9-0.4-1.5-0.4c-0.6,0-1.1,0.1-1.5,0.4s-0.8,0.6-1,1.1
				c-0.3,0.5-0.4,1-0.4,1.6s0.1,1.1,0.4,1.6c0.3,0.5,0.6,0.8,1,1.1s0.9,0.4,1.5,0.4C295,139.6,295.5,139.5,295.9,139.2z"/>
			<path class="st2" d="M304.5,130.7c-0.2-0.1-0.2-0.3-0.2-0.5c0-0.2,0.1-0.4,0.2-0.5c0.1-0.1,0.3-0.2,0.6-0.2s0.4,0.1,0.6,0.2
				c0.2,0.1,0.2,0.3,0.2,0.5c0,0.2-0.1,0.4-0.2,0.6c-0.1,0.2-0.3,0.2-0.6,0.2S304.7,130.8,304.5,130.7z M304.5,132.6h1.1v7.9h-1.1
				V132.6z"/>
			<path class="st2" d="M314.9,133.4c0.6,0.6,0.9,1.4,0.9,2.5v4.6h-1.1V136c0-0.8-0.2-1.4-0.6-1.9c-0.4-0.4-1-0.6-1.8-0.6
				c-0.8,0-1.5,0.3-2,0.8c-0.5,0.5-0.7,1.2-0.7,2.1v4.1h-1.1v-7.9h1v1.5c0.3-0.5,0.7-0.9,1.2-1.1c0.5-0.3,1.1-0.4,1.8-0.4
				C313.6,132.6,314.4,132.8,314.9,133.4z"/>
			<path class="st2" d="M319,140.3c-0.6-0.2-1-0.4-1.4-0.7l0.5-0.8c0.3,0.3,0.7,0.5,1.2,0.6c0.5,0.2,1,0.2,1.6,0.2
				c0.7,0,1.3-0.1,1.6-0.3c0.3-0.2,0.5-0.5,0.5-1c0-0.3-0.1-0.5-0.3-0.7c-0.2-0.2-0.4-0.3-0.7-0.4c-0.3-0.1-0.7-0.2-1.2-0.2
				c-0.6-0.1-1.2-0.2-1.5-0.4c-0.4-0.1-0.7-0.3-1-0.6s-0.4-0.7-0.4-1.2c0-0.7,0.3-1.2,0.8-1.6c0.5-0.4,1.3-0.6,2.3-0.6
				c0.5,0,1,0.1,1.5,0.2c0.5,0.1,0.9,0.3,1.3,0.5l-0.5,0.9c-0.6-0.4-1.4-0.7-2.3-0.7c-0.7,0-1.2,0.1-1.5,0.4
				c-0.3,0.2-0.5,0.6-0.5,0.9c0,0.3,0.1,0.5,0.3,0.7c0.2,0.2,0.4,0.3,0.7,0.4c0.3,0.1,0.7,0.2,1.2,0.3c0.6,0.1,1.1,0.2,1.5,0.4
				c0.4,0.1,0.7,0.3,1,0.6s0.4,0.7,0.4,1.2c0,0.7-0.3,1.2-0.9,1.6c-0.6,0.4-1.4,0.6-2.4,0.6C320.2,140.6,319.6,140.5,319,140.3z"/>
			<path class="st2" d="M332.9,136.9h-6.6c0.1,0.8,0.4,1.5,0.9,2c0.6,0.5,1.3,0.8,2.2,0.8c0.5,0,0.9-0.1,1.3-0.3
				c0.4-0.2,0.8-0.4,1.1-0.8l0.6,0.7c-0.3,0.4-0.8,0.7-1.3,1s-1.1,0.3-1.7,0.3c-0.8,0-1.5-0.2-2.1-0.5c-0.6-0.3-1.1-0.8-1.5-1.4
				s-0.5-1.3-0.5-2.1s0.2-1.5,0.5-2.1s0.8-1.1,1.4-1.4c0.6-0.3,1.2-0.5,2-0.5c0.7,0,1.4,0.2,2,0.5c0.6,0.3,1,0.8,1.4,1.4
				s0.5,1.3,0.5,2.1L332.9,136.9z M327.2,134.2c-0.5,0.5-0.8,1.1-0.9,1.9h5.6c-0.1-0.8-0.4-1.4-0.9-1.9c-0.5-0.5-1.2-0.7-1.9-0.7
				C328.3,133.5,327.7,133.7,327.2,134.2z"/>
			<path class="st2" d="M337.2,133c0.5-0.3,1.1-0.4,1.8-0.4v1l-0.3,0c-0.8,0-1.5,0.3-1.9,0.8c-0.5,0.5-0.7,1.2-0.7,2.1v4h-1.1v-7.9
				h1v1.5C336.4,133.6,336.7,133.2,337.2,133z"/>
			<path class="st2" d="M347.8,136.9h-6.6c0.1,0.8,0.4,1.5,0.9,2c0.6,0.5,1.3,0.8,2.2,0.8c0.5,0,0.9-0.1,1.3-0.3
				c0.4-0.2,0.8-0.4,1.1-0.8l0.6,0.7c-0.4,0.4-0.8,0.7-1.3,1s-1.1,0.3-1.7,0.3c-0.8,0-1.5-0.2-2.2-0.5c-0.6-0.3-1.1-0.8-1.5-1.4
				s-0.5-1.3-0.5-2.1s0.2-1.5,0.5-2.1c0.3-0.6,0.8-1.1,1.4-1.4c0.6-0.3,1.2-0.5,2-0.5c0.7,0,1.4,0.2,2,0.5c0.6,0.3,1,0.8,1.4,1.4
				c0.3,0.6,0.5,1.3,0.5,2.1L347.8,136.9z M342,134.2c-0.5,0.5-0.8,1.1-0.9,1.9h5.6c-0.1-0.8-0.4-1.4-0.9-1.9s-1.2-0.7-1.9-0.7
				C343.2,133.5,342.6,133.7,342,134.2z"/>
			<path class="st2" d="M356.3,133.4c0.6,0.6,0.9,1.4,0.9,2.5v4.6h-1.1V136c0-0.8-0.2-1.4-0.6-1.9c-0.4-0.4-1-0.6-1.8-0.6
				c-0.8,0-1.5,0.3-2,0.8c-0.5,0.5-0.7,1.2-0.7,2.1v4.1h-1.1v-7.9h1v1.5c0.3-0.5,0.7-0.9,1.2-1.1c0.5-0.3,1.1-0.4,1.8-0.4
				C355,132.6,355.7,132.8,356.3,133.4z"/>
			<path class="st2" d="M367.3,129.4v11.1h-1v-1.6c-0.3,0.5-0.7,0.9-1.3,1.2c-0.5,0.3-1.1,0.4-1.8,0.4c-0.7,0-1.4-0.2-2-0.5
				c-0.6-0.3-1.1-0.8-1.4-1.4s-0.5-1.3-0.5-2.1s0.2-1.5,0.5-2.1c0.3-0.6,0.8-1.1,1.4-1.4c0.6-0.3,1.3-0.5,2-0.5
				c0.6,0,1.2,0.1,1.7,0.4c0.5,0.3,0.9,0.7,1.3,1.2v-4.7H367.3z M364.8,139.2c0.4-0.3,0.8-0.6,1-1.1c0.3-0.5,0.4-1,0.4-1.6
				s-0.1-1.1-0.4-1.6c-0.3-0.5-0.6-0.8-1-1.1c-0.4-0.3-0.9-0.4-1.5-0.4c-0.6,0-1.1,0.1-1.5,0.4c-0.4,0.3-0.8,0.6-1,1.1
				c-0.3,0.5-0.4,1-0.4,1.6s0.1,1.1,0.4,1.6c0.3,0.5,0.6,0.8,1,1.1c0.4,0.3,0.9,0.4,1.5,0.4C363.9,139.6,364.4,139.5,364.8,139.2z"
				/>
			<path class="st2" d="M371.4,140.1c-0.6-0.3-1.1-0.8-1.4-1.4s-0.5-1.3-0.5-2.1s0.2-1.5,0.5-2.1s0.8-1.1,1.4-1.4
				c0.6-0.3,1.3-0.5,2.1-0.5c0.8,0,1.4,0.2,2.1,0.5c0.6,0.3,1.1,0.8,1.4,1.4c0.3,0.6,0.5,1.3,0.5,2.1s-0.2,1.5-0.5,2.1
				c-0.3,0.6-0.8,1.1-1.4,1.4c-0.6,0.3-1.3,0.5-2.1,0.5C372.7,140.6,372.1,140.4,371.4,140.1z M375,139.2c0.4-0.3,0.8-0.6,1-1.1
				c0.2-0.5,0.4-1,0.4-1.6s-0.1-1.1-0.4-1.6c-0.3-0.5-0.6-0.8-1-1.1s-0.9-0.4-1.5-0.4c-0.6,0-1.1,0.1-1.5,0.4
				c-0.4,0.3-0.8,0.6-1,1.1c-0.3,0.5-0.4,1-0.4,1.6s0.1,1.1,0.4,1.6c0.3,0.5,0.6,0.8,1,1.1c0.4,0.3,0.9,0.4,1.5,0.4
				C374.1,139.6,374.6,139.5,375,139.2z"/>
		</g>
		<g class="st3">
			<path class="st2" d="M118.9,150.6v7.9h-1v-1.4c-0.3,0.5-0.7,0.9-1.2,1.1s-1,0.4-1.7,0.4c-1,0-1.8-0.3-2.4-0.9
				c-0.6-0.6-0.9-1.4-0.9-2.5v-4.6h1.1v4.5c0,0.8,0.2,1.5,0.6,1.9s1,0.6,1.8,0.6c0.8,0,1.5-0.3,2-0.8c0.5-0.5,0.7-1.2,0.7-2.1v-4.1
				H118.9z"/>
			<path class="st2" d="M128.3,151.4c0.6,0.6,0.9,1.4,0.9,2.5v4.6h-1.1V154c0-0.8-0.2-1.4-0.6-1.9c-0.4-0.4-1-0.6-1.8-0.6
				c-0.8,0-1.5,0.3-2,0.8c-0.5,0.5-0.7,1.2-0.7,2.1v4.1h-1.1v-7.9h1v1.5c0.3-0.5,0.7-0.9,1.2-1.1c0.5-0.3,1.1-0.4,1.8-0.4
				C126.9,150.6,127.7,150.8,128.3,151.4z"/>
			<path class="st2" d="M136.3,158.3c-0.6-0.2-1-0.4-1.4-0.7l0.5-0.8c0.3,0.3,0.7,0.5,1.2,0.6c0.5,0.2,1,0.2,1.6,0.2
				c0.7,0,1.3-0.1,1.6-0.3c0.3-0.2,0.5-0.5,0.5-1c0-0.3-0.1-0.5-0.3-0.7s-0.4-0.3-0.7-0.4c-0.3-0.1-0.7-0.2-1.2-0.2
				c-0.6-0.1-1.2-0.2-1.5-0.4c-0.4-0.1-0.7-0.3-1-0.6c-0.3-0.3-0.4-0.7-0.4-1.2c0-0.7,0.3-1.2,0.8-1.6s1.3-0.6,2.3-0.6
				c0.5,0,1,0.1,1.5,0.2s0.9,0.3,1.3,0.5l-0.5,0.9c-0.6-0.4-1.4-0.7-2.3-0.7c-0.7,0-1.2,0.1-1.5,0.4c-0.3,0.2-0.5,0.6-0.5,0.9
				c0,0.3,0.1,0.5,0.3,0.7s0.4,0.3,0.7,0.4c0.3,0.1,0.7,0.2,1.2,0.3c0.6,0.1,1.1,0.2,1.5,0.4c0.4,0.1,0.7,0.3,1,0.6
				c0.3,0.3,0.4,0.7,0.4,1.2c0,0.7-0.3,1.2-0.9,1.6c-0.6,0.4-1.4,0.6-2.4,0.6C137.5,158.6,136.9,158.5,136.3,158.3z"/>
			<path class="st2" d="M144.5,158.1c-0.6-0.3-1.1-0.8-1.4-1.4s-0.5-1.3-0.5-2.1s0.2-1.5,0.5-2.1s0.8-1.1,1.4-1.4
				c0.6-0.3,1.3-0.5,2.1-0.5c0.8,0,1.4,0.2,2.1,0.5c0.6,0.3,1.1,0.8,1.4,1.4s0.5,1.3,0.5,2.1s-0.2,1.5-0.5,2.1s-0.8,1.1-1.4,1.4
				c-0.6,0.3-1.3,0.5-2.1,0.5C145.8,158.6,145.1,158.4,144.5,158.1z M148.1,157.2c0.4-0.3,0.8-0.6,1-1.1c0.3-0.5,0.4-1,0.4-1.6
				s-0.1-1.1-0.4-1.6c-0.2-0.5-0.6-0.8-1-1.1c-0.4-0.3-0.9-0.4-1.5-0.4c-0.6,0-1.1,0.1-1.5,0.4s-0.8,0.6-1,1.1
				c-0.3,0.5-0.4,1-0.4,1.6s0.1,1.1,0.4,1.6c0.3,0.5,0.6,0.8,1,1.1s0.9,0.4,1.5,0.4C147.1,157.6,147.6,157.5,148.1,157.2z"/>
			<path class="st2" d="M159.1,151.4c0.6,0.6,0.9,1.4,0.9,2.5v4.6h-1.1V154c0-0.8-0.2-1.4-0.6-1.9c-0.4-0.4-1-0.6-1.8-0.6
				c-0.8,0-1.5,0.3-2,0.8c-0.5,0.5-0.7,1.2-0.7,2.1v4.1h-1.1v-7.9h1v1.5c0.3-0.5,0.7-0.9,1.2-1.1c0.5-0.3,1.1-0.4,1.8-0.4
				C157.7,150.6,158.5,150.8,159.1,151.4z"/>
			<path class="st2" d="M170.1,147.4v11.1h-1v-1.6c-0.3,0.5-0.7,0.9-1.3,1.2c-0.5,0.3-1.1,0.4-1.8,0.4c-0.7,0-1.4-0.2-2-0.5
				c-0.6-0.3-1.1-0.8-1.4-1.4c-0.3-0.6-0.5-1.3-0.5-2.1s0.2-1.5,0.5-2.1c0.3-0.6,0.8-1.1,1.4-1.4c0.6-0.3,1.3-0.5,2-0.5
				c0.6,0,1.2,0.1,1.7,0.4c0.5,0.3,0.9,0.7,1.3,1.2v-4.7H170.1z M167.6,157.2c0.4-0.3,0.8-0.6,1-1.1c0.3-0.5,0.4-1,0.4-1.6
				s-0.1-1.1-0.4-1.6c-0.3-0.5-0.6-0.8-1-1.1s-0.9-0.4-1.5-0.4c-0.6,0-1.1,0.1-1.5,0.4s-0.8,0.6-1,1.1c-0.3,0.5-0.4,1-0.4,1.6
				s0.1,1.1,0.4,1.6c0.3,0.5,0.6,0.8,1,1.1s0.9,0.4,1.5,0.4C166.7,157.6,167.2,157.5,167.6,157.2z"/>
			<path class="st2" d="M178.2,151.3c0.5,0.5,0.8,1.3,0.8,2.3v4.9h-1v-1.2c-0.2,0.4-0.6,0.7-1.1,1s-1,0.3-1.7,0.3
				c-0.9,0-1.6-0.2-2.1-0.6c-0.5-0.4-0.8-1-0.8-1.7c0-0.7,0.2-1.2,0.7-1.6c0.5-0.4,1.3-0.6,2.3-0.6h2.5v-0.5c0-0.7-0.2-1.2-0.6-1.6
				c-0.4-0.4-0.9-0.5-1.7-0.5c-0.5,0-1,0.1-1.4,0.2s-0.9,0.4-1.2,0.7l-0.5-0.8c0.4-0.3,0.9-0.6,1.4-0.8c0.6-0.2,1.1-0.3,1.8-0.3
				C176.8,150.6,177.6,150.8,178.2,151.3z M177,157.3c0.4-0.3,0.7-0.7,1-1.2v-1.3h-2.5c-1.3,0-2,0.5-2,1.4c0,0.5,0.2,0.8,0.5,1.1
				c0.3,0.3,0.8,0.4,1.5,0.4C176,157.7,176.5,157.6,177,157.3z"/>
			<path class="st2" d="M189.2,150.6v6.9c0,1.3-0.3,2.3-1,3c-0.7,0.6-1.6,1-3,1c-0.7,0-1.4-0.1-2.1-0.3s-1.2-0.5-1.6-0.9l0.5-0.8
				c0.4,0.3,0.8,0.6,1.4,0.8s1.1,0.3,1.7,0.3c1,0,1.7-0.2,2.2-0.7c0.5-0.5,0.7-1.2,0.7-2.2v-1c-0.3,0.5-0.8,0.9-1.3,1.1
				c-0.5,0.3-1.1,0.4-1.8,0.4c-0.7,0-1.4-0.2-2-0.5c-0.6-0.3-1.1-0.8-1.4-1.4c-0.3-0.6-0.5-1.2-0.5-2s0.2-1.4,0.5-2
				c0.3-0.6,0.8-1,1.4-1.3c0.6-0.3,1.3-0.5,2-0.5c0.7,0,1.3,0.1,1.8,0.4s1,0.7,1.3,1.2v-1.5H189.2z M186.7,156.9
				c0.5-0.2,0.8-0.6,1.1-1c0.3-0.4,0.4-0.9,0.4-1.5c0-0.6-0.1-1.1-0.4-1.5c-0.3-0.4-0.6-0.8-1.1-1c-0.5-0.2-1-0.4-1.6-0.4
				c-0.6,0-1.1,0.1-1.5,0.4c-0.5,0.2-0.8,0.6-1.1,1c-0.3,0.4-0.4,0.9-0.4,1.5c0,0.6,0.1,1.1,0.4,1.5c0.3,0.4,0.6,0.8,1.1,1
				c0.5,0.2,1,0.4,1.5,0.4S186.3,157.1,186.7,156.9z"/>
			<path class="st2" d="M199.5,150.6v6.9c0,1.3-0.3,2.3-1,3c-0.7,0.6-1.6,1-3,1c-0.7,0-1.4-0.1-2.1-0.3s-1.2-0.5-1.6-0.9l0.5-0.8
				c0.4,0.3,0.8,0.6,1.4,0.8s1.1,0.3,1.7,0.3c1,0,1.7-0.2,2.2-0.7c0.5-0.5,0.7-1.2,0.7-2.2v-1c-0.3,0.5-0.8,0.9-1.3,1.1
				c-0.5,0.3-1.1,0.4-1.8,0.4c-0.7,0-1.4-0.2-2-0.5c-0.6-0.3-1.1-0.8-1.4-1.4c-0.3-0.6-0.5-1.2-0.5-2s0.2-1.4,0.5-2
				c0.3-0.6,0.8-1,1.4-1.3c0.6-0.3,1.3-0.5,2-0.5c0.7,0,1.3,0.1,1.8,0.4s1,0.7,1.3,1.2v-1.5H199.5z M197,156.9
				c0.5-0.2,0.8-0.6,1.1-1c0.3-0.4,0.4-0.9,0.4-1.5c0-0.6-0.1-1.1-0.4-1.5c-0.3-0.4-0.6-0.8-1.1-1c-0.5-0.2-1-0.4-1.6-0.4
				c-0.6,0-1.1,0.1-1.5,0.4c-0.5,0.2-0.8,0.6-1.1,1c-0.3,0.4-0.4,0.9-0.4,1.5c0,0.6,0.1,1.1,0.4,1.5c0.3,0.4,0.6,0.8,1.1,1
				c0.5,0.2,1,0.4,1.5,0.4S196.5,157.1,197,156.9z"/>
			<path class="st2" d="M202.5,148.7c-0.2-0.1-0.2-0.3-0.2-0.5c0-0.2,0.1-0.4,0.2-0.5c0.1-0.1,0.3-0.2,0.6-0.2s0.4,0.1,0.6,0.2
				c0.2,0.1,0.2,0.3,0.2,0.5c0,0.2-0.1,0.4-0.2,0.6c-0.1,0.2-0.3,0.2-0.6,0.2S202.6,148.8,202.5,148.7z M202.5,150.6h1.1v7.9h-1.1
				V150.6z"/>
			<path class="st2" d="M207.7,158.1c-0.6-0.3-1.1-0.8-1.4-1.4s-0.5-1.3-0.5-2.1s0.2-1.5,0.5-2.1s0.8-1.1,1.4-1.4
				c0.6-0.3,1.3-0.5,2.1-0.5c0.8,0,1.4,0.2,2.1,0.5c0.6,0.3,1.1,0.8,1.4,1.4s0.5,1.3,0.5,2.1s-0.2,1.5-0.5,2.1s-0.8,1.1-1.4,1.4
				c-0.6,0.3-1.3,0.5-2.1,0.5C209,158.6,208.3,158.4,207.7,158.1z M211.2,157.2c0.4-0.3,0.8-0.6,1-1.1c0.3-0.5,0.4-1,0.4-1.6
				s-0.1-1.1-0.4-1.6c-0.3-0.5-0.6-0.8-1-1.1c-0.4-0.3-0.9-0.4-1.5-0.4c-0.6,0-1.1,0.1-1.5,0.4s-0.8,0.6-1,1.1
				c-0.3,0.5-0.4,1-0.4,1.6s0.1,1.1,0.4,1.6c0.3,0.5,0.6,0.8,1,1.1s0.9,0.4,1.5,0.4C210.3,157.6,210.8,157.5,211.2,157.2z"/>
			<path class="st2" d="M224.9,151.3c0.5,0.5,0.8,1.3,0.8,2.3v4.9h-1v-1.2c-0.2,0.4-0.6,0.7-1.1,1c-0.5,0.2-1,0.3-1.7,0.3
				c-0.9,0-1.6-0.2-2.1-0.6c-0.5-0.4-0.8-1-0.8-1.7c0-0.7,0.2-1.2,0.7-1.6c0.5-0.4,1.3-0.6,2.3-0.6h2.5v-0.5c0-0.7-0.2-1.2-0.6-1.6
				c-0.4-0.4-0.9-0.5-1.7-0.5c-0.5,0-1,0.1-1.4,0.2c-0.5,0.2-0.9,0.4-1.2,0.7l-0.5-0.8c0.4-0.3,0.9-0.6,1.4-0.8
				c0.6-0.2,1.1-0.3,1.8-0.3C223.6,150.6,224.4,150.8,224.9,151.3z M223.8,157.3c0.4-0.3,0.7-0.7,1-1.2v-1.3h-2.5
				c-1.3,0-2,0.5-2,1.4c0,0.5,0.2,0.8,0.5,1.1s0.8,0.4,1.5,0.4C222.8,157.7,223.3,157.6,223.8,157.3z"/>
			<path class="st2" d="M235.9,147.4v11.1h-1v-1.6c-0.3,0.5-0.7,0.9-1.3,1.2c-0.5,0.3-1.1,0.4-1.8,0.4c-0.7,0-1.4-0.2-2-0.5
				c-0.6-0.3-1.1-0.8-1.4-1.4s-0.5-1.3-0.5-2.1s0.2-1.5,0.5-2.1c0.3-0.6,0.8-1.1,1.4-1.4c0.6-0.3,1.3-0.5,2-0.5
				c0.6,0,1.2,0.1,1.7,0.4s0.9,0.7,1.3,1.2v-4.7H235.9z M233.4,157.2c0.4-0.3,0.8-0.6,1-1.1c0.3-0.5,0.4-1,0.4-1.6s-0.1-1.1-0.4-1.6
				c-0.3-0.5-0.6-0.8-1-1.1s-0.9-0.4-1.5-0.4c-0.6,0-1.1,0.1-1.5,0.4s-0.8,0.6-1,1.1c-0.3,0.5-0.4,1-0.4,1.6s0.1,1.1,0.4,1.6
				c0.3,0.5,0.6,0.8,1,1.1s0.9,0.4,1.5,0.4C232.5,157.6,233,157.5,233.4,157.2z"/>
			<path class="st2" d="M249.2,151.4c0.6,0.6,0.9,1.4,0.9,2.5v4.6H249V154c0-0.8-0.2-1.4-0.6-1.9c-0.4-0.4-1-0.6-1.8-0.6
				c-0.8,0-1.5,0.3-2,0.8c-0.5,0.5-0.7,1.2-0.7,2.1v4.1h-1.1v-11.1h1.1v4.6c0.3-0.5,0.7-0.8,1.2-1.1c0.5-0.2,1.1-0.4,1.8-0.4
				C247.8,150.6,248.6,150.8,249.2,151.4z"/>
			<path class="st2" d="M254.1,158.1c-0.6-0.3-1.1-0.8-1.4-1.4s-0.5-1.3-0.5-2.1s0.2-1.5,0.5-2.1s0.8-1.1,1.4-1.4
				c0.6-0.3,1.3-0.5,2.1-0.5s1.4,0.2,2.1,0.5c0.6,0.3,1.1,0.8,1.4,1.4s0.5,1.3,0.5,2.1s-0.2,1.5-0.5,2.1s-0.8,1.1-1.4,1.4
				c-0.6,0.3-1.3,0.5-2.1,0.5S254.7,158.4,254.1,158.1z M257.7,157.2c0.4-0.3,0.8-0.6,1-1.1c0.3-0.5,0.4-1,0.4-1.6s-0.1-1.1-0.4-1.6
				c-0.2-0.5-0.6-0.8-1-1.1s-0.9-0.4-1.5-0.4s-1.1,0.1-1.5,0.4s-0.8,0.6-1,1.1c-0.3,0.5-0.4,1-0.4,1.6s0.1,1.1,0.4,1.6
				c0.3,0.5,0.6,0.8,1,1.1s0.9,0.4,1.5,0.4S257.2,157.5,257.7,157.2z"/>
			<path class="st2" d="M263.5,158.1c-0.6-0.3-1.1-0.8-1.4-1.4s-0.5-1.3-0.5-2.1s0.2-1.5,0.5-2.1s0.8-1.1,1.4-1.4
				c0.6-0.3,1.3-0.5,2.1-0.5c0.7,0,1.3,0.1,1.8,0.4s1,0.7,1.3,1.2l-0.8,0.5c-0.3-0.4-0.6-0.7-1-0.9c-0.4-0.2-0.8-0.3-1.3-0.3
				c-0.6,0-1.1,0.1-1.5,0.4s-0.8,0.6-1.1,1.1c-0.3,0.5-0.4,1-0.4,1.6c0,0.6,0.1,1.1,0.4,1.6c0.3,0.5,0.6,0.8,1.1,1.1s1,0.4,1.5,0.4
				c0.5,0,0.9-0.1,1.3-0.3c0.4-0.2,0.7-0.5,1-0.9l0.8,0.5c-0.3,0.5-0.7,0.9-1.3,1.2c-0.5,0.3-1.1,0.4-1.8,0.4
				C264.8,158.6,264.1,158.4,263.5,158.1z"/>
		</g>
	</g>
</g>
</svg>
