<svg xmlns="http://www.w3.org/2000/svg" width="34" height="34" viewBox="0 0 34 34">
    <defs>
        <style>.a{fill:#3f49fc;}.b{fill:#fff;}</style>
    </defs>
    <g transform="translate(-153 -331)">
        <g transform="translate(273 331)">
            <circle class="a" cx="17" cy="17" r="17" transform="translate(-120)"/>
        </g>
        <g transform="translate(160.59 338.39)">
            <path class="b"
                  d="M15.412,0H3.358A3.362,3.362,0,0,0,0,3.358V15.412A3.362,3.362,0,0,0,3.358,18.77H15.412a3.362,3.362,0,0,0,3.358-3.358V3.358A3.362,3.362,0,0,0,15.412,0ZM17.67,15.412a2.261,2.261,0,0,1-2.258,2.258H3.358A2.261,2.261,0,0,1,1.1,15.412V3.358A2.261,2.261,0,0,1,3.358,1.1H15.412A2.261,2.261,0,0,1,17.67,3.358Z"
                  transform="translate(0 0)"/>
            <path class="b"
                  d="M77.775,81.512H69.4a1.727,1.727,0,0,0-3.275,0H64.817a.55.55,0,1,0,0,1.1h1.307a1.727,1.727,0,0,0,3.275,0h8.375a.55.55,0,1,0,0-1.1ZM67.762,82.69a.628.628,0,1,1,.628-.628A.629.629,0,0,1,67.762,82.69Z"
                  transform="translate(-61.911 -77.389)"/>
            <path class="b"
                  d="M77.775,210.045H76.468a1.727,1.727,0,0,0-3.275,0H64.817a.55.55,0,0,0,0,1.1h8.375a1.727,1.727,0,0,0,3.275,0h1.307a.55.55,0,1,0,0-1.1Zm-2.945,1.178a.628.628,0,1,1,.628-.628A.629.629,0,0,1,74.83,211.223Z"
                  transform="translate(-61.911 -201.21)"/>
            <path class="b"
                  d="M77.775,338.578H71.756a1.727,1.727,0,0,0-3.275,0H64.817a.55.55,0,1,0,0,1.1H68.48a1.727,1.727,0,0,0,3.275,0h6.019a.55.55,0,1,0,0-1.1Zm-7.657,1.178a.628.628,0,1,1,.628-.628A.629.629,0,0,1,70.118,339.756Z"
                  transform="translate(-61.911 -325.031)"/>
        </g>
    </g>
</svg>