<?xml version="1.0" encoding="utf-8"?>
<!-- Generator: Adobe Illustrator 24.0.2, SVG Export Plug-In . SVG Version: 6.00 Build 0)  -->
<svg version="1.1" id="Livello_1" xmlns="http://www.w3.org/2000/svg" xmlns:xlink="http://www.w3.org/1999/xlink" x="0px" y="0px"
	 viewBox="0 0 500 500" style="enable-background:new 0 0 500 500;" xml:space="preserve">
<style type="text/css">
	.st0{fill:#1D1D1B;}
</style>
<g>
	<path class="st0" d="M408.1,194.5c0-3.9-0.8-7.7-2.2-11.3L375.3,110c-4.6-11-15.3-18.1-27.2-18.1H151.8c-11.9,0-22.6,7.1-27.2,18.1
		l-30.5,73.2c-1.5,3.6-2.3,7.4-2.3,11.3v37.8c0,6.7,2.3,13.1,6.4,18.3c-4.1,5.2-6.4,11.6-6.4,18.3v36.6c0,6.7,2.3,13.1,6.4,18.3
		c-4.1,5.2-6.4,11.6-6.4,18.3v36.6c0,16.2,13.2,29.4,29.4,29.4h257.3c16.2,0,29.4-13.2,29.4-29.4v-36.6c0-6.7-2.3-13.1-6.4-18.3
		c4.1-5.2,6.4-11.6,6.4-18.3v-36.6c0-6.7-2.3-13.1-6.4-18.3c4.1-5.2,6.4-11.6,6.4-18.3V194.5z M378.6,239.5H121.4
		c-3.9,0-7.1-3.2-7.1-7.1v-37.8c0-3.9,3.2-7.1,7.1-7.1h257.3c3.9,0,7.1,3.2,7.1,7.1v37.8C385.8,236.3,382.6,239.5,378.6,239.5z
		 M121.4,261.8h257.3c3.9,0,7.1,3.2,7.1,7.1v36.6c0,3.9-3.2,7.1-7.1,7.1H121.4c-3.9,0-7.1-3.2-7.1-7.1v-36.6
		C114.2,265,117.4,261.8,121.4,261.8z M121.4,334.9h257.3c3.9,0,7.1,3.2,7.1,7.1v36.6c0,3.9-3.2,7.1-7.1,7.1H121.4
		c-3.9,0-7.1-3.2-7.1-7.1v-36.6C114.2,338.1,117.4,334.9,121.4,334.9z M125.9,165.1l19.4-46.5c1.1-2.7,3.7-4.4,6.6-4.4h196.3
		c2.9,0,5.5,1.7,6.6,4.4l19.4,46.5H125.9z"/>
	<path class="st0" d="M194.5,370.5h165.8c5.6,0,10.1-4.6,10.1-10.1s-4.6-10.1-10.1-10.1H194.5c-5.6,0-10.1,4.6-10.1,10.1
		S188.9,370.5,194.5,370.5z"/>
	<path class="st0" d="M360.4,202.7H194.5c-5.6,0-10.1,4.6-10.1,10.1s4.6,10.1,10.1,10.1h165.8c5.6,0,10.1-4.6,10.1-10.1
		S366,202.7,360.4,202.7z"/>
	<path class="st0" d="M139.6,202.7c-5.6,0-10.1,4.6-10.1,10.1c0,5.4,4.3,11.4,10.1,11.4s10.1-6,10.1-11.4
		C149.8,207.2,145.2,202.7,139.6,202.7z"/>
	<path class="st0" d="M194.5,297.3h165.8c5.6,0,10.1-4.6,10.1-10.1S366,277,360.4,277H194.5c-5.6,0-10.1,4.6-10.1,10.1
		S188.9,297.3,194.5,297.3z"/>
	<path class="st0" d="M139.6,297.3c5.6,0,10.1-4.6,10.1-10.1s-4.6-10.1-10.1-10.1s-10.1,4.6-10.1,10.1S134,297.3,139.6,297.3z"/>
	<circle class="st0" cx="139.6" cy="360.4" r="10.1"/>
</g>
</svg>
