<?xml version="1.0" encoding="utf-8"?>
<!-- Generator: Adobe Illustrator 24.0.2, SVG Export Plug-In . SVG Version: 6.00 Build 0)  -->
<svg version="1.1" id="Livello_1" xmlns="http://www.w3.org/2000/svg" xmlns:xlink="http://www.w3.org/1999/xlink" x="0px" y="0px"
	 viewBox="0 0 500 500" style="enable-background:new 0 0 500 500;" xml:space="preserve">
<style type="text/css">
	.st0{fill:#1D1D1B;}
</style>
<g>
	<path class="st0" d="M118.2,266.9l-24.8,25.6c-4.8,5-4.7,12.9,0.3,17.7c2.4,2.4,5.6,3.5,8.7,3.5c3.3,0,6.5-1.3,9-3.8l24.8-25.6
		c4.8-5,4.7-12.9-0.3-17.7C130.9,261.8,123,262,118.2,266.9z"/>
	<path class="st0" d="M176,275c-6.9,0-12.5,5.6-12.5,12.5v109.9c0,6.9,5.6,12.5,12.5,12.5h0c6.9,0,12.5-5.6,12.5-12.5l0-109.9
		C188.5,280.6,182.9,275,176,275z"/>
	<path class="st0" d="M224.7,247.5c-6.9,0-12.5,5.6-12.5,12.5v137.4c0,6.9,5.6,12.5,12.5,12.5c6.9,0,12.5-5.6,12.5-12.5V260
		C237.2,253.1,231.6,247.5,224.7,247.5z"/>
	<path class="st0" d="M372.7,90.1h-37.5c-6.9,0-12.5,5.6-12.5,12.5s5.6,12.5,12.5,12.5h32.9l-91.7,91.7c-2.5,2.5-5.7,3.9-8.9,3.9
		c-0.1,0-0.1,0-0.2,0c-3.1-0.1-6.2-1.5-8.6-3.9l-14.7-14.7c-7.2-7.2-16.7-11.4-26.2-11.4c-0.1,0-0.2,0-0.3,0
		c-9.8,0-19.6,4.3-26.9,11.8L164,219.3c-4.9,4.9-4.8,12.8,0,17.7c2.4,2.4,5.6,3.6,8.8,3.6c3.2,0,6.4-1.2,8.9-3.7l26.8-26.9
		c0,0,0.1-0.1,0.1-0.1c2.6-2.7,6-4.3,9.1-4.2c2.9,0,6.2,1.6,8.7,4.1l14.7,14.7c7,7,16.2,11,25.8,11.2c10,0.2,19.9-3.9,27.2-11.2
		l91.1-91.1v31c0,6.9,5.6,12.5,12.5,12.5s12.5-5.6,12.5-12.5v-36.8C410.2,106.9,393.4,90.1,372.7,90.1z"/>
	<path class="st0" d="M126.7,331.2c-6.9,0-12.5,5.6-12.5,12.5v53.7c0,6.9,5.6,12.5,12.5,12.5h0c6.9,0,12.5-5.6,12.5-12.5v-53.7
		C139.2,336.8,133.6,331.2,126.7,331.2z"/>
	<path class="st0" d="M372.1,196.9c-6.9,0-12.5,5.6-12.5,12.5v188c0,6.9,5.6,12.5,12.5,12.5h0c6.9,0,12.5-5.6,12.5-12.5v-188
		C384.6,202.5,379,196.9,372.1,196.9z"/>
	<path class="st0" d="M273.4,263.1c-6.9,0-12.5,5.6-12.5,12.5v121.8c0,6.9,5.6,12.5,12.5,12.5h0c6.9,0,12.5-5.6,12.5-12.5V275.6
		C285.9,268.7,280.3,263.1,273.4,263.1z"/>
	<path class="st0" d="M322.7,239.4c-6.9,0-12.4,5.6-12.4,12.5v145.5c0,6.9,5.6,12.5,12.5,12.5h0c6.9,0,12.5-5.6,12.5-12.5V251.9
		C335.2,245,329.6,239.4,322.7,239.4z"/>
</g>
</svg>
