<?xml version="1.0" encoding="utf-8"?>
<!-- Generator: Adobe Illustrator 24.0.2, SVG Export Plug-In . SVG Version: 6.00 Build 0)  -->
<svg version="1.1" id="Livello_1" xmlns="http://www.w3.org/2000/svg" xmlns:xlink="http://www.w3.org/1999/xlink" x="0px" y="0px"
	 viewBox="0 0 500 500" style="enable-background:new 0 0 500 500;" xml:space="preserve">
<style type="text/css">
	.st0{fill:#1D1D1B;}
</style>
<path class="st0" d="M422.2,239l-136-136c-19.7-19.7-51.8-19.7-71.5,0l-136,136c-4.3,4.3-4.3,11.2,0,15.5c4.3,4.3,11.2,4.3,15.5,0
	l8.7-8.7v139c0,17.3,14.1,31.4,31.4,31.4h72.5h87.5h72.5c17.3,0,31.4-14.1,31.4-31.4v-139l8.7,8.7c2.1,2.1,4.9,3.2,7.7,3.2h0
	c2.8,0,5.6-1.1,7.7-3.2C426.5,250.2,426.5,243.2,422.2,239z M217.6,394.3v-86.1c0-6.8,5.5-12.3,12.3-12.3h41
	c6.8,0,12.3,5.5,12.3,12.3v86.1H217.6z M376.2,384.8c0,5.3-4.3,9.6-9.6,9.6h-61.5v-86.1c0-18.8-15.3-34.2-34.2-34.2h-41
	c-18.8,0-34.2,15.3-34.2,34.2v86.1h-61.5c-5.3,0-9.6-4.3-9.6-9.6V223.9l105.5-105.5c11.2-11.2,29.4-11.2,40.6,0l105.5,105.5V384.8z"
	/>
</svg>
