<svg xmlns="http://www.w3.org/2000/svg" width="34" height="34" viewBox="0 0 34 34">
  <g id="Raggruppa_823" data-name="Raggruppa 823" transform="translate(-552 -355)">
    <path id="Tracciato_47" data-name="Tracciato 47" d="M17,0A17,17,0,1,1,0,17,17,17,0,0,1,17,0Z" transform="translate(552 355)" fill="#3f49fc"/>
    <path id="Tracciato_45" data-name="Tracciato 45" d="M-515.554-171c.1-.379.167-.691.261-1a.357.357,0,0,1,.184-.217,11.88,11.88,0,0,1,4.818-.981,3.006,3.006,0,0,1,2.866,2,4.283,4.283,0,0,1-.108,2.29c-.427,1.492-.932,2.965-1.351,4.459a8.859,8.859,0,0,0-.295,1.917c-.034.635.26.959.963,1.016a10.645,10.645,0,0,0,1.812-.1,4.144,4.144,0,0,0,.664-.179c-.1.366-.178.7-.284,1.021a.36.36,0,0,1-.212.192,14.49,14.49,0,0,1-3.423.956,4.756,4.756,0,0,1-3.432-.758,2.026,2.026,0,0,1-.915-1.692,15.233,15.233,0,0,1,.444-2.745c.377-1.451.881-2.875,1.272-4.323a4.613,4.613,0,0,0,.06-1.416c-.02-.4-.313-.637-.744-.728a4.021,4.021,0,0,0-2.128.162C-515.228-171.091-515.358-171.06-515.554-171Z" transform="translate(1078.696 541.447)" fill="#fff"/>
    <g id="Raggruppa_42" data-name="Raggruppa 42" transform="translate(567.542 361.266)">
      <path id="Tracciato_46" data-name="Tracciato 46" d="M-459.013-263.133a2.652,2.652,0,0,1-2.855-2.384,2.693,2.693,0,0,1,2.889-2.4,2.667,2.667,0,0,1,2.828,2.416A2.64,2.64,0,0,1-459.013-263.133Z" transform="translate(461.868 267.921)" fill="#fff"/>
    </g>
  </g>
</svg>
