<?xml version="1.0" encoding="utf-8"?>
<!-- Generator: Adobe Illustrator 24.0.2, SVG Export Plug-In . SVG Version: 6.00 Build 0)  -->
<svg version="1.1" id="Livello_1" xmlns="http://www.w3.org/2000/svg" xmlns:xlink="http://www.w3.org/1999/xlink" x="0px" y="0px"
	 viewBox="0 0 100 100" style="enable-background:new 0 0 100 100;" xml:space="preserve">
<style type="text/css">
	.st0{fill:#1D1D1B;}
</style>
<g>
	<path d="M60,89.7c-1-0.1-2.1-0.2-3.1-0.2c-8,0.1-16-0.5-24-1.5c-0.5-0.1-1,0.1-1.4,0.3c-1.1,0.6-2.3,0.9-3.6,0.9
		c-3.1,0-6.2,0-9.3,0c-3.4,0-5.9-1.9-6.8-5.1c-0.2-0.7-0.2-1.4-0.2-2.1c0-8.5,0-17,0-25.5c0-4.3,2.9-7.2,7.2-7.2c2.9,0,5.9,0,8.8,0
		c1.3,0,2.6,0.1,3.8,0.8c0.6-1,1.2-2.1,1.9-3c0.6-0.8,1.4-1.5,2-2.3c1.2-1.5,2.6-2.9,3.7-4.5c3.8-5.8,6.5-12.1,9-18.5
		c0.2-0.5,0.1-1,0.1-1.6c-0.1-1.8,0-3.6,0.7-5.3c0.8-1.8,2.3-2.7,4.3-2.6c5.6,0.3,9.4,4.1,9.8,9.7c0.3,3.6-0.6,6.9-1.6,10.3
		c-0.7,2.4-1.3,4.9-1.8,7.4c-0.1,0.5-0.1,1.1-0.1,1.7c1.6-0.3,3.2-0.6,4.7-0.9c4.5-0.7,9-1.1,13.5-0.1c2,0.5,4,1.2,5.5,2.7
		c2.7,2.6,3.3,5.7,2.2,9.2c-0.1,0.5-0.1,0.8,0.2,1.2c2.3,3.4,2.3,7.2,0,10.6c-0.4,0.6-0.5,1.1-0.3,1.8c1,3.8,0.1,7.1-2.6,10
		c-0.5,0.5-0.7,1-0.7,1.8c0.2,3.5-1.3,6.4-4.1,8.5c-2.8,2.1-6.1,2.9-9.5,3.3c-0.8,0.1-1.7,0.2-2.5,0.3C63.7,89.7,61.8,89.7,60,89.7z
		 M34.9,83.9c4.3,0.3,8.7,0.8,13,1c6.3,0.2,12.5,0.3,18.8,0.2c2.5,0,4.9-0.7,7.2-1.9c2.7-1.4,3.9-3.5,3.3-6.3
		c-0.3-1.6,0.1-2.6,1.3-3.5c2.4-1.9,3.1-4.7,1.8-7.3c-0.7-1.4-0.5-2.5,0.6-3.6c2.1-2.4,2.1-4.9,0-7.3c-1-1.1-1.1-2.2-0.4-3.5
		C82,48.7,81,46,77.9,45c-1.6-0.5-3.3-0.8-5-0.9c-4.6-0.3-9,0.6-13.4,1.5c-2.3,0.5-4.2-0.7-4.5-3c-0.2-1.6-0.2-3.3,0.1-4.8
		c0.6-3,1.6-6,2.4-9c0.6-2.2,1-4.5,0.9-6.9c-0.2-3.1-1.9-5-4.8-5.5c-0.8-0.1-1.1,0-1.1,0.8c-0.1,1,0,2-0.1,3c0,0.7,0.1,1.5-0.1,2.1
		c-2.2,5.9-4.8,11.7-7.9,17.2c-1.6,2.9-3.4,5.6-5.8,7.9c-1.2,1.1-2.2,2.4-2.9,3.9c-0.4,0.9-0.7,1.9-0.8,2.9
		c-0.1,0.8,0.2,1.6,0.2,2.5c0,7.2,0,14.4,0,21.6C34.9,80.1,34.9,81.9,34.9,83.9z M15.9,69.1c0,4.3,0,8.6,0,12.9c0,1.7,1,2.6,2.6,2.6
		c3,0,6.1,0,9.1,0c2,0,2.9-0.9,2.9-2.9c0-8.5,0-16.9,0-25.4c0-1.9-0.9-2.8-2.8-2.8c-3,0-6,0-9,0c-1.9,0-2.8,0.9-2.8,2.8
		C15.9,60.6,15.9,64.8,15.9,69.1z"/>
</g>
</svg>
