<?xml version="1.0" encoding="utf-8"?>
<!-- Generator: Adobe Illustrator 24.0.2, SVG Export Plug-In . SVG Version: 6.00 Build 0)  -->
<svg version="1.1" id="Livello_1" xmlns="http://www.w3.org/2000/svg" xmlns:xlink="http://www.w3.org/1999/xlink" x="0px" y="0px"
	 viewBox="0 0 100 100" style="enable-background:new 0 0 100 100;" xml:space="preserve">
<style type="text/css">
	.st0{fill:#1D1D1B;}
	.st1{fill:#FFFFFF;}
</style>
<g>
	<path class="st0" d="M72.5,21.8c-6-6-14-9.3-22.5-9.3c-8.5,0-16.5,3.3-22.5,9.3c-6,6-9.3,14-9.3,22.5c0,17.1,16.2,31.3,24.8,39
		c1.2,1.1,2.2,2,3,2.7c1,1,2.4,1.5,3.9,1.5s2.8-0.5,3.9-1.5c0.8-0.8,1.9-1.7,3.1-2.7c8.7-7.6,24.8-21.8,24.8-39
		C81.8,35.8,78.5,27.8,72.5,21.8z M76.9,44.3c0,14.9-15.1,28.2-23.2,35.3c-1.2,1.1-2.3,2-3.2,2.8c-0.3,0.3-0.8,0.3-1.1,0
		c-0.9-0.8-1.9-1.7-3.2-2.8c-8.1-7.1-23.2-20.4-23.2-35.3c0-14.8,12.1-26.9,26.9-26.9S76.9,29.4,76.9,44.3z"/>
	<path class="st0" d="M50,28.9c-7.8,0-14.1,6.3-14.1,14.1S42.2,57.2,50,57.2c7.8,0,14.1-6.3,14.1-14.1S57.8,28.9,50,28.9z
		 M59.3,43.1c0,5.1-4.2,9.3-9.3,9.3s-9.3-4.2-9.3-9.3c0-5.1,4.2-9.3,9.3-9.3S59.3,38,59.3,43.1z"/>
</g>
</svg>
