<svg xmlns="http://www.w3.org/2000/svg" width="63.268" height="20.334" viewBox="0 0 63.268 20.334">
  <g id="noun_Feedback_Emoji_1696127" data-name="noun_Feedback Emoji_1696127" transform="translate(-0.366 -21.833)">
    <g id="Group_31" data-name="Group 31">
      <g id="Group_26" data-name="Group 26">
        <path id="Path_26" data-name="Path 26" d="M51.276,37.4a1.217,1.217,0,0,0,.89-.381,2.114,2.114,0,0,1,2.954,0,1.22,1.22,0,0,0,.891.382h0a1.257,1.257,0,0,0,.887-2.157,4.573,4.573,0,0,0-6.509,0,1.269,1.269,0,0,0,.887,2.16Z" fill="#5d93f5"/>
        <ellipse id="Ellipse_15" data-name="Ellipse 15" cx="1.519" cy="1.987" rx="1.519" ry="1.987" transform="translate(48.592 28.381)" fill="#5d93f5"/>
        <ellipse id="Ellipse_16" data-name="Ellipse 16" cx="1.519" cy="1.987" rx="1.519" ry="1.987" transform="translate(55.658 28.381)" fill="#5d93f5"/>
        <path id="Path_27" data-name="Path 27" d="M53.644,42.167a9.99,9.99,0,1,1,9.99-9.99A10,10,0,0,1,53.644,42.167Zm0-17.868a7.879,7.879,0,1,0,7.878,7.879A7.888,7.888,0,0,0,53.644,24.3Z" fill="#5d93f5"/>
      </g>
      <g id="Group_28" data-name="Group 28">
        <g id="Group_27" data-name="Group 27">
          <path id="Path_28" data-name="Path 28" d="M12.724,33.526a1.217,1.217,0,0,0-.89.381,2.114,2.114,0,0,1-2.954,0,1.22,1.22,0,0,0-.891-.382h0A1.257,1.257,0,0,0,7.1,35.683a4.573,4.573,0,0,0,6.509,0,1.269,1.269,0,0,0-.887-2.16Z" fill="#5d93f5"/>
          <ellipse id="Ellipse_17" data-name="Ellipse 17" cx="1.519" cy="1.987" rx="1.519" ry="1.987" transform="translate(5.304 28.026)" fill="#5d93f5"/>
          <ellipse id="Ellipse_18" data-name="Ellipse 18" cx="1.519" cy="1.987" rx="1.519" ry="1.987" transform="translate(12.37 28.026)" fill="#5d93f5"/>
        </g>
        <path id="Path_29" data-name="Path 29" d="M10.356,41.813a9.99,9.99,0,1,1,9.99-9.99A10,10,0,0,1,10.356,41.813Zm0-17.869a7.879,7.879,0,1,0,7.878,7.879A7.888,7.888,0,0,0,10.356,23.944Z" fill="#5d93f5"/>
      </g>
      <g id="Group_30" data-name="Group 30">
        <path id="Path_30" data-name="Path 30" d="M32,41.99A9.99,9.99,0,1,1,41.99,32,10,10,0,0,1,32,41.99Zm0-17.869A7.878,7.878,0,1,0,39.878,32,7.888,7.888,0,0,0,32,24.121Z" fill="#5d93f5"/>
        <g id="Group_29" data-name="Group 29">
          <ellipse id="Ellipse_19" data-name="Ellipse 19" cx="1.519" cy="1.987" rx="1.519" ry="1.987" transform="translate(26.948 28.204)" fill="#5d93f5"/>
          <ellipse id="Ellipse_20" data-name="Ellipse 20" cx="1.519" cy="1.987" rx="1.519" ry="1.987" transform="translate(34.014 28.204)" fill="#5d93f5"/>
          <path id="Path_31" data-name="Path 31" d="M34.419,36.805H29.582a1.249,1.249,0,0,1,0-2.5h4.837a1.249,1.249,0,0,1,0,2.5Z" fill="#5d93f5"/>
        </g>
      </g>
    </g>
  </g>
</svg>
