<?xml version="1.0" encoding="utf-8"?>
<!-- Generator: Adobe Illustrator 24.0.2, SVG Export Plug-In . SVG Version: 6.00 Build 0)  -->
<svg version="1.1" id="Livello_1" xmlns="http://www.w3.org/2000/svg" xmlns:xlink="http://www.w3.org/1999/xlink" x="0px" y="0px"
	 viewBox="0 0 100 100" style="enable-background:new 0 0 100 100;" xml:space="preserve">
<style type="text/css">
	.st0{fill:#1D1D1B;}
	.st1{fill:#FFFFFF;}
</style>
<g>
	<g>
		<path d="M75.4,58.9c-3.9-3.9-8.6-6.8-13.6-8.6c5.4-3.7,9-10,9-17.1c0-10.9-8.7-20.1-19.6-20.7c-12-0.7-21.9,8.9-21.9,20.7
			c0,7.1,3.6,13.3,9,17.1c-5.1,1.8-9.7,4.6-13.6,8.6c-6.1,6.1-9.7,13.9-10.4,22.4c-0.1,1.6,1.2,3,2.8,3h0c1.5,0,2.7-1.1,2.8-2.6
			C21.2,66.2,34.2,54,50,54s28.8,12.2,30.2,27.7c0.1,1.5,1.3,2.6,2.8,2.6h0c1.6,0,2.9-1.4,2.8-3C85.1,72.8,81.4,65,75.4,58.9z
			 M52,48.3c-9.9,1.3-18.2-7.1-17-17c0.9-6.7,6.3-12.2,13-13c9.9-1.3,18.2,7.1,17,17C64.2,42,58.7,47.4,52,48.3z"/>
	</g>
</g>
</svg>
