<svg xmlns="http://www.w3.org/2000/svg" width="25.713" height="22.039" viewBox="0 0 25.713 22.039"><g transform="translate(0 -36.547)"><g transform="translate(0 36.547)"><path d="M19.744,84.11h-.918a.443.443,0,0,0-.459.459V89.16a2.3,2.3,0,0,1-2.3,2.3H4.132a2.211,2.211,0,0,1-1.621-.674,2.211,2.211,0,0,1-.674-1.621V77.222A2.21,2.21,0,0,1,2.511,75.6a2.211,2.211,0,0,1,1.621-.674h10.1a.442.442,0,0,0,.459-.459v-.918a.442.442,0,0,0-.459-.459H4.132A3.981,3.981,0,0,0,1.212,74.3,3.981,3.981,0,0,0,0,77.222V89.16a3.98,3.98,0,0,0,1.212,2.92,3.981,3.981,0,0,0,2.92,1.213H16.071A4.14,4.14,0,0,0,20.2,89.16V84.569a.443.443,0,0,0-.459-.459Z" transform="translate(0 -71.253)"/><path d="M211.179,36.82a.883.883,0,0,0-.646-.273h-7.346a.913.913,0,0,0-.646,1.564l2.525,2.525-9.355,9.355a.451.451,0,0,0,0,.66l1.636,1.636a.452.452,0,0,0,.66,0l9.355-9.355,2.525,2.525a.918.918,0,0,0,1.564-.646V37.465A.883.883,0,0,0,211.179,36.82Z" transform="translate(-185.739 -36.547)"/></g></g></svg>