<?xml version="1.0" encoding="utf-8"?>
<!-- Generator: Adobe Illustrator 24.0.2, SVG Export Plug-In . SVG Version: 6.00 Build 0)  -->
<svg version="1.1" id="Livello_1" xmlns="http://www.w3.org/2000/svg" xmlns:xlink="http://www.w3.org/1999/xlink" x="0px" y="0px"
	 viewBox="0 0 500 500" style="enable-background:new 0 0 500 500;" xml:space="preserve">
<style type="text/css">
	.st0{fill:#1D1D1B;}
</style>
<path class="st0" d="M405.1,121c-18-20.5-43-31.7-70.4-31.7c-38.5,0-62.9,23-76.6,42.3c-2.9,4.1-5.6,8.5-8.2,13.1
	c-2.5-4.6-5.3-9-8.2-13.1c-13.7-19.3-38-42.3-76.5-42.3c-27.4,0-52.4,11.3-70.4,31.7c-17.2,19.5-26.6,45.6-26.6,73.4
	c0,30.3,11.8,58.5,37.2,88.7c22.6,26.9,55,54.5,92.7,86.6c14,11.9,28.4,24.2,43.8,37.7l0.5,0.4c2.1,1.8,4.8,2.9,7.6,2.9
	c2.8,0,5.5-1,7.6-2.9l0.5-0.4c15.4-13.4,29.8-25.7,43.7-37.6l0.1-0.1c37.6-32,70-59.7,92.6-86.5c25.4-30.2,37.2-58.4,37.2-88.7
	C431.8,166.6,422.3,140.5,405.1,121z M408.6,194.5c0,53.9-48.4,95.2-121.7,157.6l-0.1,0.1c-11.8,10-24,20.4-36.8,31.6
	c-12.9-11.2-25.1-21.6-36.9-31.7C139.8,289.6,91.4,248.4,91.4,194.5c0-22.2,7.4-42.9,20.8-58.1c13.6-15.4,32.4-23.9,53-23.9
	c28.6,0,47.1,17.7,57.6,32.5c9.5,13.3,14.4,26.8,16.1,32c1.6,4.8,6,8,11,8c5,0,9.5-3.2,11-8c1.7-5.2,6.6-18.6,16.1-32
	c10.5-14.8,29-32.5,57.6-32.5c20.6,0,39.5,8.5,53,23.9C401.2,151.6,408.6,172.2,408.6,194.5z"/>
</svg>
