<svg id="Livello_1" data-name="Livello 1" xmlns="http://www.w3.org/2000/svg" xmlns:xlink="http://www.w3.org/1999/xlink" viewBox="0 0 252.12 224.66"><defs><style>.cls-1{fill:none;}.cls-2{clip-path:url(#clip-path);}.cls-3{fill:#1d1d1b;}</style><clipPath id="clip-path" transform="translate(-94.32 -255.97)"><rect class="cls-1" x="58" y="198" width="327.5" height="288"/></clipPath></defs><g class="cls-2"><path class="cls-3" d="M308.76,329.5c5.21,1.67,8.64,1.36,15.87,1.36,19.44,0,29.05-23.58,15.42-37.23l-5.44-5.44v-7.36A24.83,24.83,0,0,0,309.78,256h0c-8.72,0-20-1-31.74,8.37-9,7.2-14.35,17.65-14.35,31a22.53,22.53,0,0,1-9.59,18.41L208,346.05c-20.41,14.29-36,37.59-38.48,62.79a34,34,0,0,1-25.6-40.7c.12-.53.25-1.06.4-1.59,6.94-24.81,13-42.48,13-71.16a31.53,31.53,0,0,0-63,0v11.83a7.88,7.88,0,1,0,15.76,0h0V295.39a15.76,15.76,0,0,1,31.52,0c0,26.34-5.53,42.3-12.41,66.91a49.71,49.71,0,0,0,34.4,61.31,48.48,48.48,0,0,0,6.65,1.39,32.61,32.61,0,0,0,31.45,24.09c10.12,0,15.86-4.1,22.17-7.89l-2.56,7.69c-5.33,16,6.39,30.26,13.38,31.6,1.14.19-2.18.13,40.83.13a7.89,7.89,0,0,0,0-15.77H248.86c18.06-36.11,11.28-21.13,25.19-55.89a27.66,27.66,0,0,0,1.8-13.41c13.39-22.33,9.46-15.21,14.36-25.82.36,1.5.76,3,1.21,4.5C304.58,417.41,311,432.94,311,460.89a3.93,3.93,0,0,1-3.95,3.93h-4a7.88,7.88,0,0,0-15.76,0h0a15.79,15.79,0,0,0,15.76,15.77H307a19.72,19.72,0,0,0,19.71-19.7c0-30.54-7-47.9-20.23-91.28-4.24-13.94-2.92-28.91,2.26-40.11" transform="translate(-94.32 -255.97)"/></g></svg>