<?xml version="1.0" encoding="utf-8"?>
<!-- Generator: Adobe Illustrator 24.0.2, SVG Export Plug-In . SVG Version: 6.00 Build 0)  -->
<svg version="1.1" id="Livello_1" xmlns="http://www.w3.org/2000/svg" xmlns:xlink="http://www.w3.org/1999/xlink" x="0px" y="0px"
	 viewBox="0 0 500 500" style="enable-background:new 0 0 500 500;" xml:space="preserve">
<style type="text/css">
	.st0{fill:#1D1D1B;}
</style>
<g>
	<path class="st0" d="M159.4,267.4H243c5.8,0,10.5-4.7,10.5-10.5s-4.7-10.5-10.5-10.5h-83.6c-5.8,0-10.5,4.7-10.5,10.5
		S153.6,267.4,159.4,267.4z"/>
	<path class="st0" d="M392.7,121.1c-1.7-15.7-15-28-31.2-28H110.6c-17.3,0-31.4,14.1-31.4,31.4v271.8c0,4.3,2.5,8,6.4,9.7
		c1.3,0.5,2.6,0.8,4,0.8c2.8,0,5.4-1.1,7.4-3.1l66.6-66.6h197.8c17.3,0,31.4-14.1,31.4-31.4V191.6l19-19l1-1v-0.1
		c5-5.5,7.8-12.8,7.8-20.3C420.8,135.3,408.4,122.2,392.7,121.1z M399.8,151.2c0,2.4-1,4.8-2.7,6.5l-7.7,7.7l-13.1-13.1l7.7-7.7
		c1.7-1.7,4.1-2.7,6.5-2.7C395.7,142,399.8,146.1,399.8,151.2z M298.2,243.6l3.3-16.4l60-60l13.1,13.1l-60.1,60.1L298.2,243.6z
		 M312.7,162.9H159.4c-5.8,0-10.5,4.7-10.5,10.5c0,5.8,4.7,10.5,10.5,10.5h153.3c1.1,0,2.1-0.2,3.1-0.5l-21.3,21.3h-135
		c-5.8,0-10.5,4.7-10.5,10.5s4.7,10.5,10.5,10.5h121l-5.9,29.3c-0.7,3.4,0.4,7,2.9,9.5c1.9,1.9,4.6,3.1,7.4,3.1c0.7,0,1.4-0.1,2-0.2
		l34.8-7c2.1-0.4,3.9-1.4,5.4-2.9l44.9-44.9v93.2c0,5.8-4.7,10.4-10.4,10.4H159.4c-2.8,0-5.4,1.1-7.4,3.1l-51.8,51.8V124.5
		c0-5.8,4.7-10.4,10.4-10.4h250.9c5.8,0,10.4,4.7,10.4,10.4v3c-1,0.8-1.9,1.5-2.7,2.4l-46.5,46.5c0.3-1,0.5-2,0.5-3.1
		C323.2,167.6,318.5,162.9,312.7,162.9z"/>
</g>
</svg>
