<svg xmlns="http://www.w3.org/2000/svg" width="90" height="55.1" viewBox="0 0 90 55.1">
  <g id="noun_Baseline_shift_273634" data-name="noun_Baseline shift_273634" transform="translate(-5 -24.9)">
    <path id="Path_3" data-name="Path 3" d="M11.4,69.7a2.63,2.63,0,0,0,3.4-1.1L21.5,55H43.4l6.8,13.6A2.4,2.4,0,0,0,52.4,70a2.016,2.016,0,0,0,1.1-.3,2.568,2.568,0,0,0,1.1-3.4l-20-40a2.58,2.58,0,0,0-2.2-1.4,2.4,2.4,0,0,0-2.2,1.4l-20,40A2.52,2.52,0,0,0,11.4,69.7ZM32.5,33.1,41,50H24Z" fill="#fff"/>
    <path id="Path_4" data-name="Path 4" d="M5,77.5A2.476,2.476,0,0,0,7.5,80h50a2.5,2.5,0,0,0,0-5H7.5A2.476,2.476,0,0,0,5,77.5Z" fill="#fff"/>
    <path id="Path_5" data-name="Path 5" d="M92.5,55h-30a2.5,2.5,0,0,0,0,5h30a2.5,2.5,0,0,0,0-5Z" fill="#fff"/>
    <path id="Path_6" data-name="Path 6" d="M72.5,35a7.5,7.5,0,0,0,0,15h15A2.476,2.476,0,0,0,90,47.5v-15A7.555,7.555,0,0,0,82.5,25H70a2.5,2.5,0,0,0,0,5H82.5A2.476,2.476,0,0,1,85,32.5V35ZM85,45H72.5a2.5,2.5,0,0,1,0-5H85Z" fill="#fff"/>
    <path id="Path_7" data-name="Path 7" d="M69.3,79.3l8.2-8.2,8.2,8.2a2.51,2.51,0,0,0,3.6-3.5l-10-10a2.416,2.416,0,0,0-3.5,0l-10,10a2.416,2.416,0,0,0,0,3.5A2.605,2.605,0,0,0,69.3,79.3Z" fill="#fff"/>
  </g>
</svg>
