<svg xmlns="http://www.w3.org/2000/svg" width="54.84" height="46.08" viewBox="0 0 54.84 46.08">
  <g id="noun_review_3325149" transform="translate(-4.58 -8.96)">
    <g id="Review">
      <path id="Path_19" data-name="Path 19" d="M39.6,19.13a3.73,3.73,0,0,0-5.16,0L23.83,29.74h0l-1.44,1.43A1.53,1.53,0,0,0,22,32l-.9,6.21A1.51,1.51,0,0,0,22.56,40h.21L29,39a1.54,1.54,0,0,0,.85-.43l12-12a3.66,3.66,0,0,0,0-5.17Zm.15,5.32L28.06,36.14l-3.73.54.54-3.74-1.507.571-.224,3.642c.29.276,3.461-.458,3.861-.472h1.06l1.326-.54.464-.259.909.656-.276-1.976-.9,1.321-5.752.8-.3-2.889L27,30.8l9.55-9.55a.67.67,0,0,1,.46-.19.68.68,0,0,1,.46.19h0l2.27,2.27a.66.66,0,0,1,0,.93ZM32,9.46C17.16,9.46,5.08,18.23,5.08,29c0,4.54,2.14,8.9,6,12.37-1,3.59-2.88,9-4.71,10.52a1.51,1.51,0,0,0,1,2.65h.08a31.1,31.1,0,0,0,17-6.77,36.36,36.36,0,0,0,7.55.78c14.84,0,26.92-8.76,26.92-19.54S46.84,9.46,32,9.46Zm0,36.08a33.31,33.31,0,0,1-7.63-.87A1.51,1.51,0,0,0,23,45a27,27,0,0,1-12.3,6,47.61,47.61,0,0,0,3.57-9.83,1.52,1.52,0,0,0-.51-1.52C10.1,36.69,8.08,32.9,8.08,29c0-9.12,10.73-16.54,23.92-16.54S55.92,19.88,55.92,29,45.19,45.54,32,45.54Z" fill="#fff" stroke="#fff" stroke-width="1"/>
    </g>
  </g>
</svg>
