<svg xmlns="http://www.w3.org/2000/svg" width="65.971" height="64.074" viewBox="0 0 65.971 64.074">
  <g id="noun_Star_2344171" transform="translate(-17.015 -17.966)">
    <g id="Group_2" data-name="Group 2" transform="translate(0 -952.362)">
      <path id="Path_21" data-name="Path 21" d="M31.046,1034.38a2.968,2.968,0,0,1-1.985-1.191,3.063,3.063,0,0,1-.553-2.275l2.895-19.346-13.522-13.9a3.06,3.06,0,0,1-.723-3.063,2.991,2.991,0,0,1,2.349-2.055L38.5,989.361l8.843-17.371a2.955,2.955,0,0,1,5.313,0l8.8,17.371,19.033,3.184a2.991,2.991,0,0,1,2.349,2.055,3.06,3.06,0,0,1-.723,3.063l-13.561,13.9,2.934,19.346a3.047,3.047,0,0,1-1.2,2.894,2.936,2.936,0,0,1-3.081.25L50,1025.271l-17.209,8.786a2.935,2.935,0,0,1-1.745.322Zm4.2-8.343,13.4-6.852a2.933,2.933,0,0,1,2.7,0l13.363,6.852-2.26-15.073a3.056,3.056,0,0,1,.833-2.579l10.548-10.842-14.79-2.458a2.978,2.978,0,0,1-2.181-1.572L50,979.97l-6.86,13.542a2.978,2.978,0,0,1-2.181,1.572l-14.791,2.458,10.548,10.842a3.056,3.056,0,0,1,.833,2.579l-2.3,15.073Z" fill="#fff"/>
    </g>
  </g>
</svg>
